<svg width="111" height="40" viewBox="0 0 111 40" fill="none" xmlns="http://www.w3.org/2000/svg">
<path d="M38.7314 0.00488281C40.8201 -0.153886 39.0299 3.52111 38.6025 4.2959C36.5165 8.07791 33.9663 11.5187 31.4404 15.0088C29.4563 17.7502 27.641 20.4752 25.46 23.0811C24.4711 24.2789 23.4363 25.4387 22.3584 26.5576C19.9139 29.0515 18.0398 30.1837 18.2822 34.124C18.3347 34.9767 18.8603 35.4025 19.6904 35.1982C22.9364 34.3989 26.0048 31.7613 28.5869 29.7266C29.1556 29.2782 29.8643 27.5634 30.4756 27.0205C32.5486 24.6992 35.7272 21.8141 38.9102 21.4199C40.0996 21.2727 40.6903 21.7657 41.4951 22.4453C41.6971 22.3811 42.0096 22.2468 42.2158 22.2646C42.482 22.288 42.7619 22.4176 42.9434 22.6152C43.2393 22.938 43.2022 23.4179 43.0801 23.8057C42.8731 24.4623 42.4813 25.0507 42.1348 25.6406C41.1483 27.3198 39.7842 29.3283 39.6572 31.3125C39.6364 31.6364 39.5998 32.0399 39.8652 32.2803C40.0098 32.411 40.2153 32.4467 40.4043 32.4434C42.7201 32.4022 48.4385 27.4385 49.9795 25.7725C50.8495 24.8317 51.5077 23.6247 52.4473 22.7627C52.8168 22.4237 53.323 22.0704 53.8496 22.1084C54.0937 22.1261 54.3282 22.2365 54.4844 22.4268C54.7445 22.7433 54.7168 23.2091 54.5625 23.5654C54.2865 24.2023 53.6864 24.7398 53.2627 25.2861C52.0841 26.8061 51.4522 28.8589 51.2031 30.7422C51.1492 31.1499 51.1171 31.5539 51.376 31.8955C51.5042 31.9536 51.5553 31.9947 51.7002 31.9873C53.0616 31.9166 56.6341 27.1451 57.5693 25.8672C57.9649 25.3268 58.2626 24.6842 58.7158 24.1943C59.3277 24.1381 60.7775 25.328 61.7393 25.332C64.0549 25.3415 66.1083 24.3914 67.9521 23.0547C68.4107 22.7222 69.4603 21.7973 70.0215 21.8809C70.2143 21.9097 70.3857 22.021 70.4912 22.1846C71.1054 23.126 68.6922 25.5151 68.2607 26.3369C67.8219 27.1731 64.4806 31.7497 66.9697 31.8271C68.556 31.8765 72.9243 30.5378 74.1357 29.5078C74.7962 26.0178 78.0562 22.0833 81.3701 20.8594C83.8596 19.9401 85.3175 21.6824 83.8037 24.0312C82.3926 26.2206 79.1145 29.7172 76.5195 30.3799C76.9857 32.1091 78.5772 31.7027 79.9463 31.4131C82.4172 30.8905 84.5445 29.7029 86.6377 28.3564C89.1119 26.7648 91.4479 25.0029 93.8096 23.251C94.6251 22.6441 95.3823 21.9245 96.1855 21.2998C97.3937 20.4232 98.5988 19.5306 98.7598 21.833C98.78 22.2868 98.7494 22.7281 98.6367 23.1699C98.0871 25.324 97.8142 27.6052 97.1045 29.7061C98.8804 29.1935 100.733 28.9597 102.562 28.709C104.234 28.4799 105.983 28.2326 107.662 28.0869C108.493 27.9896 111.632 27.4767 110.887 29.2646C110.258 29.85 107.285 29.847 106.283 29.9375C104.112 30.1494 101.946 30.4125 99.7871 30.7256C99.0747 30.8299 96.6821 31.0376 96.376 31.666C95.6542 33.1469 94.3543 34.416 92.6484 34.6289C91.6047 34.759 88.4239 34.2032 88.5283 32.6777C88.7925 29.9157 93.5929 30.8591 95.2334 29.7295C95.6882 29.3766 96.2737 24.5115 96.1846 23.8848L96.1045 23.8281C95.1563 24.0938 91.3278 27.4791 90.1514 28.2129C86.4541 30.5188 77.9001 36.4504 74.3428 31.5693L74.2725 31.5898L74.1543 31.625C72.5079 32.1122 70.9331 33.0634 69.2041 33.5361C67.4916 34.0043 64.5986 34.4185 64.084 32.082C63.5998 29.8823 65.1684 27.9381 66.2295 26.21C62.7431 26.8653 62.9278 27.7431 59.2969 26.5039C59.1922 26.7349 59.0852 26.9651 58.9766 27.1943C58.5988 27.9697 58.1257 28.6954 57.5684 29.3545C56.4198 30.7306 53.4105 33.4779 51.6855 34.1914C51.2417 34.3749 50.5364 34.395 50.0762 34.1299C48.8843 33.4425 49.0802 31.4365 49.2998 30.2842C49.3822 29.8516 49.7267 29.2152 49.6055 28.8203C49.192 28.6509 47.8793 30.0118 47.5 30.3145C46.0965 31.4347 44.6733 32.5672 43.1182 33.4746C41.9293 34.1683 40.1697 35.0914 38.8594 34.2012C37.8787 33.5313 37.714 32.256 37.543 31.1709C35.6225 32.673 29.5933 38.2129 27.5615 33.9189C27.5169 33.8238 27.4696 33.3661 27.4004 33.1592C26.9561 32.8584 26.0911 33.8007 25.6426 34.0859C23.5006 35.4479 21.5252 37.117 18.8535 37.0137C15.8386 36.897 16.6702 33.4915 16.2031 32.9375C15.8525 32.927 14.9522 33.7654 14.6162 34.0361C12.3838 35.8134 9.97835 37.3632 7.43555 38.6611C5.74595 39.5434 3.83844 40.3958 1.89746 39.8027C-0.337336 39.12 -0.271761 36.0239 0.444336 34.2451C1.62778 31.4229 3.78677 28.3878 6.17188 26.4297C8.16394 24.7945 10.6619 23.1149 12.9844 21.9795C14.6286 21.1757 17.2125 20.4916 18.9609 21.2666C19.6083 21.5539 20.0024 22.1363 20.8457 22.4189C22.1767 20.4259 23.68 17.6947 25.0068 15.6855C27.3333 12.1632 35.2151 1.44488 38.7314 0.00488281ZM19.7461 24.2148C19.0445 22.7562 17.8746 22.5362 16.373 22.7295C11.104 23.3861 1.87014 31.3527 1.84277 36.9785C1.83501 38.5832 4.16674 38.0969 5.11426 37.749C8.71145 36.4015 11.8925 34.0408 14.8477 31.6436C15.827 30.8491 17.3528 29.7993 17.8057 28.6631C18.378 27.2272 19.2294 25.6453 19.7461 24.2148ZM38.9971 23.4502C35.9006 24.0153 32.5135 27.4193 30.6816 29.8701C29.9314 30.8739 28.1492 34.56 31.1084 33.3887C34.3035 31.6773 37.5539 28.809 39.4131 25.7656C39.7225 25.259 40.3905 24.4862 40.5967 24C40.5238 23.4322 39.4398 23.4213 38.9971 23.4502ZM93.7412 31.7695C93.1629 31.9186 91.5515 32.4283 91.1445 32.8252C91.215 33.0126 91.3551 33.0618 91.5342 33.1689C92.302 33.2721 93.4882 32.5249 93.8896 31.8945L93.876 31.7842L93.7412 31.7695ZM81.9834 22.543C79.9344 23.5045 77.1736 26.0866 76.7109 28.3516L76.7656 28.4434L76.8418 28.418C78.4632 27.0262 81.7963 24.7506 82.1426 22.6992C82.0601 22.5452 82.1194 22.5895 81.9834 22.543ZM37.1445 3.25586C35.8892 4.07434 34.8909 5.26912 33.9463 6.41602C32.2731 8.44787 22.0989 22.5855 21.7861 24.0146C21.759 24.1389 21.769 24.2603 21.7783 24.3857C21.837 24.4663 21.8392 24.4941 21.915 24.5361C22.6401 24.0828 23.5266 22.9999 24.1074 22.333C28.0671 17.7878 31.3771 12.7632 34.668 7.73047C35.0737 7.10985 37.2708 3.78381 37.2529 3.32812L37.1445 3.25586Z" fill="white"/>
</svg>
