<svg width="751" height="162" viewBox="0 0 751 162" fill="none" xmlns="http://www.w3.org/2000/svg">
<path d="M0 143.82V2.42393H43.9317C57.6352 2.42393 69.7265 5.45386 80.2056 11.5137C90.8191 17.4389 99.0814 25.7207 104.993 36.3591C111.038 46.9975 114.061 59.2519 114.061 73.1222C114.061 86.8578 111.038 99.0449 104.993 109.683C99.0814 120.322 90.8191 128.671 80.2056 134.731C69.7265 140.791 57.6352 143.82 43.9317 143.82H0ZM21.5628 123.621H43.9317C50.6491 123.621 56.8963 122.342 62.6732 119.783C68.5845 117.224 73.6897 113.656 77.9888 109.077C82.4223 104.364 85.8482 98.9775 88.2665 92.9177C90.8191 86.7232 92.0954 80.1247 92.0954 73.1222C92.0954 66.1197 90.8191 59.5885 88.2665 53.5287C85.8482 47.3342 82.4223 41.9476 77.9888 37.3691C73.6897 32.6559 68.5845 29.0199 62.6732 26.4613C56.8963 23.9027 50.6491 22.6234 43.9317 22.6234H21.5628V123.621Z" fill="white"/>
<path d="M233.233 143.82L177.814 2.42393H199.579L256.206 143.82H233.233ZM120.179 143.82L176.807 2.42393H198.571L143.153 143.82H120.179ZM146.78 107.663V88.2718H229.605V107.663H146.78Z" fill="white"/>
<path d="M303.718 143.82L359.54 2.42393H382.715L325.281 143.82H303.718ZM301.501 143.82L244.068 2.42393H267.041L322.863 143.82H301.501Z" fill="white"/>
<path d="M397.84 143.82V2.42393H419.403V143.82H397.84Z" fill="white"/>
<path d="M450.094 143.82V2.42393H535.942V22.2194H471.656V62.0125H529.09V81.404H471.656V124.025H536.546V143.82H450.094Z" fill="white"/>
<path d="M610.876 146.244C603.487 146.244 596.703 145.369 590.523 143.618C584.477 141.868 579.103 139.511 574.401 136.549C569.833 133.451 566.071 130.017 563.116 126.247C560.16 122.342 558.078 118.302 556.869 114.127L577.827 107.461C579.842 112.713 583.537 117.292 588.911 121.197C594.284 125.102 600.867 127.122 608.66 127.257C617.93 127.257 625.252 125.372 630.625 121.601C636.134 117.696 638.888 112.646 638.888 106.451C638.888 100.796 636.537 96.1496 631.835 92.5137C627.267 88.7431 621.087 85.9152 613.295 84.0299L596.568 79.788C589.985 78.0374 584.074 75.4788 578.834 72.1122C573.595 68.7456 569.43 64.5711 566.34 59.5885C563.25 54.4713 561.705 48.4788 561.705 41.611C561.705 28.5486 565.937 18.3815 574.401 11.1097C582.865 3.70324 595.091 0 611.078 0C620.214 0 628.14 1.41396 634.857 4.24189C641.575 7.06982 647.083 10.9077 651.382 15.7556C655.816 20.4688 659.04 25.7207 661.055 31.5112L640.299 38.379C638.149 32.7232 634.454 28.0773 629.215 24.4414C623.975 20.8055 617.459 18.9875 609.667 18.9875C601.741 18.9875 595.426 20.9401 590.724 24.8454C586.022 28.616 583.671 33.8678 583.671 40.601C583.671 46.1222 585.485 50.4314 589.112 53.5287C592.874 56.4913 597.778 58.7805 603.823 60.3965L620.751 64.4364C633.648 67.6683 643.59 73.0549 650.576 80.596C657.697 88.1372 661.257 96.3516 661.257 105.239C661.257 113.185 659.309 120.254 655.413 126.449C651.651 132.509 646.008 137.357 638.485 140.993C630.961 144.494 621.759 146.244 610.876 146.244Z" fill="white"/>
<path d="M670.391 162V143.82H751V162H670.391Z" fill="#07C42C"/>
</svg>
