<svg width="128" height="128" viewBox="0 0 128 128" fill="none" xmlns="http://www.w3.org/2000/svg">
<rect width="128" height="128" fill="#010907"/>
<g clip-path="url(#clip0_2038_36)">
<path d="M51.5381 32.0001C62.3858 31.9876 71.8368 32.3158 80.2275 40.4141C93.1071 52.8465 93.195 74.0857 80.8496 86.9678C72.0082 95.5432 63.4071 95.9977 51.9766 96.0001L38 95.9913L38.0039 32.0098L51.5381 32.0001ZM71.2393 42.295C63.4583 37.5352 53.4841 38.6291 44.6582 38.6495L64.418 67.0821C68.0034 72.2346 71.6396 77.6399 75.2988 82.7012C76.5554 81.7077 77.9347 79.9172 78.8242 78.5733C82.7435 72.1926 83.9105 64.4986 82.0596 57.2442C80.4882 50.92 76.8059 45.701 71.2393 42.295Z" fill="white"/>
</g>
<defs>
<clipPath id="clip0_2038_36">
<rect width="52" height="64" fill="white" transform="translate(38 32)"/>
</clipPath>
</defs>
</svg>
