<svg width="33" height="40" viewBox="0 0 33 40" fill="none" xmlns="http://www.w3.org/2000/svg">
<g clip-path="url(#clip0_2096_59)">
<path d="M8.46094 0C15.2408 -0.00776122 21.1483 0.197157 26.3926 5.25879C34.4422 13.0289 34.4968 26.3032 26.7812 34.3545C21.2553 39.7141 15.8795 39.9985 8.73535 40L0 39.9941L0.00195312 0.00683594L8.46094 0ZM20.7744 6.43457C15.9113 3.45971 9.67733 4.14352 4.16113 4.15625L16.5107 21.9258C18.7517 25.1462 21.0244 28.525 23.3115 31.6885C24.097 31.0676 24.9587 29.9484 25.5146 29.1084C27.9644 25.1203 28.694 20.3115 27.5371 15.7773C26.555 11.8248 24.2535 8.56331 20.7744 6.43457Z" fill="#07C42C"/>
</g>
<defs>
<clipPath id="clip0_2096_59">
<rect width="32.5" height="40" fill="white"/>
</clipPath>
</defs>
</svg>
