<svg width="80" height="81" viewBox="0 0 80 81" fill="none" xmlns="http://www.w3.org/2000/svg">
<g clip-path="url(#clip0_2038_1813)">
<path d="M40 80.6833C62.0914 80.6833 80 62.7747 80 40.6833C80 18.592 62.0914 0.68335 40 0.68335C17.9086 0.68335 0 18.592 0 40.6833C0 62.7747 17.9086 80.6833 40 80.6833Z" fill="#EDEDED"/>
<path d="M28.9778 39.439C29.1555 39.439 29.3333 39.439 29.5111 39.439C29.6889 39.439 29.7778 39.439 29.9556 39.6167L30.3111 38.7278C29.8667 38.5501 29.5111 38.4612 29.0667 38.4612C28.6222 38.4612 28.2667 38.4612 28 38.7278C27.7333 38.9056 27.4667 39.1723 27.2889 39.439C27.1111 39.7056 27.0222 40.1501 27.0222 40.5945C27.0222 41.3056 27.2 41.839 27.5556 42.1945C27.9111 42.5501 28.3555 42.7278 28.9778 42.7278C29.6 42.7278 29.7778 42.7278 30.1333 42.4612V41.4834C29.9556 41.4834 29.7778 41.6612 29.6 41.6612C29.4222 41.6612 29.2444 41.6612 29.0667 41.6612C28.4444 41.6612 28.1778 41.3056 28.1778 40.5056C28.1778 39.7056 28.2667 39.7945 28.4444 39.6167C28.4444 39.3501 28.7111 39.2612 28.9778 39.2612V39.439Z" fill="black"/>
<path d="M33.9557 41.8389C33.7779 41.8389 33.5112 41.8389 33.3334 41.8389C33.0668 41.8389 32.889 41.6612 32.6223 41.5723V42.55C32.8001 42.55 32.9779 42.7278 33.2446 42.7278C33.5112 42.7278 33.689 42.7278 33.9557 42.7278C34.2223 42.7278 34.5779 42.7278 34.8446 42.55C35.1112 42.55 35.289 42.2834 35.3779 42.1056C35.4668 41.9278 35.5557 41.6612 35.5557 41.3945C35.5557 41.1278 35.5557 40.8612 35.3779 40.6834C35.2001 40.5056 35.0223 40.3278 34.6668 40.1501C34.3112 39.9723 34.0446 39.8834 33.9557 39.7945C33.7779 39.7945 33.7779 39.7945 33.7779 39.6167C33.7779 39.4389 33.7779 39.4389 33.7779 39.4389C33.7779 39.4389 33.9557 39.4389 34.1334 39.4389C34.4001 39.4389 34.7557 39.4389 35.1112 39.7056L35.4668 38.8167C35.0223 38.6389 34.5779 38.55 34.1334 38.55C33.689 38.55 33.2446 38.5501 32.9779 38.9056C32.7112 39.0834 32.5334 39.4389 32.5334 39.7945C32.5334 40.1501 32.5334 40.15 32.5334 40.3278C32.5334 40.5056 32.7112 40.5945 32.8001 40.6834C32.9779 40.6834 33.1557 40.9501 33.4223 41.0389C33.689 41.2167 33.8668 41.3056 33.9557 41.3056C34.0446 41.3056 33.9557 41.3056 34.1334 41.3056C34.1334 41.3056 34.1334 41.3056 34.1334 41.4834C34.1334 41.6612 34.1334 41.6612 34.1334 41.7501C34.1334 41.8389 33.9557 41.7501 33.7779 41.7501L33.9557 41.8389Z" fill="black"/>
<path d="M39.2 41.8389C39.0223 41.8389 38.7556 41.8389 38.5778 41.8389C38.3111 41.8389 38.1334 41.6612 37.8667 41.5723V42.55C38.0445 42.55 38.2223 42.7278 38.4889 42.7278C38.7556 42.7278 38.9334 42.7278 39.2 42.7278C39.4667 42.7278 39.8223 42.7278 40.0889 42.55C40.3556 42.55 40.5334 42.2834 40.6223 42.1056C40.7111 41.9278 40.8 41.6612 40.8 41.3945C40.8 41.1278 40.8 40.8612 40.6223 40.6834C40.4445 40.5056 40.2667 40.3278 39.9111 40.1501C39.5556 39.9723 39.2889 39.8834 39.2 39.7945V39.6167V39.4389C39.2 39.4389 39.3778 39.4389 39.5556 39.4389C39.8223 39.4389 40.1778 39.4389 40.5334 39.7056L40.8889 38.8167C40.4445 38.6389 40 38.55 39.5556 38.55C39.1111 38.55 38.6667 38.5501 38.4 38.9056C38.1334 39.0834 37.9556 39.4389 37.9556 39.7945C37.9556 40.1501 37.9556 40.15 37.9556 40.3278C37.9556 40.5056 38.1334 40.5945 38.2223 40.6834C38.4 40.6834 38.5778 40.9501 38.8445 41.0389C39.1111 41.2167 39.2889 41.3056 39.3778 41.3056C39.4667 41.3056 39.3778 41.3056 39.5556 41.3056C39.5556 41.3056 39.5556 41.3056 39.5556 41.4834C39.5556 41.6612 39.5556 41.6612 39.5556 41.7501C39.5556 41.8389 39.2889 41.7501 39.1111 41.7501L39.2 41.8389Z" fill="black"/>
<path d="M46.9332 40.5056C46.9332 39.8834 46.7554 39.3501 46.3999 38.9945C46.0443 38.639 45.511 38.4612 44.8888 38.4612H43.4666V42.639H44.7999C45.511 42.639 46.0443 42.4612 46.3999 42.1056C46.7554 41.7501 46.9332 41.2167 46.9332 40.5056ZM45.511 41.4834C45.3332 41.6612 45.0666 41.7501 44.7999 41.7501H44.5332V39.439H44.8888C45.1554 39.439 45.4221 39.439 45.5999 39.7056C45.7777 39.9723 45.8665 40.1501 45.8665 40.5945C45.7777 40.9501 45.6888 41.3056 45.511 41.4834Z" fill="black"/>
<path d="M51.9999 41.9278L52.1777 42.7278H53.4222L52.0888 38.55H50.5777L49.2444 42.7278H50.4888L50.6666 41.9278H51.9999ZM51.1999 39.7056C51.1999 39.5278 51.1999 39.3501 51.1999 39.2612C51.1999 39.2612 51.1999 39.5278 51.1999 39.7945C51.1999 40.0612 51.1999 40.2389 51.3777 40.4167L51.5555 41.1278H50.6666C50.8444 40.3278 50.9333 39.8834 51.0222 39.7056H51.1999Z" fill="black"/>
<path d="M45.5111 35.5278L41.2445 31.2611L37.0667 35.5278H34.6667L43.5556 26.6389H34.2223L25.2445 35.5278H21.8667V36.15H58.4889V35.5278H45.5111Z" fill="black"/>
<path d="M21.8667 45.6612H34.7556L38.9334 49.8389L43.2 45.6612H45.5111L36.6223 54.55H45.9556L50.6667 49.9278L54.8445 45.6612H58.4889V45.0389H21.8667V45.6612Z" fill="black"/>
<path d="M22.0444 65.75L22.4 64.8611L20.8 63.5278L20 63.9723L19.1111 63.1723L23.8222 60.5945L24.8 61.4834L22.9333 66.55L22.0444 65.75ZM23.6444 61.8389L21.6889 62.9945L22.8444 63.9723L23.6444 61.8389Z" fill="#231F20"/>
<path d="M27.9999 69.3055L28.711 65.8389L26.3999 68.5944L25.4221 68.0611L26.3999 62.9055L27.4666 63.4388L26.6666 67.0833L29.1555 64.2389L29.8666 64.5944L29.0666 68.2389L31.4666 65.3055L32.5332 65.8389L29.0666 69.75L28.0888 69.2166L27.9999 69.3055Z" fill="#231F20"/>
<path d="M35.4668 71.5278V70.6389C35.3779 70.6389 33.2445 70.1945 33.2445 70.1945L32.8001 70.9945L31.6445 70.7278L34.489 66.1945L35.7334 66.4611L36.6223 71.7945L35.4668 71.5278ZM34.9334 67.35L33.7779 69.3056L35.289 69.5722L34.9334 67.2611V67.35Z" fill="#231F20"/>
<path d="M41.6001 71.7944L40.6223 70.0166H39.8223V71.7944H38.7556L38.6667 66.8167H40.9779C42.0445 66.8167 42.6667 67.4389 42.6667 68.3278C42.6667 69.2166 42.1334 69.75 41.6001 69.8389L42.7556 71.7055H41.5112L41.6001 71.7944ZM41.689 68.4166C41.689 67.9722 41.3334 67.7055 40.9779 67.7944H39.9112V69.2166H40.9779C41.4223 69.2166 41.689 68.95 41.689 68.5055V68.4166Z" fill="#231F20"/>
<path d="M45.3333 71.4389L44.0889 66.55L45.9555 66.0167C47.4666 65.6611 48.7111 66.2834 49.1555 67.7945C49.6 69.3056 48.8 70.4611 47.2889 70.9056L45.4222 71.4389H45.3333ZM48.0889 68.15C47.8222 67.2611 47.2 66.7278 46.2222 66.9945L45.3333 67.2611L46.1333 70.2834L47.0222 70.0167C48 69.75 48.3555 68.95 48.0889 68.0611V68.15Z" fill="#231F20"/>
<path d="M52.0001 69.3055L49.689 64.8611L52.8001 63.2611L53.2445 64.0611L51.1112 65.2167L51.6445 66.1944L53.7779 65.1278L54.2223 65.9278L52.089 66.9944L52.6223 67.9722L54.7556 66.8167L55.2001 67.6167L52.089 69.2167L52.0001 69.3055Z" fill="#231F20"/>
<path d="M57.1556 66.2833L53.8667 62.4611L55.3778 61.2167C56.5334 60.2389 58.0445 60.3278 59.0223 61.4833C60 62.6389 59.8223 64.0611 58.6667 65.1278L57.1556 66.3722V66.2833ZM58.2223 62.1944C57.6889 61.4833 56.8 61.3055 56 62.0167L55.2889 62.55L57.3334 64.95L58.0445 64.4167C58.7556 63.7944 58.7556 62.9055 58.2223 62.1944Z" fill="#231F20"/>
<path d="M14.5779 38.9944L11.1112 39.7055L14.5779 40.6833V41.75L9.51123 42.9944V41.8389L13.2446 41.1278L9.60012 40.0611V39.2611L13.3335 38.4611L9.68901 37.4833V36.3278L14.7557 37.8389V38.9055L14.5779 38.9944Z" fill="#231F20"/>
<path d="M15.0224 35.35L10.1335 34.1055L11.0224 30.8167L11.9113 31.0833L11.2891 33.3944L12.3558 33.6611L12.978 31.35L13.8669 31.6166L13.2447 33.9278L14.3113 34.1944L14.9335 31.8833L15.8224 32.15L14.9335 35.4389L15.0224 35.35Z" fill="#231F20"/>
<path d="M16.4445 30.6388L11.9111 28.4166L12.9778 26.1055C13.3334 25.3055 14.1334 25.1277 14.7556 25.3944C15.2889 25.6611 15.5556 26.1944 15.4667 26.6388C15.7334 26.1944 16.4445 26.1055 16.9778 26.3722C17.6889 26.7277 17.9556 27.4388 17.6 28.2388L16.4445 30.6388ZM14.4889 26.4611C14.2222 26.2833 13.8667 26.4611 13.7778 26.7277L13.2445 27.8833L14.2222 28.3277L14.7556 27.1722C14.9334 26.8166 14.7556 26.55 14.4889 26.4611ZM16.3556 27.2611C16.0889 27.0833 15.7334 27.2611 15.5556 27.5277L15.0222 28.6833L16.0889 29.2166L16.6222 28.0611C16.8 27.7055 16.6222 27.4388 16.3556 27.2611Z" fill="#231F20"/>
<path d="M18.2222 25.5722L17.8667 24.5944C18.4 24.5944 18.9334 24.3278 19.3778 23.7944C19.7334 23.35 19.6445 22.9944 19.3778 22.8167C18.6667 22.2833 17.5111 24.8611 16 23.7056C15.2889 23.1722 15.2 22.1944 15.9111 21.3056C16.3556 20.6833 16.9778 20.3278 17.6 20.2389L17.8667 21.1278C17.3334 21.1278 16.8889 21.4833 16.5334 21.9278C16.2667 22.2833 16.2667 22.6389 16.5334 22.8167C17.1556 23.2611 18.4 20.7722 19.9111 21.9278C20.6222 22.4611 20.8 23.4389 20 24.4167C19.4667 25.1278 18.7556 25.4833 18.1334 25.5722H18.2222Z" fill="#231F20"/>
<path d="M22.3111 21.75L18.8445 18.1055L19.5556 17.3944L23.0223 21.0389L22.3111 21.75Z" fill="#231F20"/>
<path d="M25.2447 19.1722L22.8447 15.8834L21.6891 16.6834L21.1558 15.8834L24.2669 13.6611L24.8002 14.4611L23.6447 15.2611L26.0447 18.55L25.1558 19.1722H25.2447Z" fill="#231F20"/>
<path d="M28.4446 17.0388L26.4001 12.4166L29.5113 10.9944L29.8668 11.8833L27.6446 12.8611L28.089 13.8388L30.2224 12.8611L30.5779 13.7499L28.4446 14.7277L28.889 15.7944L31.1113 14.8166L31.4668 15.7055L28.3557 17.1277L28.4446 17.0388Z" fill="#231F20"/>
<path d="M35.2002 12.0611C35.1113 10.55 36.0891 9.39443 37.5113 9.21665C38.9335 9.12777 40.0891 10.1055 40.2668 11.6167C40.3557 13.1278 39.378 14.2833 37.9557 14.4611C36.5335 14.55 35.378 13.5722 35.2002 12.0611ZM39.2002 11.7055C39.2002 10.7278 38.4891 10.1055 37.6002 10.1944C36.7113 10.1944 36.178 10.9944 36.2668 11.9722C36.2668 12.95 36.978 13.5722 37.8668 13.4833C38.7557 13.4833 39.2891 12.6833 39.2002 11.7055Z" fill="#231F20"/>
<path d="M41.8667 14.2833L42.5778 9.30554L45.9556 9.74999V10.7278C45.8667 10.7278 43.4667 10.3722 43.4667 10.3722L43.2889 11.4389L45.6 11.7944V12.7722C45.5111 12.7722 43.1111 12.4167 43.1111 12.4167L42.8445 14.4611L41.8667 14.2833Z" fill="#231F20"/>
<path d="M50.2224 16.5055L52.0002 12.8611L50.7557 12.2389L51.2002 11.35L54.6669 13.0389L54.2224 13.9278L52.978 13.3055L51.2002 16.95L50.2224 16.5055Z" fill="#231F20"/>
<path d="M56.2667 20.3277L57.6001 18.6389L55.8223 17.2166L54.489 18.9055L53.689 18.2833L56.8001 14.3722L57.6001 14.9944L56.3556 16.5055L58.1334 17.9277L59.3779 16.4166L60.1778 17.0389L57.0667 20.95L56.2667 20.3277Z" fill="#231F20"/>
<path d="M58.2224 22.1944L62.1335 18.9944L64.3557 21.6611L63.6446 22.2833L62.1335 20.4166L61.3335 21.1277L62.8446 22.9055L62.1335 23.5277L60.6224 21.7499L59.7335 22.4611L61.2446 24.3277L60.5335 24.9499L58.3113 22.2833L58.2224 22.1944Z" fill="#231F20"/>
<path d="M62.6667 28.4167L67.3779 26.55L68.089 28.3278C68.6223 29.75 68.089 31.0834 66.7556 31.6167C65.3334 32.15 64.0001 31.6167 63.4667 30.1945L62.7556 28.4167H62.6667ZM66.2223 30.6389C67.0223 30.2834 67.4667 29.5723 67.1112 28.6834L66.7556 27.8834L63.8223 29.0389L64.1779 29.8389C64.5334 30.7278 65.4223 30.9945 66.2223 30.6389Z" fill="#231F20"/>
<path d="M65.2445 37.0389L66.0445 36.5945L65.689 34.55L64.8001 34.3722L64.6223 33.2167L69.9556 34.1945L70.2223 35.4389L65.6001 38.1945L65.4223 37.0389H65.2445ZM68.889 35.0833L66.5779 34.7278L66.8445 36.2389L68.8001 35.0833H68.889Z" fill="#231F20"/>
<path d="M65.4224 40.3278H67.4668L70.489 38.55V39.7056L68.4446 40.8612L70.489 42.1056V43.2612L67.5557 41.3945H65.5113V40.3278H65.4224Z" fill="#231F20"/>
</g>
<defs>
<clipPath id="clip0_2038_1813">
<rect width="80" height="80" fill="white" transform="translate(0 0.68335)"/>
</clipPath>
</defs>
</svg>
