<svg width="1296" height="279" viewBox="0 0 1296 279" fill="none" xmlns="http://www.w3.org/2000/svg">
<path d="M0 247.691V4.17456H75.8129C99.461 4.17456 120.327 9.39277 138.411 19.8292C156.726 30.0337 170.985 44.2968 181.186 62.6185C191.619 80.9401 196.835 102.045 196.835 125.933C196.835 149.589 191.619 170.577 181.186 188.899C170.985 207.221 156.726 221.6 138.411 232.036C120.327 242.473 99.461 247.691 75.8129 247.691H0ZM37.2109 212.903H75.8129C87.4051 212.903 98.1858 210.699 108.155 206.293C118.356 201.887 127.166 195.741 134.585 187.855C142.236 179.738 148.148 170.461 152.321 160.025C156.726 149.357 158.929 137.993 158.929 125.933C158.929 113.873 156.726 102.625 152.321 92.1883C148.148 81.5199 142.236 72.2431 134.585 64.3579C127.166 56.2406 118.356 49.9788 108.155 45.5723C98.1858 41.1658 87.4051 38.9626 75.8129 38.9626H37.2109V212.903Z" fill="white"/>
<path d="M402.49 247.691L306.854 4.17456H344.413L442.135 247.691H402.49ZM207.393 247.691L305.115 4.17456H342.674L247.039 247.691H207.393ZM253.298 185.42V152.024H396.23V185.42H253.298Z" fill="white"/>
<path d="M524.126 247.691L620.457 4.17456H660.45L561.337 247.691H524.126ZM520.301 247.691L421.188 4.17456H460.833L557.164 247.691H520.301Z" fill="white"/>
<path d="M686.552 247.691V4.17456H723.763V247.691H686.552Z" fill="white"/>
<path d="M776.726 247.691V4.17456H924.874V38.2668H813.937V106.799H913.05V140.196H813.937V213.598H925.918V247.691H776.726Z" fill="white"/>
<path d="M1054.19 251.865C1041.44 251.865 1029.73 250.358 1019.06 247.343C1008.63 244.328 999.358 240.269 991.243 235.167C983.361 229.833 976.869 223.919 971.768 217.425C966.668 210.699 963.074 203.742 960.988 196.552L997.155 185.072C1000.63 194.117 1007.01 202.002 1016.28 208.728C1025.56 215.454 1036.92 218.933 1050.36 219.165C1066.36 219.165 1079 215.918 1088.27 209.424C1097.78 202.698 1102.53 194.001 1102.53 183.333C1102.53 173.592 1098.47 165.591 1090.36 159.329C1082.47 152.835 1071.81 147.965 1058.36 144.718L1029.5 137.413C1018.14 134.398 1007.94 129.991 998.894 124.193C989.852 118.395 982.665 111.206 977.333 102.625C972 93.8117 969.334 83.4913 969.334 71.6633C969.334 49.1671 976.637 31.6571 991.243 19.1334C1005.85 6.37781 1026.95 0 1054.54 0C1070.3 0 1083.98 2.43516 1095.57 7.30547C1107.17 12.1758 1116.67 18.7855 1124.09 27.1347C1131.74 35.2519 1137.3 44.2967 1140.78 54.2693L1104.96 66.0973C1101.25 56.3566 1094.88 48.3554 1085.84 42.0935C1076.79 35.8317 1065.55 32.7007 1052.1 32.7007C1038.42 32.7007 1027.53 36.0636 1019.41 42.7893C1011.3 49.283 1007.24 58.3279 1007.24 69.9239C1007.24 79.4327 1010.37 86.8541 1016.63 92.1883C1023.12 97.2905 1031.58 101.233 1042.02 104.016L1071.23 110.974C1093.49 116.54 1110.64 125.817 1122.7 138.804C1134.99 151.792 1141.13 165.939 1141.13 181.246C1141.13 194.929 1137.77 207.105 1131.05 217.773C1124.55 228.209 1114.82 236.559 1101.83 242.82C1088.85 248.85 1072.97 251.865 1054.19 251.865Z" fill="white"/>
</svg>
