<svg width="1296" height="279" viewBox="0 0 1296 279" fill="none" xmlns="http://www.w3.org/2000/svg">
<path d="M1295.25 248.44V278.25H1157.64V248.44H1295.25ZM1054.54 0.75C1070.23 0.750046 1083.8 3.17394 1095.28 7.99707C1106.78 12.8295 1116.19 19.3775 1123.53 27.6328L1123.54 27.6406L1123.54 27.6494C1130.94 35.4984 1136.36 44.214 1139.82 53.7979L1105.4 65.1611C1101.6 55.5736 1095.21 47.6758 1086.26 41.4766C1077.07 35.1102 1065.67 31.9512 1052.1 31.9512C1038.31 31.9512 1027.23 35.3426 1018.94 42.2041C1010.63 48.8579 1006.49 58.1302 1006.49 69.9238C1006.49 79.614 1009.69 87.2591 1016.14 92.7588L1016.17 92.7783C1022.76 97.9594 1031.32 101.94 1041.82 104.741L1041.83 104.743L1041.84 104.746L1071.06 111.703C1093.21 117.244 1110.22 126.462 1122.15 139.314L1122.15 139.319C1134.33 152.193 1140.38 166.163 1140.38 181.246C1140.38 194.8 1137.05 206.835 1130.41 217.373L1130.41 217.377C1124 227.673 1114.38 235.934 1101.51 242.145C1088.65 248.113 1072.89 251.115 1054.19 251.115C1041.5 251.115 1029.86 249.615 1019.27 246.622C1008.91 243.626 999.703 239.597 991.659 234.542C984.078 229.411 977.806 223.751 972.835 217.562L972.358 216.962C967.477 210.523 964 203.884 961.916 197.044L996.715 185.998C1000.31 194.925 1006.7 202.702 1015.84 209.335C1025.26 216.166 1036.78 219.68 1050.35 219.914V219.915H1050.36C1066.45 219.915 1079.26 216.65 1088.7 210.038L1088.7 210.036C1098.39 203.185 1103.28 194.27 1103.28 183.333C1103.28 173.346 1099.1 165.131 1090.81 158.735C1083.07 152.362 1072.72 147.559 1059.8 144.3L1058.54 143.989L1029.69 136.688C1018.4 133.691 1008.27 129.314 999.299 123.562C990.625 117.999 983.685 111.152 978.469 103.02L977.97 102.229C972.721 93.5509 970.084 83.3713 970.084 71.6631C970.084 49.3449 977.32 32.0596 991.731 19.7031L991.736 19.6982C1006.16 7.10386 1027.05 0.75 1054.54 0.75ZM75.8125 4.9248C99.3467 4.9248 120.081 10.1162 138.036 20.4785L138.046 20.4844C156.24 30.6209 170.397 44.7837 180.53 62.9834L180.534 62.9893C190.895 81.1835 196.085 102.157 196.085 125.933C196.085 149.475 190.895 170.333 180.534 188.528L180.53 188.534C170.396 206.735 156.236 221.016 138.039 231.385L138.036 231.387C120.081 241.749 99.3467 246.94 75.8125 246.94H0.75V4.9248H75.8125ZM924.124 4.9248V37.5166H813.188V107.549H912.301V139.445H813.188V214.349H925.168V246.94H777.477V4.9248H924.124ZM723.013 4.9248V246.94H687.302V4.9248H723.013ZM659.335 4.9248L560.833 246.94H557.674L541.451 205.932L620.967 4.9248H659.335ZM556.061 246.94H525.229L540.645 207.971L556.061 246.94ZM460.323 4.9248L539.838 205.932L523.616 246.94H520.805L422.303 4.9248H460.323ZM343.905 4.9248L441.026 246.94H403L379.135 186.17H396.98V151.273H365.43L325.569 49.7773L343.185 4.9248H343.905ZM306.344 4.9248L323.958 49.7773L284.099 151.273H252.548V186.17H270.394L246.528 246.94H208.502L305.623 4.9248H306.344ZM36.4609 213.652H75.8125C87.4998 213.652 98.3822 211.43 108.451 206.98L108.452 206.981C118.745 202.535 127.641 196.331 135.132 188.369L135.131 188.368C142.844 180.184 148.807 170.831 153.015 160.312C157.459 149.548 159.679 138.086 159.679 125.933C159.679 113.779 157.458 102.431 153.012 91.8965C148.936 81.4834 143.214 72.3772 135.843 64.5859L135.124 63.8359C127.636 55.6474 118.743 49.329 108.452 44.8838H108.451C98.3823 40.4345 87.4997 38.2129 75.8125 38.2129H36.4609V213.652ZM395.48 152.773V184.67H378.545L366.019 152.773H395.48ZM364.407 152.773L376.935 184.67H272.594L285.121 152.773H364.407ZM283.51 152.773L270.983 184.67H254.048V152.773H283.51ZM341.573 4.9248L324.764 47.7256L307.955 4.9248H341.573Z" stroke="white" stroke-width="1.5"/>
</svg>
