<svg width="33" height="48" viewBox="0 0 33 48" fill="none" xmlns="http://www.w3.org/2000/svg">
<path fill-rule="evenodd" clip-rule="evenodd" d="M4.0417 16.4829C1.60854 14.8834 0 12.1141 0 8.96568C0 4.01408 3.97882 0 8.88692 0H24.1131C29.0212 0 33 4.01408 33 8.96568C33 12.1141 31.3915 14.8834 28.9583 16.4829C31.3915 18.0824 33 20.8518 33 24.0001C33 28.9517 29.0212 32.9658 24.1131 32.9658H23.9511C21.631 32.9658 19.5185 32.0688 17.9358 30.5998V38.9526C17.9358 43.9595 13.87 48 8.9272 48C4.02917 48 0 43.9961 0 39.0343C0 35.886 1.60846 33.1167 4.04154 31.5172C1.60846 29.9177 0 27.1484 0 24.0001C0 20.8518 1.60854 18.0824 4.0417 16.4829ZM17.9358 24.0001C17.9358 27.3517 20.629 30.0686 23.9511 30.0686H24.1131C27.4352 30.0686 30.1283 27.3517 30.1283 24.0001C30.1283 20.6485 27.4352 17.9315 24.1131 17.9315H23.9511C20.629 17.9315 17.9358 20.6485 17.9358 24.0001ZM15.0642 17.9315H8.88692C5.56476 17.9315 2.87167 20.6485 2.87167 24.0001C2.87167 27.3449 5.5539 30.0576 8.86669 30.0686H8.87613H15.0642V17.9315ZM8.88692 32.9658C8.88018 32.9658 8.87344 32.9658 8.86669 32.9658C5.5539 32.9767 2.87167 35.6895 2.87167 39.0343C2.87167 42.3758 5.59497 45.1029 8.9272 45.1029C12.3041 45.1029 15.0642 42.3392 15.0642 38.9526V32.9658H8.88692ZM15.0642 15.0342H8.88692C5.56476 15.0342 2.87167 12.3173 2.87167 8.96568C2.87167 5.61408 5.56476 2.89712 8.88692 2.89712H15.0642V15.0342ZM24.1131 15.0342H17.9358V2.89712H24.1131C27.4352 2.89712 30.1283 5.61408 30.1283 8.96568C30.1283 12.3173 27.4352 15.0342 24.1131 15.0342Z" fill="white"/>
</svg>
