<svg width="80" height="81" viewBox="0 0 80 81" fill="none" xmlns="http://www.w3.org/2000/svg">
<path fill-rule="evenodd" clip-rule="evenodd" d="M40.0019 6.61621C38.7588 6.61621 37.5312 6.68633 36.3223 6.81383C33.1513 7.07009 30.2832 7.65697 28.3465 8.53308L28.3386 8.53703H28.3346C28.2497 8.59269 28.192 8.64379 28.1094 8.69908C27.0553 9.00016 26.0845 9.41239 25.1965 9.92824C13.7663 15.3416 5.84994 26.8267 5.74722 40.1397C5.74408 40.1518 5.73845 40.163 5.73536 40.1752V40.1871V40.195C5.73505 40.2366 5.7429 40.2762 5.74327 40.3175C5.7432 40.3453 5.73931 40.3727 5.73931 40.4005C5.73931 46.9573 7.6435 53.0749 10.9247 58.257C11.2203 58.9677 11.6938 59.6485 12.3239 60.3004C16.876 66.4443 23.4794 71.0145 31.1368 73.0347C33.9658 73.7811 36.9355 74.1848 40.0019 74.1848C41.0439 74.1848 42.074 74.1325 43.0926 74.0425C43.1267 74.0392 43.1616 74.0408 43.1953 74.0347C44.33 73.931 45.4468 73.7745 46.5469 73.5643C49.0371 73.1755 51.3303 72.5395 53.1117 71.6158C57.3287 69.8906 61.1221 67.3606 64.2927 64.2171C64.3023 64.2082 64.3108 64.1984 64.3204 64.1895C66.0058 62.6219 67.4581 60.8411 68.664 58.9013C72.2021 53.5855 74.2644 47.2308 74.2644 40.4005C74.2644 33.0749 71.8912 26.2974 67.8696 20.7615C67.8224 20.6967 67.7753 20.6323 67.7273 20.5679C63.9765 15.4809 58.8258 11.466 52.831 9.07454C52.8272 9.07301 52.823 9.07213 52.8192 9.07059C50.5578 7.90566 47.4806 7.20446 44.219 6.88101C42.8359 6.71324 41.4306 6.61621 40.0019 6.61621ZM39.3102 6.82568C39.9248 6.81746 40.5452 6.82047 41.1638 6.83754C42.0631 6.86235 42.9569 6.92326 43.8435 7.00354C43.9957 7.02038 44.1464 7.044 44.298 7.06282C43.1881 7.18304 41.9238 7.8451 40.5157 9.04293C40.5064 9.04455 40.4972 9.04525 40.488 9.04688C40.3678 9.01285 40.2532 8.97371 40.1323 8.94017L40.1125 8.93226L40.0928 8.93621C39.9773 8.96042 39.8676 8.98664 39.7529 9.01131C39.2623 8.37631 38.7912 7.84733 38.3577 7.52524C37.9032 7.18759 37.4727 7.01305 37.0732 6.99958C36.94 6.9951 36.8084 7.0084 36.6819 7.03911C36.1761 7.16193 35.7408 7.55842 35.3658 8.17342C35.3413 8.21355 35.3226 8.27368 35.2986 8.3157C34.3036 8.1838 33.3417 8.10093 32.4371 8.10228C31.4813 8.1037 30.5909 8.19875 29.7338 8.33942C31.9002 7.66559 34.1552 7.19924 36.4843 6.96401C36.4936 6.96307 36.5026 6.961 36.512 6.96006C37.4278 6.88962 38.3597 6.8384 39.3102 6.82568ZM37.0692 7.15768C37.4293 7.16954 37.8257 7.32692 38.2628 7.65171C38.6669 7.95192 39.118 8.45177 39.5869 9.05083C39.4642 9.07751 39.3452 9.10662 39.2233 9.13383C37.9051 8.76727 36.652 8.50118 35.4646 8.33546C35.4779 8.3129 35.4868 8.27835 35.5002 8.25642C35.8626 7.66217 36.2713 7.30254 36.7214 7.19325C36.834 7.16592 36.9492 7.15372 37.0692 7.15768ZM44.7486 7.19325C44.9375 7.19626 45.1195 7.21796 45.2979 7.25253C46.0614 7.40042 46.7378 7.83943 47.3334 8.52122C47.1745 8.51538 47.0282 8.49656 46.867 8.49356C45.0106 8.45891 42.991 8.62771 40.82 8.99155C42.3184 7.76402 43.6323 7.17544 44.7486 7.19325ZM45.9975 7.31577C48.3561 7.72862 50.6308 8.37597 52.7955 9.24054C52.961 9.32669 53.1019 9.42614 53.2579 9.5172C51.5585 8.95713 49.6465 8.63193 47.5468 8.53703C47.0844 7.97854 46.5692 7.56313 45.9975 7.31577ZM30.7653 7.86909C30.6323 7.90577 30.4984 7.94154 30.3661 7.97976C30.4975 7.94194 30.6296 7.90518 30.7653 7.86909ZM32.4411 8.25642C33.3218 8.25587 34.2591 8.33866 35.2275 8.46589C35.0485 8.80134 34.8815 9.18813 34.7295 9.62787C30.8274 10.1065 27.4135 10.9324 24.4416 12.0427C25.2151 11.0763 26.4445 10.0175 28.1331 8.88088C28.2526 8.83712 28.3725 8.79293 28.4927 8.75046C29.7017 8.43877 31.0066 8.25731 32.4411 8.25642ZM35.3895 8.48565C36.4974 8.63885 37.6656 8.87941 38.8913 9.20892C38.7806 9.23419 38.6693 9.25831 38.5593 9.28402C37.3002 9.36034 36.075 9.4641 34.9034 9.60415C35.0538 9.17749 35.215 8.8051 35.3895 8.48565ZM46.8631 8.6477C47.0723 8.6515 47.2625 8.67861 47.4678 8.68722C47.7728 9.06406 48.0449 9.53588 48.3056 10.0429C46.1308 9.66319 43.7876 9.40458 41.2705 9.27611C41.1232 9.23253 40.9764 9.18853 40.8279 9.14569C42.9969 8.78101 45.0136 8.61404 46.8631 8.6477ZM47.6812 8.69908C50.0382 8.81804 52.1306 9.25317 53.9733 9.95986C54.8946 10.7288 55.5756 11.4525 56.0601 12.1336C53.8077 11.2678 51.2918 10.5732 48.4993 10.0745C48.2455 9.56712 47.9803 9.08711 47.6812 8.69908ZM40.1125 9.09826C40.1207 9.10052 40.1281 9.1039 40.1362 9.10616C40.0733 9.11782 40.0137 9.12578 39.9505 9.13778C40.0056 9.12608 40.0573 9.10985 40.1125 9.09826ZM27.5284 9.11802C26.0003 10.1988 24.8681 11.2127 24.1689 12.1494C23.3039 12.4808 22.4678 12.8299 21.679 13.2087C22.6335 11.9888 23.7674 10.967 25.0819 10.1693C25.8792 9.78629 26.6977 9.44014 27.5284 9.11802ZM39.6936 9.19311C39.6998 9.20129 39.7071 9.20859 39.7133 9.21683C39.6635 9.21901 39.6168 9.22641 39.5671 9.22868C39.5643 9.22787 39.562 9.22555 39.5592 9.22473C39.6045 9.21483 39.6482 9.20294 39.6936 9.19311ZM40.5433 9.22473C40.5647 9.23083 40.5852 9.23838 40.6066 9.24449C40.5786 9.24334 40.5515 9.24166 40.5236 9.24054C40.5301 9.23493 40.5368 9.23032 40.5433 9.22473ZM40.073 9.37887C40.0878 9.37937 40.1017 9.38232 40.1165 9.38283C40.1113 9.3875 40.1058 9.38999 40.1007 9.39468C40.0916 9.38906 40.0821 9.38449 40.073 9.37887ZM40.3457 9.39073C40.6488 9.40212 40.9447 9.41909 41.2429 9.43421C44.127 10.2879 46.7945 11.2778 49.2502 12.3905C49.3481 12.7128 49.4312 13.071 49.519 13.4181C48.1007 13.2371 46.6575 13.1051 45.1991 13.0229C43.6517 11.77 41.9991 10.5876 40.235 9.48558C40.2731 9.45108 40.3079 9.42439 40.3457 9.39073ZM39.3734 9.39468C37.5404 10.2951 35.8164 11.2889 34.1959 12.3629C34.3044 11.7623 34.4271 11.2036 34.5595 10.695C34.5778 10.6249 34.6001 10.5735 34.6188 10.5053C35.9026 10.1171 37.2345 9.76407 38.6146 9.44211C38.8673 9.42698 39.1171 9.40717 39.3734 9.39468ZM39.6699 9.4184C39.7532 9.44293 39.831 9.46023 39.9149 9.48558C39.9248 9.49937 39.9326 9.51119 39.9426 9.52511C39.919 9.54709 39.899 9.5621 39.8754 9.58439H39.8714L39.8675 9.58835C38.9796 10.5882 38.1541 11.75 37.3775 13.0229C36.2627 13.0831 35.1568 13.1711 34.0615 13.2798C34.0973 13.0447 34.1255 12.796 34.1643 12.5723C35.8809 11.427 37.7123 10.3669 39.6699 9.4184ZM41.9108 9.46582C44.2221 9.60607 46.3788 9.86058 48.3926 10.2168C48.4955 10.4263 48.609 10.608 48.7048 10.8373C48.8773 11.2498 49.0296 11.7128 49.1791 12.185C46.932 11.1737 44.512 10.2625 41.9108 9.46582ZM37.6463 9.49744C36.6275 9.75047 35.6431 10.0294 34.6781 10.3195C34.7335 10.1271 34.7927 9.94644 34.852 9.77015C35.7585 9.66074 36.6869 9.56881 37.6463 9.49744ZM40.0414 9.65158C40.096 9.72976 40.1441 9.77893 40.1995 9.86105C40.2013 9.86377 40.2016 9.86624 40.2034 9.86896C40.5451 10.8485 40.8696 11.873 41.1836 12.9162C40.9159 12.9167 40.6489 12.9127 40.3813 12.9162C39.5691 12.9268 38.7552 12.9499 37.9467 12.9873C37.8236 12.993 37.702 13.0047 37.5791 13.011C38.3322 11.7871 39.1268 10.663 39.9821 9.69901C40.0022 9.68005 40.0214 9.67031 40.0414 9.65158ZM40.2627 9.6832C41.9146 10.721 43.4662 11.8356 44.9264 13.0071C43.7383 12.9451 42.5426 12.9166 41.3456 12.9162C41.0259 11.8522 40.6981 10.8081 40.3497 9.80967L40.3457 9.80177L40.3418 9.78991C40.3138 9.74838 40.2904 9.72374 40.2627 9.6832ZM53.8626 9.6911C54.2142 9.84555 54.5647 9.99967 54.91 10.1654C54.6371 10.0431 54.3486 9.93915 54.0642 9.82944C54.0417 9.81072 54.0236 9.79287 54.0009 9.7741L53.997 9.77015C53.9558 9.74169 53.9046 9.71914 53.8626 9.6911ZM34.6741 9.79387C34.6119 9.98286 34.5502 10.1688 34.4923 10.3749C30.2767 11.657 26.5731 13.2844 23.3587 15.1769C23.2796 14.736 23.3027 14.27 23.4615 13.7699C23.6106 13.2998 23.8873 12.8002 24.2756 12.2759C27.2659 11.136 30.717 10.2842 34.6741 9.79387ZM54.4041 10.1298C56.5585 11.0245 58.3637 12.2943 59.8385 13.8687C58.748 13.2744 57.5771 12.7255 56.3249 12.2324C55.8829 11.5676 55.2443 10.8676 54.4041 10.1298ZM48.5863 10.2484C51.4137 10.7599 53.9516 11.474 56.2182 12.3629C56.7738 13.2126 57.0165 13.9919 56.981 14.6987C56.9768 14.7806 56.9566 14.8595 56.9454 14.9398C56.8715 14.9179 56.8023 14.8901 56.728 14.8686C55.4257 14.4913 54.0673 14.1762 52.6729 13.9122C51.6205 13.3431 50.5231 12.7955 49.3807 12.2759C49.217 11.7453 49.0433 11.2376 48.8511 10.778C48.7698 10.5836 48.6729 10.4295 48.5863 10.2484ZM34.4331 10.5646C34.4243 10.5976 34.4141 10.6221 34.4054 10.6555C34.2617 11.2075 34.1376 11.8245 34.022 12.4814C33.5592 12.7913 33.1041 13.1073 32.6585 13.43C29.5276 13.8023 26.5299 14.3669 23.8053 15.0939C26.8939 13.3175 30.4342 11.788 34.4331 10.5646ZM55.7399 10.5843C56.0832 10.7607 56.4234 10.9423 56.7596 11.1297C59.8156 12.8331 62.5795 14.9836 64.9567 17.4969C63.6059 16.2519 62.0418 15.1203 60.2693 14.1137C59.2579 12.9684 58.1024 11.9545 56.7596 11.1297C56.4365 10.9313 56.0829 10.7623 55.7399 10.5843ZM24.0187 10.7068C23.053 11.4283 22.186 12.2691 21.4418 13.2442C21.4099 13.286 21.3824 13.3324 21.3509 13.3747C18.0041 15.0317 15.3447 17.105 13.3159 19.481C16.226 15.8815 19.8647 12.8838 24.0187 10.7068ZM24.0029 12.3787C23.6835 12.843 23.4475 13.2932 23.3113 13.7225C23.1395 14.2637 23.1131 14.7769 23.2085 15.2599C22.2001 15.5422 21.2187 15.8392 20.2996 16.165C20.1167 16.2298 19.9491 16.3001 19.77 16.3666C20.2509 15.327 20.8125 14.3664 21.4576 13.4972C22.2648 13.0988 23.1132 12.7263 24.0029 12.3787ZM56.4711 12.4577C57.8023 12.9919 59.0298 13.591 60.1744 14.2402C60.3409 14.4296 60.5187 14.6081 60.6764 14.8054C61.2158 15.4802 61.6963 16.206 62.1348 16.9673C60.5868 16.1898 58.8994 15.5288 57.0995 14.9872C57.1134 14.8942 57.1343 14.802 57.139 14.7066C57.174 14.0106 56.9605 13.2616 56.4711 12.4577ZM49.4518 12.4854C50.3953 12.9175 51.3173 13.3631 52.1987 13.8292C51.3736 13.6811 50.5367 13.5527 49.689 13.4418C49.609 13.123 49.5402 12.7841 49.4518 12.4854ZM33.9904 12.6909C33.9576 12.8845 33.93 13.0938 33.8995 13.2956C33.5951 13.3265 33.2888 13.352 32.9865 13.3865C33.3166 13.1508 33.651 12.9197 33.9904 12.6909ZM40.3813 13.0743C40.6646 13.0706 40.9476 13.0746 41.231 13.0743C41.9321 15.4199 42.5642 17.9031 43.1281 20.4888C41.7707 20.5695 40.3879 20.602 39.0138 20.5758C37.3512 20.544 35.7129 20.4243 34.1445 20.2359C35.1114 17.6213 36.2233 15.2383 37.4724 13.177C37.6335 13.1685 37.7932 13.1529 37.9546 13.1454C38.7614 13.1081 39.5709 13.0849 40.3813 13.0743ZM41.3931 13.0743C42.6459 13.0755 43.8976 13.1081 45.1399 13.177C47.0363 14.716 48.7585 16.3633 50.3371 18.0858C50.3862 18.5186 50.4358 18.951 50.4755 19.4019C48.3485 19.9535 45.8813 20.3225 43.2902 20.4849C42.7272 17.9015 42.093 15.4203 41.3931 13.0743ZM37.2708 13.1889C36.0336 15.2478 34.9352 17.6216 33.9785 20.2161C33.8113 20.1953 33.6458 20.1714 33.4806 20.1489C33.573 17.6234 33.7519 15.3565 34.0339 13.4418C35.1034 13.3349 36.1824 13.2494 37.2708 13.1889ZM45.4126 13.1968C46.8138 13.2805 48.1998 13.4087 49.5625 13.5841C49.8746 14.8551 50.1212 16.2766 50.3055 17.8289C48.8087 16.2102 47.1907 14.653 45.4126 13.1968ZM33.8718 13.4577C33.5921 15.3693 33.4102 17.6231 33.3185 20.1291C30.8874 19.7877 28.7004 19.2495 26.9869 18.5245C28.7048 16.7581 30.6181 15.105 32.7138 13.5841C33.0982 13.5386 33.4838 13.4973 33.8718 13.4577ZM49.7324 13.6078C50.7108 13.7368 51.6787 13.8835 52.6255 14.0624C53.9438 14.7758 55.1895 15.5239 56.3684 16.3073C55.8884 16.9606 55.149 17.5459 54.1867 18.0542C53.4115 18.4636 52.4857 18.8189 51.4714 19.1292C51.1499 18.7554 50.8229 18.3855 50.4873 18.0186C50.3029 16.4065 50.0539 14.9281 49.7324 13.6078ZM32.3818 13.6276C30.3558 15.1182 28.5064 16.7362 26.8367 18.4573C26.1071 18.1382 25.442 17.7959 24.9199 17.406C24.2547 16.9092 23.7761 16.3582 23.5207 15.7539C23.4679 15.6289 23.4317 15.5002 23.3982 15.3706C26.1471 14.6102 29.1916 14.0208 32.3818 13.6276ZM21.1573 13.6474C20.5484 14.5031 20.0172 15.4408 19.5605 16.4495C16.8808 17.4631 14.647 18.6535 13.0985 19.9987C13.1975 19.8767 13.2887 19.7517 13.391 19.6312C15.3568 17.3141 17.93 15.285 21.1573 13.6474ZM53.1196 14.1612C54.341 14.4051 55.5331 14.6863 56.6806 15.0188C56.763 15.0427 56.8397 15.0735 56.9217 15.0979C56.8451 15.4806 56.6907 15.8411 56.4593 16.1847C55.4021 15.4817 54.2881 14.8083 53.1196 14.1612ZM60.6052 14.4932C63.0896 15.9619 65.1397 17.6874 66.7708 19.6153C67.078 19.9784 67.3696 20.3494 67.6482 20.7259C67.8997 21.0658 68.135 21.4113 68.3636 21.7614C66.8407 19.8765 64.7951 18.3294 62.3838 17.0859C61.9129 16.2453 61.3901 15.4462 60.7989 14.7066C60.7388 14.6314 60.6666 14.5672 60.6052 14.4932ZM57.0758 15.1453C58.9382 15.7072 60.684 16.3899 62.2691 17.2044C63.2523 18.9713 63.9737 20.9493 64.4548 23.0776C62.2882 20.6335 59.6764 18.3398 56.5897 16.2717C56.8284 15.9172 56.9938 15.5437 57.0758 15.1453ZM23.248 15.4259C23.2827 15.5583 23.3207 15.6899 23.3745 15.8172C23.644 16.4548 24.144 17.0239 24.825 17.5325C25.3466 17.922 26.002 18.2658 26.7182 18.5838C23.5638 21.8613 21.066 25.502 19.1455 29.2945C18.9936 29.3425 18.8334 29.3836 18.6831 29.4329C18.2862 29.563 17.9174 29.7124 17.533 29.8518C17.3965 25.6307 17.8429 21.6722 18.9795 18.3348C20.2906 17.3098 21.7141 16.3388 23.248 15.4259ZM22.7105 15.5642C21.4233 16.3525 20.2129 17.1809 19.0862 18.0502C19.2675 17.5416 19.465 17.0499 19.6791 16.5721C19.9049 16.4871 20.1187 16.3975 20.351 16.3152C21.1026 16.0488 21.8974 15.8018 22.7105 15.5642ZM56.4988 16.3942C59.6639 18.5131 62.328 20.8704 64.522 23.3819C65.0284 25.7506 65.2249 28.3028 65.1701 30.9466C64.9175 30.8401 64.684 30.7254 64.4231 30.6225C62.4493 29.844 60.229 29.1849 57.8663 28.6227C56.1899 25.3681 54.1014 22.214 51.5782 19.2596C52.5754 18.9506 53.4913 18.5995 54.2618 18.1925C55.2388 17.6764 56.0003 17.0749 56.4988 16.3942ZM19.4696 16.6511C19.2438 17.1658 19.0336 17.691 18.8452 18.2399C15.6029 20.7832 13.0297 23.6444 11.0828 26.6821C10.706 25.5494 10.6831 24.322 11.0868 22.9867C11.1133 22.9105 11.1627 22.8371 11.1935 22.7614C11.552 22.1413 11.9442 21.5338 12.3713 20.9433C13.8469 19.3135 16.3303 17.8552 19.4696 16.6511ZM62.5181 17.323C65.4536 18.8722 67.819 20.8814 69.328 23.4056C69.7409 25.2709 69.3547 26.9202 68.3438 28.3776C67.3112 26.644 66.0921 24.9533 64.6761 23.3266C64.2099 21.1561 63.4981 19.1335 62.5181 17.323ZM50.5189 18.2755C50.7898 18.5743 51.0518 18.8772 51.3134 19.1806C51.0937 19.2459 50.8582 19.3016 50.6296 19.3624C50.5969 18.9918 50.558 18.6341 50.5189 18.2755ZM18.7582 18.5127C17.6634 21.8398 17.2344 25.7483 17.3749 29.9111C16.4687 30.2444 15.5978 30.5999 14.7703 30.9861C13.7315 30.296 12.866 29.5426 12.2132 28.7254C11.7452 28.1395 11.3913 27.5181 11.15 26.8678C13.0577 23.8647 15.5793 21.0366 18.7582 18.5127ZM26.8683 18.651C28.6139 19.401 30.8415 19.947 33.3146 20.2912C33.2915 20.9523 33.2704 21.6262 33.2592 22.3187C32.777 23.7933 32.336 25.3227 31.9352 26.8955C27.4407 27.2906 23.142 28.0577 19.355 29.2313C21.2675 25.4861 23.7447 21.8884 26.8683 18.651ZM51.4201 19.311C53.9214 22.2326 55.9919 25.3531 57.6608 28.5713C55.5098 28.0673 53.2414 27.6463 50.8826 27.3302C50.9272 24.55 50.8466 21.9239 50.6415 19.5244C50.9037 19.4549 51.1693 19.3866 51.4201 19.311ZM50.4873 19.564C50.69 21.9448 50.7676 24.5518 50.7245 27.3105C48.6924 27.0423 46.6048 26.8521 44.4917 26.7295C44.1413 24.6626 43.7553 22.6226 43.3257 20.639C45.9038 20.4769 48.36 20.1142 50.4873 19.564ZM33.4726 20.311C33.6208 20.331 33.7695 20.3516 33.9193 20.3702C33.7468 20.8424 33.5926 21.3389 33.4292 21.8247C33.4398 21.307 33.4552 20.8103 33.4726 20.311ZM34.0853 20.39C35.6713 20.5807 37.3276 20.7017 39.0098 20.7338C40.3975 20.7604 41.7932 20.7286 43.1637 20.6469C43.5926 22.6263 43.9795 24.6584 44.3296 26.7216C43.584 26.6797 42.8387 26.6342 42.0887 26.6109C41.0557 26.5788 40.021 26.5637 38.9861 26.5674C37.128 26.5743 35.275 26.6431 33.445 26.769C33.421 25.2539 33.3985 23.7475 33.4213 22.3385C33.6371 21.6802 33.8531 21.0237 34.0853 20.39ZM11.1579 22.465C11.1279 22.5295 11.0941 22.5937 11.067 22.6586C9.2701 25.7563 8.31659 29.1981 8.07513 32.7805C7.50636 34.3634 7.07881 35.9642 6.79458 37.5746C6.4272 38.2187 6.13308 38.8964 5.90926 39.6022C6.05892 33.3113 7.95973 27.4468 11.1579 22.465ZM33.2553 22.8286C33.2402 24.0918 33.2653 25.4361 33.2869 26.7809C32.891 26.8089 32.4985 26.846 32.1051 26.8797C32.4592 25.4948 32.8379 24.1376 33.2553 22.8286ZM10.8062 23.4688C10.5346 24.6788 10.5995 25.81 10.9722 26.856C9.86901 28.6025 8.97311 30.4062 8.27274 32.243C8.54511 29.1579 9.36734 26.1909 10.8062 23.4688ZM64.7433 23.6309C66.0954 25.2074 67.2603 26.8448 68.2529 28.5199C68.1011 28.7286 67.9364 28.9318 67.7589 29.1325C67.1427 29.8293 66.3461 30.4676 65.4468 31.0652C65.4072 31.0481 65.368 31.0308 65.3282 31.0138C65.3858 28.4419 65.2141 25.9512 64.7433 23.6309ZM69.5612 23.8483C71.3403 27.3791 72.1115 31.3088 72.0432 35.3574C71.8935 35.1943 71.745 35.0301 71.5808 34.8712C71.4654 34.7596 71.3197 34.6567 71.1974 34.5472C70.5097 32.5087 69.5908 30.492 68.4347 28.5278C69.4083 27.1494 69.8249 25.5848 69.5612 23.8483ZM70.0078 24.3976C72.5 28.9226 73.9598 34.0774 74.0984 39.5508C73.9434 38.0966 73.2798 36.7496 72.1973 35.5194C72.2837 31.6291 71.6055 27.8367 70.0078 24.3976ZM38.9861 26.7295C40.0191 26.7257 41.0535 26.737 42.0847 26.769C42.8449 26.7926 43.6017 26.8369 44.3573 26.8797C44.8752 29.9514 45.2834 33.0844 45.6299 36.2071C43.6724 36.3334 41.6821 36.3882 39.6936 36.3731C37.7184 36.3581 35.7466 36.2701 33.8125 36.1162C33.6765 34.0417 33.5705 31.9871 33.5003 29.9862C33.4634 28.9336 33.4621 27.949 33.445 26.9311C35.2743 26.8053 37.1285 26.7364 38.9861 26.7295ZM44.5154 26.8876C46.6207 27.0105 48.6966 27.2049 50.7205 27.4725C50.7064 28.2877 50.6875 29.1101 50.6533 29.9467C50.5759 31.8418 50.4451 33.7891 50.2699 35.7526C48.8063 35.94 47.3111 36.09 45.788 36.1913C45.4423 33.0751 45.0319 29.9539 44.5154 26.8876ZM33.2869 26.9429C33.3042 27.9598 33.3053 28.9426 33.3422 29.9941C33.4122 31.9889 33.5154 34.0368 33.6505 36.1044C32.5201 36.012 31.4109 35.8883 30.3148 35.7487C30.6749 33.3968 31.1035 31.0663 31.623 28.8084C31.7601 28.2125 31.9133 27.631 32.0617 27.0457C32.4697 27.0105 32.876 26.972 33.2869 26.9429ZM11.0473 27.0338C11.2932 27.6604 11.6363 28.2603 12.0867 28.8242C12.7351 29.636 13.5858 30.3825 14.6004 31.0652C11.9758 32.3104 9.77112 33.8205 8.18974 35.6301C8.15625 34.6773 8.17032 33.7333 8.23322 32.7963C8.94174 30.8303 9.87816 28.9001 11.0473 27.0338ZM31.8957 27.0615C31.7519 27.6309 31.6021 28.1936 31.4688 28.7728C30.9483 31.0351 30.5174 33.3695 30.1567 35.7249C25.7729 35.1562 21.7156 34.2212 18.4697 32.899C18.2342 32.8031 18.0286 32.6946 17.8018 32.5947C18.2392 31.5277 18.7276 30.4727 19.2562 29.425C23.049 28.2354 27.3722 27.4612 31.8957 27.0615ZM50.8786 27.4923C53.2759 27.8141 55.5803 28.2413 57.7596 28.757C58.5862 30.3679 59.3056 32 59.9333 33.6421C57.1346 34.5822 53.8987 35.2804 50.428 35.7328C50.6019 33.7775 50.7343 31.8384 50.8114 29.9506C50.8454 29.1193 50.8643 28.3024 50.8786 27.4923ZM68.3359 28.6622C69.427 30.5244 70.3082 32.4319 70.9761 34.3614C69.5723 33.1562 67.7578 32.0803 65.6167 31.1403C66.488 30.5527 67.2657 29.9265 67.8735 29.2392C68.0395 29.0516 68.1917 28.8575 68.3359 28.6622ZM57.9651 28.8084C60.2696 29.3623 62.4364 30.0085 64.3639 30.7688C64.6443 30.8793 64.8954 31.0018 65.1662 31.1166C65.165 31.1655 65.1676 31.2137 65.1662 31.2628C64.0147 31.9915 62.6781 32.6464 61.1744 33.2192C60.8279 33.3511 60.4499 33.4671 60.0875 33.5907C59.4732 31.9833 58.7693 30.3861 57.9651 28.8084ZM19.0428 29.4882C18.5552 30.4629 18.1041 31.4454 17.695 32.4366C17.6251 31.6232 17.5656 30.8147 17.5369 30.0178C17.9349 29.8729 18.3187 29.718 18.7305 29.5831C18.8321 29.5498 18.9405 29.5209 19.0428 29.4882ZM17.3789 30.0771C17.4083 30.8657 17.4674 31.6679 17.5369 32.4722C16.5921 32.0429 15.7078 31.588 14.9363 31.0889C15.7153 30.7286 16.529 30.391 17.3789 30.0771ZM14.7545 31.1679C15.5772 31.7073 16.5318 32.1924 17.5488 32.65C17.5519 32.6846 17.5535 32.7183 17.5567 32.7528C15.2766 38.4 14.2594 44.242 14.3949 49.6568C13.162 49.1249 12.0527 48.5325 11.0512 47.898C9.98695 45.3898 9.17458 42.8155 8.69564 40.2345C8.4245 38.7734 8.26016 37.3112 8.19765 35.8633C9.78597 33.9973 12.0453 32.4429 14.7545 31.1679ZM65.4626 31.247C67.732 32.2353 69.6411 33.3704 71.0709 34.646C71.4122 35.6639 71.6923 36.6849 71.9207 37.709C71.8301 38.6672 71.6951 39.6291 71.5175 40.5902C71.1232 42.7253 70.4998 44.8523 69.7113 46.9416C68.4053 47.8933 66.8699 48.7595 65.095 49.5145C64.5048 49.1421 63.8755 48.7865 63.19 48.4553C63.1444 47.2482 63.0459 46.0241 62.8936 44.7836C63.941 41.5395 64.6946 38.2334 65.0713 34.9977C65.2149 33.7645 65.2873 32.5499 65.3243 31.3458C65.3734 31.3143 65.4142 31.2788 65.4626 31.247ZM65.1622 31.4604C65.1232 32.6211 65.0516 33.7937 64.9132 34.9819C64.5506 38.0962 63.8426 41.2801 62.8541 44.4082C62.3941 40.9044 61.4929 37.3038 60.1428 33.7369C60.5062 33.6129 60.8861 33.4978 61.2336 33.3654C62.7036 32.8055 64.0228 32.1708 65.1622 31.4604ZM17.7385 32.737C17.9669 32.8375 18.1735 32.9488 18.4104 33.0453C21.6737 34.3745 25.7402 35.3132 30.1329 35.883C29.665 38.9702 29.3356 42.0906 29.137 45.1551C26.1613 45.5794 23.3586 46.177 20.8727 46.9574C19.2812 42.3938 18.1886 37.6375 17.7385 33.0769C17.7288 32.9783 17.7279 32.8828 17.7188 32.7844C17.7251 32.7686 17.7321 32.7528 17.7385 32.737ZM17.5804 33.0967C18.0319 37.6677 19.1246 42.4328 20.7186 47.0048C19.8663 47.2763 19.042 47.5607 18.2721 47.8743C16.9049 48.4313 15.6795 49.0576 14.6241 49.7477C14.601 49.738 14.576 49.7298 14.553 49.7201C14.4101 44.3998 15.3795 38.6586 17.5804 33.0967ZM8.0356 33.3496C7.99812 34.1628 7.99795 34.9841 8.03165 35.8079C7.65367 36.2565 7.32113 36.7232 7.01986 37.2071C7.26635 35.9138 7.60446 34.6255 8.0356 33.3496ZM59.9926 33.7883C61.3819 37.4582 62.2903 41.1632 62.7355 44.7599C62.4056 45.7798 62.0431 46.7889 61.6526 47.7913C61.4614 47.7138 61.2879 47.629 61.0914 47.5542C57.761 46.2857 53.6733 45.4123 49.2898 44.9062C49.7655 41.9255 50.146 38.8904 50.4162 35.8949C53.9107 35.441 57.1702 34.7373 59.9926 33.7883ZM71.2883 34.8278C71.3447 34.8803 71.4154 34.9289 71.4701 34.9819C71.6719 35.1772 71.8601 35.3775 72.0393 35.5787C72.0264 36.1068 72.0011 36.6363 71.9602 37.1675C71.7716 36.386 71.5424 35.6054 71.2883 34.8278ZM72.1934 35.7605C73.4032 37.1868 74.0471 38.7585 73.9759 40.4677C73.874 41.6722 73.4615 42.7927 72.7941 43.8351C72.7712 41.8072 72.531 39.7526 72.0748 37.7011C72.1356 37.0525 72.1738 36.4051 72.1934 35.7605ZM30.291 35.9068C31.3985 36.0478 32.5204 36.1696 33.6624 36.2625C33.846 39.0411 34.1031 41.8333 34.3896 44.5979C32.6533 44.7199 30.9523 44.8991 29.2951 45.1314C29.4937 42.0818 29.8255 38.9782 30.291 35.9068ZM50.2541 35.9147C49.9843 38.8975 49.6055 41.9187 49.1317 44.8864C48.2797 44.79 47.4181 44.7093 46.5469 44.6413C46.3738 41.9271 46.1114 39.1443 45.8038 36.3494C47.3158 36.2488 48.8001 36.1 50.2541 35.9147ZM8.03956 36.049C8.10819 37.446 8.27632 38.8545 8.53754 40.2622C9.00544 42.7836 9.79402 45.2984 10.818 47.7518C10.038 47.2416 9.30955 46.7134 8.69959 46.1393C7.72824 45.225 6.99457 44.2273 6.51792 43.1513C6.48188 41.3189 6.62163 39.4691 6.94477 37.626C7.25991 37.0771 7.62601 36.554 8.03956 36.049ZM33.8244 36.2783C35.7546 36.4311 37.7229 36.5163 39.6936 36.5312C41.6872 36.5464 43.683 36.4919 45.6457 36.3652C45.9524 39.1507 46.2118 41.9241 46.3848 44.6295C44.1398 44.4592 41.8488 44.371 39.5552 44.3884C37.8754 44.4011 36.2019 44.477 34.5477 44.59C34.2616 41.8331 34.0081 39.0493 33.8244 36.2783ZM6.71553 38.0608C6.46608 39.6298 6.34651 41.2027 6.35587 42.764C6.05236 41.9582 5.88917 41.1103 5.89345 40.2148C5.89348 40.2094 5.89342 40.2043 5.89345 40.199C5.89346 40.1976 5.89344 40.1963 5.89345 40.195C5.89377 40.1938 5.89314 40.1923 5.89345 40.1911C6.08387 39.4471 6.3664 38.7391 6.71553 38.0608ZM72.0155 38.1556C72.4247 40.1311 72.6371 42.1107 72.644 44.0604C72.1135 44.8353 71.4443 45.5683 70.6362 46.2539C70.4293 46.4294 70.18 46.5903 69.9564 46.7598C70.703 44.7402 71.2909 42.6835 71.6717 40.6219C71.8237 39.7989 71.9267 38.9772 72.0155 38.1556ZM74.1142 40.6258C74.0774 46.1059 72.6999 51.2728 70.3002 55.8343C71.5847 53.0055 72.3988 49.9361 72.6835 46.7519C72.7616 45.8778 72.7999 44.996 72.7981 44.1078C73.5244 43.035 73.9819 41.874 74.1142 40.6258ZM5.92902 41.9103C6.03099 42.3464 6.17973 42.7708 6.35983 43.1829C6.37769 44.0518 6.43024 44.9174 6.52582 45.7757C6.70919 47.4221 7.04187 49.0417 7.50204 50.6212C6.60624 47.8555 6.06511 44.9344 5.92902 41.9103ZM6.53373 43.5624C7.01883 44.5279 7.70928 45.4259 8.58893 46.2539C9.25425 46.8801 10.0557 47.4563 10.9168 48.0048C11.4087 49.1611 11.9467 50.3012 12.5491 51.4196C12.3351 51.6383 12.1315 51.8623 11.9484 52.0914C10.7174 53.6325 10.2223 55.4178 10.6599 57.4152C8.50246 53.8817 7.14473 49.8976 6.68391 45.7599C6.60286 45.032 6.55878 44.2982 6.53373 43.5624ZM72.636 44.3528C72.6308 45.1527 72.5998 45.948 72.5293 46.7361C72.1922 50.5074 71.1117 54.118 69.3793 57.352C69.7932 55.2047 69.1678 53.313 67.7549 51.7041C68.5572 50.1852 69.2456 48.6198 69.8457 47.0325C70.1446 46.813 70.4639 46.6025 70.735 46.3725C71.4812 45.7394 72.1191 45.0663 72.636 44.3528ZM39.5552 44.5465C41.8547 44.529 44.1502 44.616 46.4006 44.7876C46.5918 47.8181 46.6744 50.7085 46.701 53.4866C44.2682 53.6804 41.7944 53.7909 39.3181 53.7909C38.1049 53.7909 36.8948 53.7625 35.6899 53.7158C35.2611 50.8643 34.8903 47.8385 34.5674 44.7481C36.2155 44.6356 37.8816 44.5592 39.5552 44.5465ZM34.4054 44.756C34.7273 47.8406 35.1001 50.8597 35.5278 53.7079C33.3374 53.6193 31.1775 53.4493 29.0737 53.206C29.0727 53.1283 29.0667 53.0546 29.0658 52.9768C29.0382 50.5074 29.1199 47.9216 29.2872 45.2935C30.9513 45.0594 32.6604 44.8786 34.4054 44.756ZM46.5587 44.8034C47.4192 44.8708 48.2705 44.9493 49.1119 45.0445C48.6477 47.9292 48.0854 50.7468 47.452 53.4234C47.2548 53.4408 47.0569 53.4586 46.8591 53.4748C46.8324 50.7054 46.7486 47.8227 46.5587 44.8034ZM49.2661 45.0642C53.642 45.569 57.7219 46.4381 61.036 47.7004C61.2318 47.775 61.4029 47.8604 61.5933 47.9376C61.1569 49.0485 60.6855 50.1404 60.1784 51.218C56.4027 52.282 52.1022 53.0073 47.6179 53.4115C48.2481 50.7434 48.8039 47.9371 49.2661 45.0642ZM62.775 45.1393C62.9009 46.2331 62.9856 47.3131 63.028 48.3802C62.6387 48.1958 62.2153 48.0262 61.7988 47.8546C62.1488 46.9563 62.4735 46.052 62.775 45.1393ZM29.1251 45.3172C28.9592 47.9371 28.8802 50.5139 28.9077 52.9768C28.9085 53.0479 28.9107 53.1153 28.9117 53.1862C26.8649 52.9453 24.8841 52.6301 22.9911 52.2416C22.2302 50.5729 21.5398 48.8591 20.9241 47.1076C23.3888 46.3345 26.1711 45.7401 29.1251 45.3172ZM20.7699 47.1511C21.3743 48.871 22.0532 50.5571 22.7975 52.1982C20.4446 51.7074 18.2225 51.117 16.2327 50.3959C15.7368 50.2162 15.2779 50.0169 14.8099 49.8228C15.8338 49.1624 17.0102 48.5587 18.3314 48.0206C19.0987 47.708 19.9193 47.4217 20.7699 47.1511ZM69.6007 47.2183C69.0295 48.6982 68.3844 50.1579 67.6364 51.5776C66.9888 50.8677 66.172 50.2194 65.2413 49.6173C66.8942 48.9074 68.349 48.1031 69.6007 47.2183ZM61.7395 48.0008C62.1792 48.1821 62.6272 48.3584 63.0359 48.5541C63.0567 49.1386 63.0674 49.7189 63.0636 50.2931C62.9429 50.3361 62.8339 50.3853 62.7118 50.4275C61.9656 50.6855 61.1848 50.9263 60.3879 51.1547C60.8719 50.1187 61.3206 49.0672 61.7395 48.0008ZM11.15 48.147C12.1312 48.7527 13.2092 49.3133 14.3988 49.8228C14.3995 49.8476 14.398 49.8731 14.3988 49.8979C13.7478 50.3403 13.17 50.8084 12.6677 51.3049C12.1119 50.2709 11.6111 49.2138 11.15 48.147ZM63.1979 48.6411C63.8098 48.9404 64.3877 49.2537 64.9211 49.5857C64.3775 49.8134 63.8014 50.0245 63.2216 50.2339C63.2244 49.7071 63.2158 49.1764 63.1979 48.6411ZM65.0753 49.6924C66.0528 50.317 66.8986 50.9954 67.5613 51.7318C66.0073 54.6524 64.0803 57.3963 61.8897 59.8656C62.5864 57.5309 63.0246 54.9744 63.1782 52.2693C63.2129 51.6576 63.2118 51.0295 63.2177 50.4038C63.8533 50.1753 64.4825 49.943 65.0753 49.6924ZM14.6439 49.9216C15.1476 50.1324 15.6458 50.3481 16.1813 50.5421C18.2109 51.2777 20.4762 51.8794 22.8765 52.376C23.5242 53.7919 24.2077 55.1801 24.9515 56.5062C26.0494 58.4638 27.2575 60.2923 28.5441 61.9801C26.7899 62.5159 25.3225 63.1742 24.3231 63.9602C24.1157 64.1233 23.9364 64.2958 23.7697 64.4701C20.4603 61.9247 17.5405 58.7821 15.1379 55.3007C14.8263 53.6692 14.6271 51.9694 14.5569 50.2181C14.5539 50.1426 14.5595 50.0644 14.5569 49.9888C14.5885 49.9676 14.612 49.9427 14.6439 49.9216ZM14.3988 50.1074C14.4003 50.1465 14.3973 50.1869 14.3988 50.226C14.4646 51.8655 14.6515 53.455 14.9284 54.9924C14.1476 53.8395 13.4105 52.6632 12.7507 51.4472C13.224 50.9754 13.7861 50.532 14.3988 50.1074ZM63.0596 50.4631C63.053 51.0659 63.0536 51.6717 63.0201 52.2614C62.8596 55.0895 62.3794 57.7458 61.6249 60.1581C61.2523 60.57 60.8905 60.9928 60.5025 61.3873C59.286 62.6242 57.9824 63.7526 56.6292 64.7942C56.1237 63.834 55.1102 63.0445 53.7559 62.4109C53.6184 62.3466 53.4577 62.2942 53.3132 62.2331C54.4846 60.8845 55.5952 59.4447 56.6213 57.9092C57.9944 55.8545 59.2116 53.6425 60.293 51.3524C61.1431 51.1114 61.9694 50.8521 62.7632 50.5777C62.8663 50.5421 62.9575 50.4993 63.0596 50.4631ZM60.0914 51.4037C59.0265 53.6442 57.8316 55.81 56.4869 57.8223C55.4546 59.3671 54.3378 60.8162 53.1591 62.1698C51.4131 61.456 49.1989 60.9598 46.7484 60.6719C46.8175 59.2901 46.8663 57.8513 46.8828 56.3283C47.0686 55.64 47.2535 54.9508 47.4282 54.2375C47.4814 54.0204 47.5302 53.7928 47.5824 53.5736C52.0426 53.1744 56.3206 52.456 60.0914 51.4037ZM12.6321 51.5618C13.3435 52.87 14.1373 54.1415 14.9877 55.3758C15.5848 58.4783 16.6274 61.3097 18.0587 63.7547C16.0646 62.8938 14.3916 61.9227 13.1499 60.8656C12.3322 59.8967 11.5904 58.8766 10.9168 57.8144C10.308 55.6799 10.7784 53.8133 12.0749 52.1903C12.2459 51.9762 12.4329 51.7672 12.6321 51.5618ZM67.6719 51.8583C69.0732 53.476 69.6707 55.3487 69.1936 57.5101C67.272 60.7257 63.9443 63.0883 59.8345 64.7467C60.6005 63.3772 61.2478 61.8752 61.7593 60.249C64.0503 57.7135 66.0589 54.8819 67.6719 51.8583ZM23.0741 52.4195C24.944 52.7999 26.8988 53.1072 28.9156 53.3443C28.9613 56.3494 29.1577 59.1692 29.4887 61.7153C29.2245 61.7854 28.9629 61.8574 28.7101 61.9327C27.4132 60.2377 26.1959 58.3993 25.0898 56.4271C24.3684 55.1409 23.7051 53.7912 23.0741 52.4195ZM29.0777 53.3641C31.1865 53.6077 33.3526 53.7778 35.5476 53.866C35.5798 54.0788 35.6058 54.3114 35.6385 54.5221C35.9698 56.6588 36.3269 58.6689 36.7056 60.5415C34.1722 60.7478 31.748 61.1275 29.6468 61.6718C29.3187 59.1459 29.1238 56.3448 29.0777 53.3641ZM47.4164 53.5894C47.3682 53.7915 47.3232 54.0017 47.2741 54.202C47.1485 54.7145 47.0142 55.204 46.8828 55.7039C46.8869 55.0374 46.865 54.325 46.8591 53.6368C47.0452 53.6217 47.2309 53.6056 47.4164 53.5894ZM46.701 53.6487C46.7082 54.4954 46.7366 55.3807 46.7287 56.1939C46.7283 56.2314 46.7251 56.2632 46.7247 56.3007C46.3233 57.7857 45.8978 59.2005 45.4481 60.5415C43.827 60.4019 42.1391 60.3371 40.4366 60.3597C39.7062 60.3694 38.9746 60.3923 38.247 60.4308C37.7837 60.4553 37.3262 60.4937 36.8677 60.5296C36.4876 58.6546 36.1285 56.6389 35.7966 54.4984C35.7655 54.2979 35.7403 54.0763 35.7097 53.8739C36.9085 53.92 38.1111 53.949 39.3181 53.949C41.794 53.949 44.2683 53.8419 46.701 53.6487ZM15.2248 55.7197C17.5906 59.0826 20.4426 62.1137 23.6591 64.5886C23.4037 64.8763 23.2064 65.1768 23.0741 65.4937C22.0825 65.2153 21.1166 64.9248 20.2127 64.6044C19.5461 64.3682 18.9111 64.1191 18.2997 63.8614C16.8811 61.4913 15.844 58.7383 15.2248 55.7197ZM46.705 57.0121C46.684 58.2708 46.6484 59.4942 46.5903 60.6521C46.2666 60.6154 45.941 60.583 45.6102 60.5533C45.9892 59.4192 46.3602 58.2498 46.705 57.0121ZM68.8853 58.2373C68.7801 58.4168 68.6706 58.594 68.5612 58.7708C67.2751 60.7074 65.7991 62.5102 64.1465 64.142C64.1385 64.1499 64.1307 64.1579 64.1228 64.1657C62.0021 66.1182 59.5126 67.7278 56.7043 68.9006C57.8569 67.7962 58.8489 66.4603 59.708 64.9681C63.641 63.4121 66.8652 61.2051 68.8853 58.2373ZM40.4406 60.5178C42.1228 60.4959 43.7909 60.5623 45.3928 60.6996C44.4484 63.4911 43.4069 65.9339 42.2863 67.8374C41.1006 67.8561 39.9135 67.8419 38.7292 67.8019C38.0855 65.8968 37.4687 63.4744 36.8993 60.6877C37.3505 60.6523 37.7992 60.613 38.2549 60.5889C38.9804 60.5505 39.7121 60.5272 40.4406 60.5178ZM61.4945 60.5415C60.9825 62.0961 60.3461 63.533 59.5974 64.8416C58.7441 65.1778 57.8641 65.4901 56.9493 65.7664C56.9051 65.4823 56.8125 65.2123 56.6924 64.9523C58.065 63.8989 59.3849 62.7547 60.6171 61.5019C60.9204 61.1935 61.2005 60.8605 61.4945 60.5415ZM36.7412 60.6996C37.3062 63.4706 37.9189 65.8859 38.5632 67.7979C38.3143 67.7889 38.0646 67.7857 37.8162 67.7742C36.5287 67.7146 35.2536 67.6103 33.9904 67.4857C32.5529 66.3186 31.1848 64.9472 29.8919 63.4188C29.8081 62.9102 29.7378 62.3697 29.6666 61.8339C31.767 61.2884 34.1994 60.9066 36.7412 60.6996ZM45.5588 60.7114C45.9057 60.7425 46.2473 60.7794 46.5864 60.8181C46.4517 63.4196 46.2246 65.7427 45.9066 67.6793C44.7667 67.7591 43.6212 67.8162 42.4681 67.8374C43.587 65.9227 44.6224 63.4886 45.5588 60.7114ZM46.7445 60.8379C49.1579 61.1234 51.3366 61.6028 53.0524 62.2963C51.2643 64.3326 49.3217 66.124 47.2464 67.5805C46.8573 67.6161 46.4644 67.639 46.0726 67.6675C46.3887 65.7331 46.6111 63.4206 46.7445 60.8379ZM13.0629 61.0039C13.0705 61.0104 13.079 61.0172 13.0867 61.0237C15.1622 63.4676 17.6829 65.5891 20.6118 67.2525C20.8447 67.5022 21.082 67.7456 21.3272 67.9797C22.2865 68.8954 23.3433 69.6822 24.4891 70.3353C20.017 68.079 16.1214 64.8811 13.0629 61.0039ZM13.7427 61.5375C14.9496 62.4302 16.4516 63.248 18.193 63.9839C18.8176 65.0215 19.5005 65.9976 20.2719 66.8731C17.7813 65.402 15.5962 63.5952 13.7427 61.5375ZM29.5085 61.8774C29.5662 62.3114 29.6242 62.7493 29.6903 63.1658C29.3952 62.8108 29.1075 62.4423 28.8208 62.071C29.0448 62.005 29.2754 61.9393 29.5085 61.8774ZM28.6548 62.1145C29.0124 62.5794 29.3668 63.0462 29.7377 63.4859C29.9521 64.7808 30.2161 65.9688 30.5124 67.0628C29.0995 66.8531 27.7193 66.6053 26.3901 66.3197C25.5343 65.7755 24.7012 65.1887 23.8883 64.5689C24.0468 64.4032 24.2184 64.2396 24.4179 64.0827C25.4047 63.3067 26.8824 62.6494 28.6548 62.1145ZM53.2065 62.3595C53.3651 62.4259 53.5388 62.487 53.6887 62.5572C55.0394 63.189 56.0202 63.9696 56.4988 64.9009C55.7686 65.4574 55.0263 65.9906 54.2618 66.4818C52.1231 66.9729 49.8737 67.3295 47.5666 67.5529C49.5823 66.109 51.4664 64.3461 53.2065 62.3595ZM29.9551 63.7507C31.1416 65.1314 32.3934 66.3758 33.7019 67.458C32.6845 67.3536 31.6756 67.2386 30.6863 67.0944C30.4067 66.0716 30.1632 64.9563 29.9551 63.7507ZM18.4302 64.0906C18.9857 64.3201 19.5627 64.5424 20.1613 64.7546C21.0624 65.074 22.0238 65.3663 23.0109 65.6439C22.8025 66.2456 22.8273 66.8962 23.1295 67.5805C23.2811 67.9241 23.5044 68.2745 23.7974 68.6358C22.7268 68.1882 21.6955 67.6895 20.7146 67.1339C19.8662 66.2222 19.1096 65.1945 18.4302 64.0906ZM23.7816 64.6874C24.494 65.2308 25.2256 65.7429 25.9712 66.2288C25.0257 66.0186 24.1161 65.7834 23.2283 65.5372C23.3531 65.2433 23.54 64.9602 23.7816 64.6874ZM56.566 65.055C56.675 65.2988 56.7561 65.5497 56.7952 65.8139C56.7092 65.8394 56.6288 65.8718 56.5423 65.8969C55.9583 66.0661 55.3562 66.2171 54.7519 66.3632C55.3707 65.9532 55.9703 65.5079 56.566 65.055ZM59.4709 65.059C58.589 66.5566 57.5736 67.8939 56.3921 68.9836C56.3534 69.0192 56.3125 69.0512 56.2735 69.0864C56.1037 69.1537 55.9278 69.212 55.7557 69.2761C56.6927 68.0272 57.0671 66.9122 56.9652 65.9245C57.8281 65.6647 58.661 65.3719 59.4709 65.059ZM23.1611 65.6874C24.1786 65.9701 25.2274 66.2307 26.319 66.466C27.8573 67.4426 29.46 68.2915 31.1171 68.9915C31.3534 69.6373 31.602 70.2419 31.8759 70.77C29.0936 70.4161 26.5085 69.7328 24.1333 68.7741C23.7439 68.3383 23.4527 67.9181 23.2757 67.5173C22.9859 66.8609 22.9632 66.2538 23.1611 65.6874ZM56.8071 65.9759C56.8966 66.9552 56.5067 68.0836 55.487 69.3749C52.4326 70.4754 49.0249 71.0644 45.3058 71.0269C45.3625 70.8469 45.4221 70.6799 45.4758 70.4855C48.5893 69.7352 51.5674 68.4018 54.3329 66.628C55.0979 66.4516 55.8519 66.2597 56.5857 66.047C56.6612 66.0252 56.7319 65.9982 56.8071 65.9759ZM61.87 66.1893C59.5737 68.0823 57.0196 69.6812 54.2697 70.9321L54.2736 70.9242C54.4148 70.7899 54.5355 70.6606 54.6649 70.529C55.2649 70.1362 55.8354 69.693 56.3763 69.2049C58.371 68.4084 60.205 67.3892 61.87 66.1893ZM26.7577 66.5569C27.9881 66.8127 29.2528 67.0413 30.5519 67.2327C30.7046 67.7834 30.8721 68.2948 31.0459 68.786C29.5718 68.1544 28.1381 67.4105 26.7577 66.5569ZM53.8903 66.7229C51.2634 68.3611 48.4521 69.5943 45.5193 70.3116C45.6539 69.8059 45.7798 69.2495 45.8947 68.6556C46.3713 68.3649 46.8419 68.0551 47.3057 67.7307C49.5708 67.5215 51.779 67.1878 53.8903 66.7229ZM30.7297 67.2604C31.7795 67.4123 32.8506 67.5326 33.9311 67.6398C35.6783 69.0524 37.5254 70.1694 39.4525 70.9242C39.3919 70.9291 39.3312 70.9354 39.2707 70.94C36.5019 70.6626 33.8119 69.9461 31.2475 68.869C31.0649 68.3637 30.8898 67.8324 30.7297 67.2604ZM21.0782 67.5015C22.0221 68.0147 23.0068 68.4812 24.0306 68.8967C24.7502 69.6987 25.8764 70.5516 27.3663 71.4419C25.1066 70.6948 23.121 69.4754 21.4339 67.8651C21.3115 67.7483 21.1975 67.6223 21.0782 67.5015ZM34.2236 67.6714C35.4082 67.7841 36.6029 67.8765 37.8083 67.9323C38.0765 67.9447 38.3458 67.9465 38.6146 67.956C39.0229 69.1471 39.4416 70.1409 39.8714 70.8807C39.8491 70.8827 39.8265 70.8866 39.8042 70.8886C37.8597 70.1679 35.9919 69.0733 34.2236 67.6714ZM46.9935 67.7544C46.6427 67.9949 46.2883 68.225 45.9303 68.4461C45.9682 68.2431 46.0092 68.0419 46.0449 67.8295C46.3614 67.8067 46.6787 67.7819 46.9935 67.7544ZM45.8789 67.8414C45.8372 68.0885 45.7893 68.3267 45.7446 68.5607C44.2082 69.4917 42.6079 70.2386 40.9544 70.774C40.7155 70.802 40.4798 70.8214 40.2429 70.8451C40.248 70.8392 40.2537 70.8353 40.2588 70.8293C40.2607 70.8271 40.2608 70.8237 40.2627 70.8214C40.9978 70.0939 41.7063 69.1365 42.3851 67.9955C43.5566 67.9753 44.7204 67.9219 45.8789 67.8414ZM38.7806 67.96C39.9185 67.9976 41.06 68.0121 42.1993 67.9955C41.5393 69.0966 40.8558 70.0155 40.1481 70.7147L40.1441 70.7187H40.1402C40.101 70.765 40.0646 70.7921 40.0256 70.8372C39.6037 70.1187 39.186 69.1391 38.7806 67.96ZM45.709 68.7702C45.5966 69.3379 45.4757 69.8685 45.3454 70.3511C44.3647 70.5837 43.3697 70.7566 42.3653 70.8689C42.0597 70.8396 41.7537 70.8116 41.4444 70.774C42.912 70.2628 44.3361 69.5916 45.709 68.7702ZM24.3744 69.0389C26.713 69.9539 29.2519 70.6027 31.9747 70.94C32.2477 71.4441 32.5374 71.8926 32.8482 72.2719C31.1383 72.2866 29.5391 72.0757 28.054 71.6593C26.4188 70.7366 25.1774 69.8561 24.3744 69.0389ZM31.3147 69.0745C33.5694 70.0085 35.9174 70.6637 38.334 70.9914C36.1517 71.1053 34.0604 71.0352 32.0696 70.7938C32.0595 70.7748 32.048 70.7615 32.038 70.7424C31.7784 70.2465 31.5411 69.6801 31.3147 69.0745ZM55.9494 69.367C55.7025 69.5769 55.4493 69.7769 55.1906 69.9677C55.3299 69.8099 55.4715 69.6512 55.5937 69.4974C55.7127 69.4542 55.8315 69.4117 55.9494 69.367ZM55.2854 69.612C55.0718 69.8677 54.8328 70.1305 54.57 70.3985C51.8813 72.1592 48.6078 72.9145 44.8079 72.3273C44.8856 72.1615 44.9677 72.0172 45.041 71.8293C45.1169 71.6349 45.1832 71.3985 45.2545 71.1811C48.9071 71.2227 52.2662 70.6663 55.2854 69.612ZM45.3058 70.525C45.2548 70.7074 45.1936 70.8541 45.1399 71.023C44.4792 71.013 43.8119 70.9864 43.1321 70.936C43.864 70.8316 44.587 70.6931 45.3058 70.525ZM41.1954 70.9084C41.202 70.9092 41.2086 70.9075 41.2152 70.9084C41.3513 70.9257 41.483 70.9361 41.6183 70.9519C41.3452 70.9738 41.0708 70.9788 40.7963 70.9914C40.8576 70.9723 40.9169 70.9478 40.9781 70.9281C41.0511 70.9196 41.1222 70.9174 41.1954 70.9084ZM32.1763 70.9677C34.4182 71.2317 36.7828 71.2852 39.2628 71.0981C39.406 71.1124 39.5499 71.1257 39.6936 71.1376C39.5664 71.1698 39.4419 71.2107 39.3142 71.2404H39.3102C37.0821 71.9068 34.9951 72.2316 33.0458 72.268C32.7377 71.906 32.451 71.4614 32.1763 70.9677ZM40.1679 71.0111C40.1598 71.0134 40.1522 71.0168 40.1441 71.019C40.1402 71.0177 40.1362 71.0164 40.1323 71.0151C40.1441 71.0139 40.156 71.0123 40.1679 71.0111ZM42.3732 71.0269C43.2952 71.1146 44.2006 71.1665 45.0885 71.1811C45.0235 71.377 44.9635 71.5939 44.8948 71.77C44.8165 71.9708 44.7289 72.1257 44.6458 72.2996C43.333 72.0844 41.9577 71.71 40.5236 71.1613C41.1436 71.1403 41.7606 71.095 42.3732 71.0269ZM40.0532 71.2008C40.5487 72.0847 41.0202 72.7729 41.4682 73.2363C41.7174 73.494 41.962 73.6891 42.1993 73.8252C41.9422 73.8368 41.6861 73.8576 41.4286 73.8647C39.692 73.9126 37.9607 73.8553 36.3144 73.7106C37.3997 73.471 38.5873 72.6726 39.8793 71.2483C39.9374 71.2331 39.9953 71.2165 40.0532 71.2008ZM40.2548 71.2285C41.7605 71.8201 43.2008 72.2174 44.5786 72.4458C44.3803 72.8368 44.1745 73.1783 43.9542 73.4102C43.8092 73.5627 43.6633 73.673 43.5115 73.754C43.1886 73.7785 42.8641 73.7922 42.5392 73.8094C42.2413 73.6991 41.9228 73.4813 41.5828 73.1296C41.1681 72.7007 40.7219 72.0477 40.2548 71.2285ZM53.416 71.2522C53.2999 71.3181 53.1972 71.3906 53.0761 71.4538C52.8749 71.5362 52.6705 71.6122 52.4674 71.6909C52.7902 71.5584 53.1065 71.4095 53.416 71.2522ZM39.5434 71.3392C38.0474 72.9178 36.7085 73.6572 35.5476 73.6315C35.3489 73.6102 35.1541 73.5884 34.9587 73.5643C34.3138 73.4083 33.7168 73.0162 33.1723 72.4182C35.1002 72.371 37.1589 72.0491 39.3497 71.3945C39.3525 71.3937 39.3548 71.3914 39.3576 71.3906C39.4201 71.376 39.481 71.3543 39.5434 71.3392ZM27.1015 71.521C27.3936 71.6222 27.6855 71.7206 27.9868 71.8055C28.0908 71.8641 28.1758 71.9206 28.2833 71.9795C27.8838 71.8354 27.4938 71.6792 27.1015 71.521ZM52.1196 71.8253C50.2446 72.5285 48.2905 73.0679 46.2742 73.4379C45.4791 73.5564 44.668 73.6532 43.8435 73.7224C43.9202 73.6614 43.9958 73.5976 44.0688 73.5209C44.312 73.2649 44.5318 72.8942 44.7407 72.4735C47.4709 72.9009 49.9407 72.6472 52.1196 71.8253ZM28.5283 71.9399C29.9158 72.2798 31.3981 72.4484 32.9707 72.4261C33.3832 72.8986 33.8303 73.2538 34.3066 73.4853C33.2157 73.3313 32.1885 73.1337 31.2554 72.8964C31.1319 72.8642 31.0108 72.8272 30.8878 72.7936C30.0684 72.5693 29.3171 72.3176 28.6825 72.0308C28.6807 72.0299 28.6803 72.0278 28.6785 72.0269C28.6222 71.9969 28.5837 71.9698 28.5283 71.9399Z" fill="black"/>
</svg>
