<svg width="120" height="120" viewBox="0 0 120 120" fill="none" xmlns="http://www.w3.org/2000/svg">
<path fill-rule="evenodd" clip-rule="evenodd" d="M60.0033 9.32352C58.1387 9.32352 56.2974 9.42869 54.4839 9.61994C49.7274 10.0043 45.4253 10.8846 42.5202 12.1988L42.5084 12.2047H42.5025C42.375 12.2882 42.2885 12.3649 42.1645 12.4478C40.5835 12.8994 39.1272 13.5178 37.7953 14.2916C20.6499 22.4117 8.7754 39.6392 8.62131 59.6087C8.61661 59.627 8.60817 59.6438 8.60353 59.6621V59.6798V59.6917C8.60306 59.754 8.61483 59.8134 8.61539 59.8755C8.61528 59.9172 8.60946 59.9582 8.60946 60C8.60946 69.8351 11.4657 79.0116 16.3876 86.7848C16.8309 87.8508 17.5413 88.872 18.4863 89.8498C25.3145 99.0656 35.2196 105.921 46.7057 108.951C50.9492 110.071 55.4038 110.676 60.0033 110.676C61.5664 110.676 63.1115 110.598 64.6393 110.463C64.6905 110.458 64.7429 110.46 64.7935 110.451C66.4955 110.296 68.1707 110.061 69.8208 109.746C73.5562 109.162 76.996 108.208 79.668 106.823C85.9935 104.235 91.6836 100.44 96.4396 95.7249C96.454 95.7115 96.4667 95.6967 96.4811 95.6834C99.0092 93.332 101.188 90.6609 102.996 87.7511C108.304 79.7775 111.397 70.2453 111.397 60C111.397 49.0116 107.837 38.8454 101.805 30.5415C101.734 30.4443 101.663 30.3476 101.591 30.251C95.9652 22.6206 88.2392 16.5982 79.247 13.011C79.2413 13.0087 79.235 13.0074 79.2293 13.0051C75.8372 11.2577 71.2214 10.2059 66.3289 9.72072C64.2543 9.46905 62.1464 9.32352 60.0033 9.32352ZM58.9658 9.63772C59.8877 9.62539 60.8183 9.62991 61.7462 9.65551C63.0951 9.69272 64.4359 9.78409 65.7657 9.90451C65.9941 9.92978 66.22 9.9652 66.4475 9.99343C64.7826 10.1738 62.8862 11.1668 60.774 12.9636C60.7601 12.966 60.7464 12.9671 60.7325 12.9695C60.5521 12.9185 60.3803 12.8598 60.1989 12.8095L60.1693 12.7976L60.1396 12.8035C59.9665 12.8398 59.8019 12.8792 59.6298 12.9162C58.8939 11.9637 58.1873 11.1702 57.537 10.6871C56.8553 10.1806 56.2096 9.91877 55.6103 9.89858C55.4105 9.89185 55.2131 9.9118 55.0234 9.95786C54.2646 10.1421 53.6117 10.7368 53.0492 11.6593C53.0125 11.7195 52.9844 11.8097 52.9484 11.8728C51.4558 11.6749 50.013 11.5506 48.6562 11.5526C47.2224 11.5548 45.8869 11.6973 44.6011 11.9083C47.8508 10.8976 51.2333 10.1981 54.7269 9.84522C54.7409 9.84381 54.7544 9.84069 54.7684 9.83929C56.1422 9.73363 57.5401 9.65679 58.9658 9.63772ZM55.6044 10.1357C56.1445 10.1535 56.739 10.3896 57.3947 10.8768C58.0008 11.3271 58.6776 12.0769 59.3808 12.9754C59.1968 13.0155 59.0182 13.0591 58.8354 13.0999C56.8582 12.5501 54.9784 12.151 53.1974 11.9024C53.2173 11.8686 53.2307 11.8167 53.2508 11.7838C53.7943 10.8925 54.4074 10.353 55.0826 10.1891C55.2514 10.1481 55.4243 10.1298 55.6044 10.1357ZM67.1233 10.1891C67.4067 10.1936 67.6797 10.2261 67.9474 10.278C69.0925 10.4998 70.1073 11.1583 71.0006 12.181C70.7623 12.1723 70.5428 12.144 70.301 12.1395C67.5164 12.0876 64.487 12.3408 61.2305 12.8865C63.478 11.0452 65.4489 10.1624 67.1233 10.1891ZM68.9967 10.3729C72.5347 10.9921 75.9467 11.9632 79.1937 13.26C79.4419 13.3892 79.6533 13.5384 79.8873 13.675C77.3382 12.8349 74.4702 12.3471 71.3207 12.2047C70.6271 11.367 69.8543 10.7439 68.9967 10.3729ZM46.1485 11.2028C45.949 11.2579 45.7482 11.3115 45.5497 11.3688C45.7467 11.3121 45.9449 11.257 46.1485 11.2028ZM48.6621 11.7838C49.9832 11.783 51.3891 11.9072 52.8417 12.098C52.5732 12.6012 52.3227 13.1814 52.0947 13.841C46.2416 14.559 41.1207 15.7979 36.6629 17.4633C37.8232 16.0136 39.6673 14.4255 42.2001 12.7205C42.3795 12.6549 42.5593 12.5886 42.7396 12.5249C44.553 12.0574 46.5104 11.7852 48.6621 11.7838ZM53.0848 12.1277C54.7465 12.3575 56.4989 12.7183 58.3374 13.2126C58.1714 13.2505 58.0044 13.2867 57.8394 13.3252C55.9508 13.4397 54.113 13.5953 52.3556 13.8054C52.5813 13.1654 52.823 12.6068 53.0848 12.1277ZM70.2951 12.3707C70.6089 12.3765 70.8943 12.4171 71.2021 12.43C71.6596 12.9953 72.0679 13.703 72.459 14.4635C69.1967 13.894 65.6819 13.5061 61.9063 13.3134C61.6852 13.248 61.4651 13.182 61.2423 13.1177C64.4959 12.5707 67.5209 12.3203 70.2951 12.3707ZM71.5223 12.4478C75.0579 12.6263 78.1963 13.279 80.9604 14.339C82.3423 15.4924 83.3639 16.578 84.0906 17.5996C80.712 16.3008 76.9382 15.259 72.7495 14.5109C72.3687 13.7499 71.971 13.0299 71.5223 12.4478ZM60.1693 13.0466C60.1815 13.05 60.1926 13.0551 60.2048 13.0584C60.1104 13.0759 60.021 13.0879 59.9262 13.1059C60.0089 13.0883 60.0864 13.064 60.1693 13.0466ZM41.2931 13.0762C39.001 14.6974 37.3026 16.2183 36.2539 17.6234C34.9563 18.1204 33.7022 18.644 32.5189 19.2122C33.9508 17.3825 35.6516 15.8497 37.6233 14.6532C38.8193 14.0786 40.0471 13.5594 41.2931 13.0762ZM59.5408 13.1889C59.5502 13.2011 59.5611 13.2121 59.5705 13.2244C59.4958 13.2277 59.4257 13.2388 59.3511 13.2422C59.3469 13.241 59.3435 13.2375 59.3393 13.2363C59.4072 13.2215 59.4727 13.2036 59.5408 13.1889ZM60.8155 13.2363C60.8476 13.2454 60.8782 13.2568 60.9103 13.2659C60.8684 13.2642 60.8278 13.2617 60.7858 13.26C60.7956 13.2516 60.8057 13.2447 60.8155 13.2363ZM60.11 13.4675C60.1322 13.4683 60.153 13.4727 60.1752 13.4734C60.1675 13.4804 60.1592 13.4842 60.1515 13.4912C60.1379 13.4828 60.1236 13.4759 60.11 13.4675ZM60.519 13.4853C60.9738 13.5024 61.4175 13.5278 61.8648 13.5505C66.191 14.8311 70.1922 16.3159 73.8759 17.985C74.0227 18.4684 74.1473 19.0058 74.279 19.5264C72.1515 19.2548 69.9868 19.0568 67.7992 18.9335C65.478 17.0542 62.9992 15.2807 60.353 13.6276C60.4101 13.5758 60.4623 13.5358 60.519 13.4853ZM59.0606 13.4912C56.3111 14.8418 53.7251 16.3326 51.2944 17.9435C51.4571 17.0427 51.6412 16.2045 51.8398 15.4417C51.8671 15.3366 51.9007 15.2594 51.9287 15.1571C53.8543 14.5748 55.8522 14.0453 57.9224 13.5624C58.3015 13.5397 58.6761 13.51 59.0606 13.4912ZM59.5053 13.5268C59.6304 13.5636 59.747 13.5895 59.8728 13.6276C59.8877 13.6483 59.8994 13.666 59.9143 13.6869C59.879 13.7198 59.849 13.7423 59.8136 13.7758H59.8076L59.8017 13.7817C58.47 15.2814 57.2316 17.0242 56.0668 18.9335C54.3946 19.0239 52.7357 19.1558 51.0928 19.3189C51.1464 18.9662 51.1887 18.5932 51.2469 18.2577C53.8218 16.5397 56.569 14.9495 59.5053 13.5268ZM62.8667 13.5979C66.3336 13.8083 69.5687 14.1901 72.5894 14.7243C72.7437 15.0386 72.9139 15.3112 73.0577 15.6551C73.3165 16.2739 73.5449 16.9684 73.7691 17.6767C70.3984 16.1597 66.7685 14.7929 62.8667 13.5979ZM56.4699 13.6454C54.9417 14.0249 53.4651 14.4433 52.0176 14.8785C52.1008 14.5899 52.1896 14.3189 52.2785 14.0544C53.6382 13.8903 55.0309 13.7524 56.4699 13.6454ZM60.0626 13.8766C60.1445 13.9938 60.2167 14.0676 60.2997 14.1908C60.3024 14.1949 60.3029 14.1986 60.3056 14.2026C60.8181 15.6719 61.3048 17.2087 61.7759 18.7735C61.3743 18.7743 60.9739 18.7682 60.5724 18.7735C59.3542 18.7894 58.1334 18.824 56.9205 18.8802C56.7358 18.8887 56.5535 18.9063 56.3691 18.9158C57.4988 17.0798 58.6907 15.3937 59.9736 13.9477C60.0038 13.9193 60.0325 13.9047 60.0626 13.8766ZM60.3945 13.924C62.8723 15.4807 65.1998 17.1526 67.3901 18.9098C65.6079 18.8168 63.8143 18.774 62.0189 18.7735C61.5394 17.1776 61.0476 15.6114 60.525 14.1137L60.519 14.1019L60.5131 14.0841C60.4713 14.0218 60.4361 13.9848 60.3945 13.924ZM80.7944 13.9359C81.3218 14.1675 81.8476 14.3987 82.3654 14.6473C81.9562 14.4638 81.5234 14.3079 81.0967 14.1434C81.063 14.1153 81.0359 14.0885 81.0019 14.0604L80.9959 14.0544C80.9341 14.0117 80.8574 13.9779 80.7944 13.9359ZM52.0117 14.09C51.9183 14.3735 51.8257 14.6524 51.739 14.9615C45.4156 16.8846 39.8601 19.3258 35.0385 22.1646C34.9199 21.5032 34.9546 20.8041 35.1927 20.054C35.4164 19.3489 35.8314 18.5995 36.4139 17.8131C40.8993 16.1033 46.0761 14.8255 52.0117 14.09ZM81.6066 14.5939C84.8383 15.9359 87.546 17.8407 89.7582 20.2022C88.1225 19.3108 86.3661 18.4875 84.4878 17.7479C83.8249 16.7506 82.8669 15.7006 81.6066 14.5939ZM72.8799 14.7718C77.121 15.5391 80.9279 16.6102 84.3277 17.9435C85.1612 19.2181 85.5252 20.387 85.4719 21.4472C85.4658 21.5702 85.4355 21.6884 85.4186 21.8088C85.3077 21.776 85.2039 21.7344 85.0925 21.7021C83.139 21.1361 81.1015 20.6636 79.0099 20.2675C77.4313 19.4139 75.7851 18.5925 74.0715 17.8131C73.826 17.0171 73.5654 16.2557 73.2771 15.5662C73.1552 15.2746 73.0098 15.0434 72.8799 14.7718ZM51.6501 15.246C51.6369 15.2956 51.6216 15.3323 51.6086 15.3824C51.393 16.2104 51.2069 17.136 51.0335 18.1213C50.3392 18.5861 49.6566 19.0602 48.9882 19.5442C44.2919 20.1026 39.7953 20.9495 35.7084 22.0401C40.3414 19.3754 45.6518 17.0811 51.6501 15.246ZM83.6104 15.2757C84.1253 15.5403 84.6355 15.8127 85.1399 16.0938C89.7239 18.6488 93.8697 21.8745 97.4356 25.6446C95.4094 23.7771 93.0632 22.0797 90.4044 20.5698C88.8874 18.8519 87.1541 17.3309 85.1399 16.0938C84.6552 15.7961 84.1248 15.5426 83.6104 15.2757ZM36.0286 15.4595C34.58 16.5417 33.2795 17.8028 32.1632 19.2655C32.1154 19.3282 32.0741 19.3978 32.0269 19.4612C27.0067 21.9468 23.0175 25.0567 19.9743 28.6207C24.3394 23.2215 29.7975 18.7249 36.0286 15.4595ZM36.0049 17.9672C35.5257 18.6637 35.1718 19.3389 34.9674 19.9829C34.7097 20.7947 34.6701 21.5646 34.8132 22.2891C33.3006 22.7125 31.8285 23.158 30.4499 23.6467C30.1755 23.744 29.9241 23.8493 29.6555 23.949C30.3768 22.3897 31.2192 20.9488 32.1869 19.645C33.3977 19.0474 34.6704 18.4887 36.0049 17.9672ZM84.7072 18.0858C86.7039 18.887 88.5452 19.7857 90.2621 20.7595C90.5119 21.0436 90.7785 21.3114 91.015 21.6073C91.8242 22.6195 92.5449 23.7082 93.2026 24.8502C90.8806 23.684 88.3496 22.6924 85.6498 21.88C85.6706 21.7404 85.7019 21.6022 85.7091 21.4591C85.7616 20.4151 85.4412 19.2916 84.7072 18.0858ZM74.1782 18.1273C75.5934 18.7754 76.9765 19.4438 78.2985 20.143C77.061 19.9209 75.8055 19.7282 74.5339 19.562C74.414 19.0837 74.3109 18.5754 74.1782 18.1273ZM50.9861 18.4356C50.9369 18.726 50.8954 19.0399 50.8497 19.3426C50.3931 19.389 49.9336 19.4272 49.4803 19.479C49.9753 19.1253 50.4769 18.7787 50.9861 18.4356ZM60.5724 19.0106C60.9975 19.0051 61.4219 19.0112 61.847 19.0106C62.8986 22.5291 63.8467 26.2538 64.6927 30.1324C62.6565 30.2534 60.5824 30.3022 58.5212 30.2628C56.0272 30.2152 53.5698 30.0356 51.2173 29.753C52.6676 25.8311 54.3355 22.2566 56.2091 19.1648C56.4508 19.152 56.6902 19.1285 56.9323 19.1173C58.1426 19.0613 59.3568 19.0265 60.5724 19.0106ZM62.0901 19.0106C63.9693 19.0125 65.8469 19.0613 67.7103 19.1648C70.5549 21.4731 73.1383 23.9441 75.5062 26.5279C75.5797 27.1771 75.6542 27.8257 75.7137 28.5021C72.5232 29.3295 68.8224 29.883 64.9357 30.1265C64.0914 26.2515 63.1399 22.5297 62.0901 19.0106ZM55.9067 19.1825C54.0509 22.2709 52.4033 25.8316 50.9683 29.7233C50.7175 29.6922 50.4692 29.6564 50.2213 29.6226C50.3601 25.8342 50.6283 22.4339 51.0513 19.562C52.6556 19.4016 54.2741 19.2734 55.9067 19.1825ZM68.1193 19.1944C70.2213 19.3199 72.3001 19.5123 74.3442 19.7754C74.8124 21.6818 75.1824 23.8141 75.4588 26.1426C73.2136 23.7144 70.7866 21.3788 68.1193 19.1944ZM50.8082 19.5857C50.3886 22.4532 50.1158 25.8339 49.9782 29.5929C46.3317 29.0808 43.0511 28.2735 40.4809 27.186C43.0577 24.5364 45.9276 22.0567 49.0712 19.7754C49.6478 19.7071 50.2262 19.6452 50.8082 19.5857ZM74.5991 19.811C76.0667 20.0044 77.5185 20.2245 78.9388 20.4927C80.9163 21.5629 82.7847 22.685 84.553 23.8601C83.8331 24.8401 82.724 25.718 81.2805 26.4805C80.1177 27.0947 78.729 27.6275 77.2077 28.093C76.7254 27.5323 76.2348 26.9774 75.7315 26.4271C75.4549 24.0089 75.0813 21.7913 74.5991 19.811ZM48.5732 19.8406C45.5342 22.0765 42.76 24.5035 40.2556 27.0852C39.1611 26.6066 38.1634 26.0931 37.3803 25.5082C36.3825 24.763 35.6647 23.9364 35.2816 23.0301C35.2023 22.8426 35.148 22.6495 35.0978 22.4551C39.2212 21.3145 43.7879 20.4303 48.5732 19.8406ZM31.7364 19.8702C30.8232 21.1539 30.0263 22.5604 29.3413 24.0735C25.3218 25.5938 21.9709 27.3795 19.6482 29.3973C19.7968 29.2142 19.9336 29.0267 20.087 28.8459C23.0357 25.3703 26.8954 22.3267 31.7364 19.8702ZM79.6798 20.6409C81.512 21.0068 83.3001 21.4286 85.0214 21.9274C85.1451 21.9633 85.26 22.0094 85.383 22.046C85.2681 22.6201 85.0365 23.1609 84.6894 23.6763C83.1037 22.6217 81.4326 21.6117 79.6798 20.6409ZM90.9083 21.1389C94.6349 23.3421 97.7101 25.9304 100.157 28.8222C100.617 29.3667 101.055 29.9233 101.473 30.4881C101.85 30.9978 102.203 31.5162 102.546 32.0414C100.262 29.2139 97.1932 26.8934 93.5761 25.028C92.8698 23.7671 92.0856 22.5684 91.1988 21.4591C91.1086 21.3462 91.0004 21.2501 90.9083 21.1389ZM85.6142 22.1171C88.4077 22.96 91.0264 23.984 93.4042 25.2059C94.879 27.8561 95.9611 30.8232 96.6826 34.0155C93.4328 30.3495 89.5151 26.9089 84.885 23.8067C85.2432 23.275 85.4912 22.7148 85.6142 22.1171ZM34.8725 22.538C34.9245 22.7366 34.9815 22.934 35.0622 23.125C35.4665 24.0814 36.2165 24.935 37.238 25.6979C38.0204 26.2822 39.0034 26.7979 40.0777 27.2749C35.3462 32.1912 31.5995 37.6521 28.7188 43.341C28.4908 43.4129 28.2505 43.4746 28.0252 43.5485C27.4298 43.7437 26.8765 43.9678 26.3 44.1769C26.0953 37.8453 26.7648 31.9076 28.4698 26.9014C30.4363 25.3638 32.5717 23.9073 34.8725 22.538ZM34.0663 22.7455C32.1354 23.928 30.3199 25.1705 28.6299 26.4745C28.9018 25.7115 29.1979 24.974 29.5191 24.2573C29.8578 24.1298 30.1786 23.9954 30.527 23.872C31.6544 23.4723 32.8465 23.1019 34.0663 22.7455ZM84.7487 23.9905C89.4963 27.1689 93.4925 30.7048 96.7834 34.472C97.5431 38.0251 97.8378 41.8534 97.7557 45.8191C97.3767 45.6593 97.0265 45.4873 96.6352 45.333C93.6744 44.1652 90.344 43.1766 86.7999 42.3332C84.2854 37.4514 81.1526 32.7201 77.3677 28.2887C78.8635 27.8251 80.2375 27.2984 81.3932 26.688C82.8588 25.9138 84.001 25.0116 84.7487 23.9905ZM29.2049 24.3759C28.8661 25.1479 28.5508 25.9358 28.2682 26.7591C23.4049 30.574 19.545 34.8658 16.6247 39.4223C16.0596 37.7234 16.0251 35.8822 16.6307 33.8792C16.6704 33.7649 16.7446 33.6548 16.7907 33.5413C17.3285 32.6111 17.9168 31.6999 18.5574 30.8142C20.7708 28.3695 24.4959 26.182 29.2049 24.3759ZM93.7777 25.3837C98.1809 27.7076 101.729 30.7213 103.992 34.5076C104.612 37.3055 104.033 39.7795 102.516 41.9656C100.967 39.3651 99.1387 36.8292 97.0146 34.389C96.3153 31.1333 95.2477 28.0995 93.7777 25.3837ZM75.7789 26.8125C76.1853 27.2607 76.5781 27.715 76.9705 28.1701C76.6411 28.2681 76.2877 28.3516 75.9449 28.4428C75.8958 27.8869 75.8375 27.3504 75.7789 26.8125ZM28.1378 27.1682C26.4955 32.1589 25.8522 38.0216 26.0628 44.2659C24.7035 44.7657 23.3972 45.299 22.156 45.8784C20.5978 44.8431 19.2994 43.7131 18.3203 42.4873C17.6182 41.6084 17.0874 40.6764 16.7255 39.7009C19.5871 35.1962 23.3695 30.9542 28.1378 27.1682ZM40.303 27.3757C42.9213 28.5007 46.2628 29.3197 49.9723 29.836C49.9377 30.8277 49.9061 31.8385 49.8893 32.8773C49.166 35.0891 48.5045 37.3832 47.9033 39.7424C41.1615 40.3351 34.7135 41.4858 29.033 43.2462C31.9018 37.6284 35.6176 32.2318 40.303 27.3757ZM77.1306 28.3657C80.8825 32.748 83.9883 37.4289 86.4916 42.2561C83.2652 41.5001 79.8625 40.8687 76.3243 40.3946C76.3912 36.2242 76.2703 32.2851 75.9627 28.6859C76.3561 28.5815 76.7544 28.4791 77.1306 28.3657ZM75.7315 28.7451C76.0355 32.3164 76.1519 36.2269 76.0872 40.3649C73.0391 39.9626 69.9077 39.6774 66.738 39.4934C66.2124 36.3932 65.6334 33.3331 64.9891 30.3577C68.8562 30.1146 72.5405 29.5705 75.7315 28.7451ZM50.2095 29.8656C50.4317 29.8957 50.6548 29.9266 50.8794 29.9546C50.6206 30.6628 50.3894 31.4075 50.1442 32.1362C50.1602 31.3597 50.1833 30.6147 50.2095 29.8656ZM51.1284 29.9842C53.5074 30.2703 55.9918 30.4517 58.5152 30.5C60.5967 30.5398 62.6903 30.4922 64.746 30.3695C65.3895 33.3387 65.9697 36.3867 66.4949 39.4816C65.3765 39.4187 64.2585 39.3505 63.1335 39.3156C61.584 39.2675 60.0319 39.2447 58.4797 39.2504C55.6925 39.2606 52.9131 39.3639 50.168 39.5527C50.132 37.2801 50.0982 35.0204 50.1324 32.9069C50.4561 31.9195 50.7801 30.9348 51.1284 29.9842ZM16.7374 33.0966C16.6923 33.1934 16.6416 33.2897 16.601 33.3871C13.9056 38.0337 12.4754 43.1963 12.1132 48.5699C11.26 50.9444 10.6187 53.3455 10.1924 55.7611C9.64129 56.7273 9.20011 57.7438 8.86438 58.8024C9.08886 49.3662 11.9401 40.5694 16.7374 33.0966ZM49.8834 33.6421C49.8608 35.5368 49.8985 37.5533 49.9308 39.5705C49.3369 39.6125 48.7482 39.6681 48.1582 39.7187C48.6893 37.6414 49.2573 35.6056 49.8834 33.6421ZM16.2097 34.6025C15.8024 36.4175 15.8997 38.1142 16.4587 39.6832C14.804 42.303 13.4602 45.0085 12.4096 47.7636C12.8182 43.136 14.0515 38.6855 16.2097 34.6025ZM97.1154 34.8455C99.1435 37.2104 100.891 39.6664 102.38 42.179C102.152 42.4921 101.905 42.7969 101.639 43.0979C100.714 44.1431 99.5196 45.1007 98.1707 45.997C98.1113 45.9713 98.0526 45.9454 97.9928 45.9199C98.0792 42.062 97.8217 38.326 97.1154 34.8455ZM104.342 35.1716C107.011 40.4678 108.168 46.3624 108.065 52.4353C107.841 52.1906 107.618 51.9444 107.372 51.7061C107.199 51.5386 106.98 51.3843 106.797 51.2199C105.765 48.1622 104.387 45.1373 102.653 42.1909C104.113 40.1234 104.738 37.7764 104.342 35.1716ZM105.012 35.9957C108.751 42.7831 110.94 50.5152 111.148 58.7254C110.916 56.5441 109.92 54.5236 108.297 52.6783C108.426 46.8429 107.409 41.1543 105.012 35.9957ZM58.4797 39.4934C60.0292 39.4877 61.5808 39.5047 63.1276 39.5527C64.2678 39.5881 65.403 39.6546 66.5364 39.7187C67.3133 44.3262 67.9255 49.0257 68.4454 53.7099C65.509 53.8993 62.5237 53.9815 59.5408 53.9589C56.5781 53.9364 53.6204 53.8044 50.7193 53.5735C50.5153 50.4618 50.3562 47.3798 50.251 44.3785C50.1956 42.7996 50.1937 41.3227 50.168 39.7958C52.912 39.6072 55.6932 39.5038 58.4797 39.4934ZM66.7736 39.7306C69.9315 39.915 73.0454 40.2065 76.0813 40.608C76.0601 41.8307 76.0317 43.0643 75.9805 44.3192C75.8643 47.1618 75.6681 50.0828 75.4054 53.0281C73.21 53.3091 70.9672 53.5342 68.6825 53.6862C68.1639 49.0118 67.5483 44.33 66.7736 39.7306ZM49.9308 39.8136C49.9568 41.3389 49.9585 42.8132 50.0138 44.3904C50.1188 47.3826 50.2735 50.4545 50.4762 53.5558C48.7807 53.4173 47.1169 53.2317 45.4726 53.0222C46.0129 49.4944 46.6557 45.9987 47.4349 42.6118C47.6406 41.718 47.8705 40.8458 48.093 39.9677C48.7051 39.9149 49.3144 39.8572 49.9308 39.8136ZM16.5714 39.9499C16.9403 40.8898 17.4549 41.7897 18.1306 42.6355C19.1032 43.8532 20.3792 44.973 21.9011 45.997C17.9642 47.8647 14.6572 50.1299 12.2851 52.8443C12.2349 51.4152 12.256 49.9992 12.3503 48.5936C13.4131 45.6447 14.8177 42.7494 16.5714 39.9499ZM47.844 39.9914C47.6283 40.8455 47.4036 41.6897 47.2037 42.5585C46.423 45.9518 45.7766 49.4535 45.2355 52.9866C38.6599 52.1335 32.574 50.7311 27.705 48.7478C27.3518 48.6039 27.0433 48.4411 26.7031 48.2913C27.3592 46.6908 28.0919 45.1082 28.8848 43.5367C34.574 41.7524 41.0587 40.591 47.844 39.9914ZM76.3184 40.6376C79.9143 41.1204 83.3709 41.7611 86.6398 42.5347C87.8798 44.9511 88.9589 47.3991 89.9005 49.8623C85.7024 51.2725 80.8485 52.3199 75.6425 52.9985C75.9033 50.0655 76.1019 47.1567 76.2176 44.3251C76.2686 43.0782 76.297 41.8528 76.3184 40.6376ZM102.504 42.3925C104.141 45.1858 105.463 48.047 106.465 50.9413C104.359 49.1334 101.637 47.5197 98.4256 46.1096C99.7325 45.2283 100.899 44.2889 101.811 43.258C102.06 42.9765 102.288 42.6854 102.504 42.3925ZM86.9481 42.6118C90.4049 43.4427 93.6551 44.412 96.5463 45.5523C96.9669 45.7182 97.3436 45.9018 97.7498 46.074C97.7479 46.1475 97.7519 46.2198 97.7498 46.2934C96.0225 47.3864 94.0176 48.3688 91.762 49.228C91.2424 49.4259 90.6753 49.5998 90.1317 49.7852C89.2103 47.3742 88.1544 44.9784 86.9481 42.6118ZM28.5647 43.6315C27.8333 45.0935 27.1567 46.5673 26.543 48.0541C26.4381 46.834 26.3489 45.6213 26.3059 44.4259C26.9028 44.2085 27.4786 43.9763 28.0963 43.7738C28.2486 43.7239 28.4112 43.6805 28.5647 43.6315ZM26.0688 44.5148C26.113 45.6977 26.2016 46.9011 26.3059 48.1075C24.8887 47.4635 23.5622 46.7812 22.405 46.0325C23.5735 45.4921 24.794 44.9857 26.0688 44.5148ZM22.1323 46.1511C23.3663 46.9601 24.7981 47.6878 26.3237 48.3743C26.3284 48.4261 26.3308 48.4766 26.3356 48.5284C22.9154 56.9992 21.3895 65.7622 21.5928 73.8844C19.7435 73.0866 18.0795 72.1979 16.5773 71.2463C14.9809 67.484 13.7624 63.6225 13.0439 59.751C12.6372 57.5593 12.3907 55.366 12.297 53.1941C14.6794 50.3952 18.0684 48.0636 22.1323 46.1511ZM98.1944 46.2697C101.598 47.7521 104.462 49.4548 106.607 51.3681C107.119 52.895 107.539 54.4266 107.882 55.9627C107.746 57.4 107.543 58.8428 107.277 60.2845C106.685 63.4871 105.75 66.6776 104.567 69.8116C102.608 71.2391 100.305 72.5384 97.6431 73.671C96.7577 73.1124 95.8137 72.579 94.7855 72.0822C94.7171 70.2716 94.5693 68.4353 94.3409 66.5747C95.9121 61.7084 97.0424 56.7493 97.6075 51.8958C97.8229 50.046 97.9314 48.2241 97.9869 46.4179C98.0606 46.3707 98.1218 46.3173 98.1944 46.2697ZM97.7438 46.5898C97.6852 48.3309 97.5779 50.0898 97.3704 51.8721C96.8264 56.5435 95.7644 61.3193 94.2816 66.0114C93.5916 60.7558 92.2398 55.3549 90.2147 50.0046C90.7597 49.8186 91.3297 49.6459 91.851 49.4473C94.0559 48.6075 96.0347 47.6553 97.7438 46.5898ZM26.6083 48.5047C26.9508 48.6555 27.2607 48.8224 27.6161 48.9671C32.511 50.961 38.6109 52.369 45.1999 53.2238C44.4979 57.8545 44.0039 62.5351 43.7059 67.1319C39.2425 67.7684 35.0383 68.6647 31.3095 69.8353C28.9223 62.99 27.2834 55.8555 26.6083 49.0145C26.5937 48.8666 26.5923 48.7235 26.5786 48.5758C26.5882 48.5521 26.5986 48.5284 26.6083 48.5047ZM26.3711 49.0442C27.0484 55.9008 28.6875 63.0484 31.0783 69.9064C29.7999 70.3136 28.5635 70.7403 27.4086 71.2107C25.3578 72.0461 23.5198 72.9855 21.9366 74.0208C21.902 74.0062 21.8645 73.994 21.8299 73.9793C21.6157 65.9989 23.0697 57.387 26.3711 49.0442ZM12.0539 49.4236C11.9977 50.6434 11.9974 51.8754 12.048 53.1111C11.481 53.7839 10.9822 54.484 10.5303 55.2098C10.9 53.2699 11.4072 51.3374 12.0539 49.4236ZM89.9894 50.0817C92.0734 55.5866 93.436 61.144 94.1038 66.5391C93.6089 68.0688 93.0651 69.5826 92.4794 71.0862C92.1926 70.97 91.9323 70.8428 91.6375 70.7305C86.6419 68.8277 80.5104 67.5176 73.9352 66.7584C74.6488 62.2875 75.2195 57.7348 75.6248 53.2415C80.8666 52.5607 85.7558 51.5051 89.9894 50.0817ZM106.933 51.6409C107.017 51.7196 107.124 51.7926 107.206 51.8721C107.508 52.1649 107.791 52.4654 108.059 52.7673C108.04 53.5594 108.002 54.3537 107.941 55.1505C107.658 53.9783 107.314 52.8073 106.933 51.6409ZM108.291 53.04C110.105 55.1794 111.071 57.5369 110.964 60.1008C110.811 61.9075 110.193 63.5883 109.192 65.1518C109.157 62.1101 108.797 59.0281 108.113 55.9508C108.204 54.978 108.261 54.0069 108.291 53.04ZM45.437 53.2593C47.0982 53.4709 48.7811 53.6537 50.494 53.7929C50.7695 57.9608 51.1551 62.1492 51.5849 66.296C48.9804 66.479 46.4289 66.7479 43.9431 67.0964C44.2411 62.5219 44.7387 57.8664 45.437 53.2593ZM75.3817 53.2712C74.9769 57.7454 74.4088 62.2773 73.698 66.7288C72.4201 66.5841 71.1277 66.4631 69.8208 66.3612C69.5612 62.2899 69.1676 58.1157 68.7062 53.9233C70.9741 53.7724 73.2006 53.5492 75.3817 53.2712ZM12.0598 53.4727C12.1628 55.5682 12.415 57.6809 12.8068 59.7925C13.5087 63.5747 14.6915 67.3468 16.2275 71.0269C15.0576 70.2617 13.9648 69.4693 13.0499 68.6081C11.5928 67.2367 10.4923 65.7402 9.77736 64.1262C9.7233 61.3776 9.93293 58.6028 10.4176 55.8382C10.8903 55.0149 11.4395 54.2302 12.0598 53.4727ZM50.7371 53.8166C53.6324 54.0458 56.5848 54.1736 59.5408 54.196C62.5312 54.2187 65.525 54.137 68.4691 53.947C68.9291 58.1252 69.3182 62.2853 69.5777 66.3434C66.2102 66.0879 62.7737 65.9557 59.3334 65.9818C56.8136 66.0009 54.3033 66.1148 51.822 66.2841C51.3929 62.1489 51.0127 57.9732 50.7371 53.8166ZM10.0738 56.4903C9.69961 58.8438 9.52025 61.2032 9.5343 63.5452C9.07902 62.3365 8.83425 61.0647 8.84067 59.7214C8.84071 59.7133 8.84061 59.7057 8.84067 59.6976C8.84068 59.6956 8.84065 59.6937 8.84067 59.6917C8.84114 59.6899 8.8402 59.6876 8.84067 59.6858C9.12629 58.5699 9.55008 57.5079 10.0738 56.4903ZM108.024 56.6326C108.638 59.5958 108.956 62.5652 108.966 65.4897C108.171 66.6522 107.167 67.7517 105.955 68.78C105.644 69.0433 105.271 69.2847 104.935 69.5389C106.055 66.5094 106.937 63.4245 107.508 60.332C107.736 59.0976 107.89 57.8651 108.024 56.6326ZM111.172 60.3379C111.117 68.558 109.05 76.3084 105.451 83.1506C107.378 78.9075 108.599 74.3033 109.026 69.527C109.143 68.2158 109.2 66.8931 109.198 65.5609C110.287 63.9517 110.973 62.2103 111.172 60.3379ZM8.89403 62.2647C9.04697 62.9188 9.27009 63.5554 9.54023 64.1736C9.56702 65.4769 9.64584 66.7753 9.78922 68.0627C10.0643 70.5324 10.5633 72.9618 11.2536 75.331C9.90985 71.1825 9.09815 66.8007 8.89403 62.2647ZM9.80108 64.7428C10.5287 66.1911 11.5644 67.5381 12.8839 68.78C13.8819 69.7194 15.084 70.5837 16.3757 71.4063C17.1135 73.1409 17.9205 74.851 18.8242 76.5285C18.5031 76.8567 18.1977 77.1926 17.9231 77.5364C16.0766 79.8479 15.334 82.5259 15.9904 85.522C12.7542 80.2217 10.7176 74.2456 10.0264 68.039C9.90477 66.9472 9.83865 65.8464 9.80108 64.7428ZM108.955 65.9285C108.947 67.1283 108.9 68.3211 108.794 69.5033C108.289 75.1603 106.668 80.5762 104.07 85.4272C104.69 82.2063 103.752 79.3687 101.633 76.9554C102.836 74.677 103.869 72.3288 104.769 69.9479C105.217 69.6187 105.696 69.3029 106.103 68.9579C107.222 68.0083 108.179 66.9987 108.955 65.9285ZM59.3334 66.2189C62.7826 66.1928 66.2258 66.3232 69.6014 66.5806C69.8882 71.1264 70.012 75.4619 70.052 79.6291C66.4028 79.9198 62.6921 80.0856 58.9776 80.0856C57.1579 80.0856 55.3427 80.0429 53.5353 79.973C52.8921 75.6957 52.336 71.157 51.8516 66.5213C54.3237 66.3526 56.8229 66.238 59.3334 66.2189ZM51.6086 66.5331C52.0914 71.1601 52.6506 75.6888 53.2923 79.9611C50.0065 79.8282 46.7667 79.5731 43.6111 79.2082C43.6095 79.0917 43.6005 78.9812 43.5992 78.8643C43.5577 75.1602 43.6803 71.2816 43.9312 67.3394C46.4274 66.9883 48.9911 66.7171 51.6086 66.5331ZM69.8386 66.6043C71.1293 66.7054 72.4062 66.8232 73.6684 66.9659C72.9721 71.293 72.1286 75.5194 71.1784 79.5343C70.8827 79.5604 70.5859 79.5872 70.2891 79.6113C70.249 75.4573 70.1233 71.1332 69.8386 66.6043ZM73.8996 66.9956C80.4635 67.7527 86.5834 69.0564 91.5545 70.9498C91.8481 71.0617 92.1049 71.1897 92.3904 71.3056C91.7358 72.972 91.0288 74.6098 90.2681 76.2262C84.6046 77.8222 78.1538 78.9101 71.4274 79.5165C72.3726 75.5143 73.2064 71.3049 73.8996 66.9956ZM94.163 67.1082C94.3519 68.7489 94.4788 70.3689 94.5425 71.9696C93.9585 71.6929 93.3234 71.4384 92.6987 71.1811C93.2237 69.8336 93.7107 68.4772 94.163 67.1082ZM43.6882 67.375C43.4393 71.3048 43.3207 75.17 43.3621 78.8643C43.3633 78.9711 43.3666 79.0721 43.368 79.1786C40.2978 78.8171 37.3267 78.3443 34.4872 77.7616C33.3458 75.2586 32.3102 72.6879 31.3866 70.0606C35.0837 68.9009 39.2571 68.0093 43.6882 67.375ZM31.1554 70.1258C32.0619 72.7057 33.0803 75.2349 34.1967 77.6964C30.6673 76.9602 27.3343 76.0747 24.3495 74.9931C23.6056 74.7235 22.9174 74.4246 22.2153 74.1334C23.7512 73.1428 25.5158 72.2373 27.4975 71.4301C28.6485 70.9612 29.8795 70.5318 31.1554 70.1258ZM104.401 70.2266C103.545 72.4465 102.577 74.6361 101.455 76.7657C100.484 75.7007 99.2584 74.7283 97.8624 73.8251C100.342 72.7603 102.524 71.5539 104.401 70.2266ZM92.6098 71.4004C93.2693 71.6724 93.9414 71.9368 94.5543 72.2304C94.5856 73.1071 94.6016 73.9775 94.5958 74.8389C94.4148 74.9034 94.2514 74.9772 94.0682 75.0405C92.9488 75.4274 91.7777 75.7887 90.5823 76.1313C91.3084 74.5773 91.9813 73.0001 92.6098 71.4004ZM16.7255 71.6198C18.1973 72.5282 19.8142 73.3692 21.5987 74.1334C21.5998 74.1707 21.5975 74.2089 21.5987 74.2461C20.6222 74.9096 19.7554 75.6119 19.002 76.3566C18.1683 74.8056 17.4172 73.2199 16.7255 71.6198ZM94.7974 72.3608C95.7152 72.8098 96.5821 73.2798 97.3822 73.7777C96.5667 74.1192 95.7026 74.4359 94.833 74.75C94.8371 73.9598 94.8242 73.1638 94.7974 72.3608ZM97.6134 73.9378C99.0797 74.8747 100.348 75.8922 101.342 76.9969C99.0114 81.3778 96.121 85.4937 92.8351 89.1976C93.8801 85.6955 94.5374 81.8608 94.7678 77.8032C94.8198 76.8856 94.8182 75.9434 94.827 75.0049C95.7804 74.6622 96.7242 74.3137 97.6134 73.9378ZM21.9663 74.2816C22.7219 74.5978 23.4691 74.9213 24.2724 75.2124C27.3169 76.3157 30.7148 77.2184 34.3153 77.9632C35.2868 80.087 36.3121 82.1694 37.4277 84.1585C39.0746 87.0949 40.8867 89.8376 42.8167 92.3694C40.1853 93.1731 37.9842 94.1605 36.4851 95.3395C36.174 95.5842 35.9051 95.8429 35.6551 96.1043C30.6909 92.2863 26.3112 87.5724 22.7073 82.3503C22.24 79.903 21.9412 77.3533 21.8358 74.7263C21.8313 74.6131 21.8397 74.4959 21.8358 74.3824C21.8832 74.3506 21.9184 74.3133 21.9663 74.2816ZM21.5987 74.5603C21.6009 74.6189 21.5964 74.6796 21.5987 74.7381C21.6973 77.1974 21.9778 79.5817 22.3931 81.8879C21.2218 80.1585 20.1163 78.394 19.1265 76.57C19.8366 75.8623 20.6797 75.1972 21.5987 74.5603ZM94.5899 75.0938C94.58 75.998 94.5808 76.9068 94.5306 77.7913C94.2898 82.0335 93.5696 86.0178 92.4379 89.6364C91.8789 90.2542 91.3362 90.8883 90.7542 91.4801C88.9295 93.3354 86.9741 95.0282 84.9443 96.5904C84.186 95.1503 82.6658 93.9659 80.6343 93.0156C80.4281 92.9191 80.1871 92.8405 79.9703 92.7488C81.7275 90.7259 83.3933 88.5662 84.9324 86.2631C86.9921 83.1809 88.8179 79.8629 90.44 76.4277C91.7152 76.0663 92.9546 75.6773 94.1453 75.2658C94.2999 75.2123 94.4368 75.1482 94.5899 75.0938ZM90.1376 76.5048C88.5403 79.8656 86.7479 83.1142 84.7309 86.1326C83.1824 88.4498 81.5071 90.6234 79.7391 92.6539C77.1201 91.5832 73.7988 90.839 70.1231 90.4071C70.2268 88.3343 70.2999 86.1761 70.3247 83.8917C70.6033 82.8592 70.8807 81.8254 71.1428 80.7555C71.2227 80.4298 71.2958 80.0884 71.3741 79.7595C78.0644 79.1609 84.4814 78.0832 90.1376 76.5048ZM18.9487 76.742C20.0157 78.7042 21.2064 80.6114 22.4821 82.4629C23.3777 87.1167 24.9417 91.3638 27.0885 95.0313C24.0974 93.7399 21.5878 92.2832 19.7253 90.6975C18.4988 89.2443 17.3861 87.7141 16.3757 86.1208C15.4624 82.9191 16.1681 80.1192 18.1128 77.6846C18.3693 77.3634 18.6499 77.05 18.9487 76.742ZM101.508 77.1866C103.61 79.6132 104.507 82.4223 103.791 85.6643C100.909 90.4878 95.9169 94.0317 89.7523 96.5193C90.9013 94.465 91.8721 92.2121 92.6394 89.7727C96.0759 85.9695 99.0888 81.722 101.508 77.1866ZM34.6117 78.0284C37.4164 78.599 40.3486 79.0599 43.3739 79.4157C43.4425 83.9234 43.737 88.1529 44.2336 91.9722C43.8373 92.0773 43.4449 92.1852 43.0657 92.2982C41.1203 89.7557 39.2943 86.9981 37.6352 84.0399C36.5531 82.1106 35.5582 80.086 34.6117 78.0284ZM43.617 79.4453C46.7802 79.8107 50.0294 80.0658 53.3219 80.1982C53.3701 80.5174 53.4092 80.8663 53.4583 81.1824C53.9552 84.3874 54.4908 87.4026 55.0589 90.2114C51.2588 90.5209 47.6226 91.0904 44.4707 91.907C43.9785 88.1181 43.6862 83.9164 43.617 79.4453ZM71.1251 79.7833C71.0528 80.0864 70.9852 80.4017 70.9116 80.7022C70.7233 81.4709 70.5218 82.2052 70.3247 82.955C70.3309 81.9553 70.298 80.8867 70.2891 79.8544C70.5682 79.8317 70.8469 79.8076 71.1251 79.7833ZM70.052 79.8722C70.0628 81.1423 70.1054 82.4702 70.0935 83.6901C70.093 83.7464 70.0882 83.794 70.0876 83.8502C69.4855 86.0777 68.8472 88.2 68.1727 90.2114C65.741 90.002 63.2091 89.9048 60.6554 89.9387C59.5598 89.9533 58.4624 89.9876 57.371 90.0454C56.6761 90.0822 55.9898 90.1397 55.302 90.1936C54.7319 87.3811 54.1932 84.3575 53.6954 81.1468C53.6488 80.846 53.6109 80.5137 53.565 80.2101C55.3632 80.2792 57.1671 80.3227 58.9776 80.3227C62.6915 80.3227 66.403 80.162 70.052 79.8722ZM22.8378 82.9787C26.3864 88.0232 30.6644 92.5697 35.4891 96.2822C35.1061 96.7136 34.81 97.1644 34.6117 97.6398C33.1242 97.2222 31.6753 96.7865 30.3195 96.3059C29.3197 95.9515 28.3671 95.5779 27.4501 95.1913C25.3221 91.6362 23.7665 87.5067 22.8378 82.9787ZM70.0579 84.9173C70.0265 86.8054 69.9731 88.6405 69.886 90.3774C69.4003 90.3223 68.9119 90.2738 68.4158 90.2292C68.9843 88.528 69.5408 86.7739 70.0579 84.9173ZM103.328 86.7551C103.171 87.0244 103.006 87.2902 102.842 87.5555C100.913 90.4603 98.6991 93.1646 96.2202 95.6122C96.2083 95.624 96.1966 95.636 96.1847 95.6478C93.0036 98.5766 89.2695 100.991 85.0569 102.75C86.7859 101.093 88.2739 99.0897 89.5626 96.8513C95.462 94.5173 100.298 91.2068 103.328 86.7551ZM60.6613 90.1758C63.1847 90.1431 65.6869 90.2427 68.0897 90.4485C66.6731 94.6358 65.1108 98.3 63.4299 101.155C61.6514 101.183 59.8708 101.162 58.0943 101.102C57.1287 98.2445 56.2035 94.6108 55.3494 90.4308C56.0262 90.3777 56.6993 90.3187 57.3829 90.2826C58.4711 90.2249 59.5687 90.19 60.6613 90.1758ZM92.2422 90.2114C91.4742 92.5434 90.5197 94.6986 89.3966 96.6616C88.1166 97.1658 86.7967 97.6344 85.4245 98.0488C85.3581 97.6226 85.2193 97.2176 85.0391 96.8276C87.098 95.2476 89.0779 93.5313 90.9261 91.652C91.3811 91.1894 91.8013 90.6899 92.2422 90.2114ZM55.1123 90.4485C55.9598 94.6051 56.8789 98.2281 57.8453 101.096C57.472 101.083 57.0974 101.078 56.7248 101.061C54.7935 100.971 52.8809 100.815 50.9861 100.628C48.8298 98.8771 46.7778 96.82 44.8383 94.5273C44.7126 93.7645 44.6072 92.9538 44.5004 92.15C47.651 91.3318 51.2997 90.7592 55.1123 90.4485ZM68.3387 90.4663C68.859 90.5129 69.3715 90.5683 69.8801 90.6264C69.678 94.5286 69.3374 98.0132 68.8604 100.918C67.1505 101.038 65.4322 101.124 63.7026 101.155C65.381 98.2832 66.9342 94.6321 68.3387 90.4663ZM70.1172 90.6561C73.7374 91.0844 77.0053 91.8034 79.579 92.8437C76.8969 95.8981 73.983 98.5852 70.8701 100.77C70.2865 100.823 69.6971 100.858 69.1094 100.9C69.5836 97.9988 69.9171 94.5302 70.1172 90.6561ZM19.5949 90.905C19.6063 90.9147 19.619 90.925 19.6305 90.9347C22.7438 94.6006 26.5249 97.7829 30.9183 100.278C31.2675 100.652 31.6234 101.018 31.9913 101.369C33.4302 102.742 35.0154 103.923 36.7341 104.902C30.0259 101.518 24.1826 96.7209 19.5949 90.905ZM20.6146 91.7054C22.4249 93.0445 24.6779 94.2712 27.29 95.3751C28.2268 96.9314 29.2512 98.3956 30.4084 99.7088C26.6724 97.5022 23.3947 94.792 20.6146 91.7054ZM44.2632 92.2152C44.3499 92.8663 44.4368 93.5232 44.5359 94.1479C44.0933 93.6154 43.6617 93.0626 43.2317 92.5057C43.5677 92.4068 43.9135 92.3082 44.2632 92.2152ZM42.9827 92.5709C43.5191 93.2684 44.0508 93.9686 44.6071 94.6281C44.9287 96.5705 45.3246 98.3524 45.769 99.9934C43.6498 99.6788 41.5794 99.3072 39.5857 98.8788C38.302 98.0625 37.0523 97.1823 35.8329 96.2525C36.0707 96.004 36.3281 95.7586 36.6274 95.5233C38.1076 94.3592 40.324 93.3734 42.9827 92.5709ZM79.8103 92.9385C80.0481 93.0381 80.3087 93.1298 80.5335 93.2349C82.5596 94.1827 84.0307 95.3536 84.7487 96.7505C83.6534 97.5852 82.54 98.385 81.3932 99.1219C78.1851 99.8585 74.811 100.393 71.3503 100.729C74.3739 98.5628 77.2 95.9183 79.8103 92.9385ZM44.9331 95.0253C46.7129 97.0962 48.5907 98.9629 50.5533 100.586C49.0272 100.43 47.5139 100.257 46.0299 100.041C45.6105 98.5066 45.2453 96.8337 44.9331 95.0253ZM27.6457 95.5352C28.479 95.8793 29.3445 96.2129 30.2424 96.5312C31.5941 97.0103 33.0361 97.4486 34.5168 97.8651C34.2043 98.7676 34.2414 99.7435 34.6947 100.77C34.9222 101.285 35.2571 101.811 35.6966 102.353C34.0906 101.681 32.5438 100.933 31.0724 100.1C29.7999 98.7325 28.6648 97.191 27.6457 95.5352ZM35.6729 96.4304C36.7414 97.2455 37.8389 98.0135 38.9572 98.7425C37.539 98.4271 36.1747 98.0743 34.8429 97.705C35.0301 97.2641 35.3105 96.8395 35.6729 96.4304ZM84.8494 96.9817C85.013 97.3475 85.1347 97.7238 85.1933 98.12C85.0642 98.1584 84.9437 98.2069 84.8139 98.2445C83.938 98.4983 83.0348 98.7249 82.1283 98.944C83.0565 98.329 83.9559 97.661 84.8494 96.9817ZM89.2069 96.9876C87.884 99.2341 86.3609 101.24 84.5886 102.875C84.5306 102.928 84.4692 102.976 84.4107 103.029C84.1561 103.13 83.8922 103.217 83.6341 103.313C85.0396 101.44 85.6012 99.7675 85.4482 98.286C86.7426 97.8962 87.992 97.457 89.2069 96.9876ZM34.7421 97.9303C36.2684 98.3544 37.8416 98.7453 39.4789 99.0982C41.7865 100.563 44.1905 101.836 46.6761 102.886C47.0306 103.855 47.4035 104.762 47.8144 105.554C43.641 105.023 39.7633 103.998 36.2005 102.56C35.6164 101.907 35.1795 101.276 34.914 100.675C34.4793 99.6905 34.4452 98.7799 34.7421 97.9303ZM85.2111 98.3631C85.3454 99.832 84.7605 101.525 83.231 103.462C78.6494 105.112 73.5378 105.996 67.9593 105.94C68.0443 105.67 68.1337 105.419 68.2142 105.127C72.8844 104.002 77.3516 102.002 81.4999 99.3412C82.6474 99.0767 83.7783 98.7887 84.8791 98.4698C84.9923 98.4369 85.0984 98.3964 85.2111 98.3631ZM92.8054 98.6832C89.3611 101.523 85.5299 103.921 81.405 105.797L81.4109 105.785C81.6227 105.584 81.8037 105.39 81.9978 105.193C82.8978 104.603 83.7535 103.939 84.5649 103.207C87.557 102.012 90.308 100.483 92.8054 98.6832ZM40.137 99.2345C41.9826 99.6183 43.8797 99.9611 45.8283 100.248C46.0574 101.074 46.3087 101.841 46.5694 102.578C44.3582 101.631 42.2077 100.515 40.137 99.2345ZM80.8359 99.4835C76.8956 101.941 72.6786 103.791 68.2794 104.867C68.4813 104.108 68.6701 103.273 68.8426 102.383C69.5574 101.947 70.2633 101.482 70.9591 100.995C74.3567 100.681 77.669 100.181 80.8359 99.4835ZM46.0951 100.29C47.6697 100.518 49.2764 100.698 50.8972 100.859C53.518 102.978 56.2886 104.653 59.1792 105.785C59.0883 105.793 58.9972 105.802 58.9065 105.809C54.7534 105.393 50.7183 104.318 46.8717 102.703C46.5978 101.945 46.3352 101.148 46.0951 100.29ZM31.6178 100.651C33.0337 101.421 34.5107 102.121 36.0464 102.744C37.1258 103.947 38.8151 105.227 41.05 106.562C37.6603 105.441 34.682 103.612 32.1514 101.197C31.9678 101.022 31.7968 100.833 31.6178 100.651ZM51.3359 100.906C53.1128 101.075 54.9048 101.214 56.713 101.298C57.1153 101.316 57.5192 101.319 57.9224 101.333C58.5348 103.12 59.1629 104.611 59.8076 105.72C59.7742 105.723 59.7403 105.729 59.7068 105.732C56.79 104.651 53.9883 103.009 51.3359 100.906ZM70.4907 101.031C69.9645 101.392 69.4329 101.737 68.896 102.068C68.9528 101.764 69.0143 101.462 69.0679 101.143C69.5426 101.109 70.0185 101.072 70.4907 101.031ZM68.8189 101.161C68.7563 101.532 68.6844 101.889 68.6173 102.24C66.3127 103.637 63.9123 104.757 61.432 105.56C61.0738 105.602 60.7201 105.631 60.3649 105.667C60.3725 105.658 60.3811 105.652 60.3886 105.643C60.3915 105.64 60.3917 105.635 60.3945 105.631C61.4972 104.54 62.56 103.104 63.5781 101.392C65.3355 101.362 67.0811 101.282 68.8189 101.161ZM58.1714 101.339C59.8783 101.396 61.5904 101.417 63.2995 101.392C62.3094 103.044 61.2842 104.422 60.2226 105.471L60.2167 105.477H60.2108C60.1519 105.547 60.0974 105.587 60.0388 105.655C59.4061 104.577 58.7794 103.108 58.1714 101.339ZM68.564 102.554C68.3954 103.406 68.214 104.202 68.0185 104.926C66.5475 105.275 65.055 105.534 63.5485 105.702C63.0901 105.659 62.6311 105.617 62.1672 105.56C64.3685 104.793 66.5046 103.787 68.564 102.554ZM36.5621 102.958C40.07 104.33 43.8784 105.303 47.9626 105.809C48.372 106.565 48.8067 107.238 49.2728 107.807C46.7079 107.829 44.3092 107.513 42.0815 106.888C39.6286 105.504 37.7666 104.183 36.5621 102.958ZM46.9725 103.011C50.3546 104.412 53.8766 105.395 57.5015 105.886C54.2281 106.057 51.091 105.952 48.1049 105.59C48.0897 105.561 48.0725 105.542 48.0574 105.513C47.6681 104.769 47.3121 103.919 46.9725 103.011ZM83.9246 103.45C83.5543 103.765 83.1744 104.064 82.7863 104.351C82.9954 104.114 83.2078 103.876 83.391 103.645C83.5696 103.58 83.7477 103.517 83.9246 103.45ZM82.9286 103.817C82.6082 104.201 82.2497 104.595 81.8556 104.997C77.8225 107.638 72.9122 108.771 67.2123 107.89C67.3288 107.641 67.4521 107.425 67.562 107.143C67.6758 106.852 67.7753 106.497 67.8822 106.171C73.3611 106.233 78.3998 105.399 82.9286 103.817ZM67.9593 105.187C67.8826 105.46 67.7908 105.68 67.7103 105.934C66.7193 105.919 65.7184 105.879 64.6986 105.803C65.7965 105.647 66.881 105.439 67.9593 105.187ZM61.7937 105.762C61.8036 105.763 61.8134 105.761 61.8233 105.762C62.0274 105.788 62.225 105.803 62.428 105.827C62.0183 105.86 61.6067 105.867 61.1949 105.886C61.2868 105.858 61.3759 105.821 61.4676 105.791C61.5771 105.779 61.6839 105.775 61.7937 105.762ZM48.2649 105.851C51.6278 106.247 55.1746 106.327 58.8946 106.046C59.1095 106.068 59.3254 106.088 59.5408 106.106C59.3502 106.154 59.1633 106.215 58.9717 106.26H58.9658C55.6236 107.259 52.4932 107.747 49.5692 107.801C49.107 107.258 48.677 106.591 48.2649 105.851ZM60.2523 105.916C60.2402 105.919 60.2287 105.924 60.2167 105.928C60.2108 105.926 60.2048 105.924 60.1989 105.922C60.2167 105.92 60.2345 105.918 60.2523 105.916ZM63.5603 105.94C64.9433 106.071 66.3014 106.149 67.6332 106.171C67.5358 106.465 67.4457 106.79 67.3427 107.054C67.2252 107.355 67.0939 107.588 66.9692 107.849C65 107.526 62.9371 106.964 60.7858 106.141C61.7158 106.11 62.6414 106.042 63.5603 105.94ZM60.0803 106.2C60.8235 107.526 61.5308 108.559 62.2027 109.254C62.5765 109.64 62.9435 109.933 63.2995 110.137C62.9138 110.154 62.5296 110.186 62.1434 110.196C59.5385 110.268 56.9416 110.182 54.472 109.965C56.1 109.606 57.8814 108.408 59.8195 106.272C59.9066 106.249 59.9934 106.224 60.0803 106.2ZM60.3827 106.242C62.6412 107.129 64.8017 107.725 66.8684 108.068C66.571 108.654 66.2622 109.167 65.9317 109.514C65.7144 109.743 65.4955 109.909 65.2677 110.03C64.7833 110.067 64.2967 110.087 63.8093 110.113C63.3624 109.948 62.8847 109.621 62.3746 109.094C61.7526 108.45 61.0833 107.471 60.3827 106.242ZM80.1245 106.278C79.9504 106.376 79.7962 106.485 79.6146 106.58C79.3128 106.704 79.0063 106.818 78.7016 106.936C79.1858 106.737 79.6602 106.513 80.1245 106.278ZM59.3156 106.408C57.0716 108.776 55.0633 109.885 53.3219 109.846C53.0238 109.814 52.7317 109.782 52.4386 109.746C51.4711 109.512 50.5757 108.923 49.7589 108.026C52.6507 107.956 55.7388 107.473 59.0251 106.491C59.0293 106.49 59.0327 106.486 59.0369 106.485C59.1307 106.463 59.2221 106.431 59.3156 106.408ZM40.6528 106.681C41.0909 106.833 41.5287 106.98 41.9808 107.108C42.1366 107.195 42.2642 107.28 42.4254 107.368C41.8262 107.152 41.2412 106.918 40.6528 106.681ZM78.1799 107.137C75.3674 108.192 72.4362 109.001 69.4117 109.556C68.2192 109.734 67.0026 109.879 65.7657 109.983C65.8808 109.891 65.9942 109.796 66.1037 109.68C66.4684 109.297 66.7981 108.741 67.1115 108.109C71.2068 108.751 74.9116 108.37 78.1799 107.137ZM42.793 107.309C44.8742 107.819 47.0977 108.072 49.4565 108.038C50.0753 108.747 50.746 109.28 51.4604 109.627C49.824 109.396 48.2832 109.1 46.8836 108.744C46.6983 108.695 46.5167 108.64 46.3322 108.59C45.103 108.253 43.9762 107.876 43.0242 107.445C43.0215 107.444 43.0209 107.441 43.0182 107.44C42.9338 107.395 42.876 107.354 42.793 107.309Z" fill="white"/>
</svg>
