<svg width="81" height="68" viewBox="0 0 81 68" fill="none" xmlns="http://www.w3.org/2000/svg">
<path d="M25.3205 68C21.8563 68 18.6755 67.593 15.7781 66.779C12.9437 65.965 10.4242 64.8692 8.21972 63.4917C6.07819 62.0516 4.31457 60.4549 2.92887 58.7017C1.54317 56.8858 0.566877 55.0074 0 53.0663L9.82588 49.9669C10.7707 52.4088 12.5028 54.5378 15.0223 56.3536C17.5417 58.1694 20.628 59.1087 24.2812 59.1713C28.6273 59.1713 32.0601 58.2947 34.5795 56.5414C37.162 54.7256 38.4532 52.3775 38.4532 49.4972C38.4532 46.8674 37.3509 44.7072 35.1464 43.0166C33.0049 41.2634 30.1075 39.9484 26.4543 39.0718L18.6125 37.0994C15.5261 36.2854 12.7547 35.0958 10.2983 33.5304C7.8418 31.965 5.88923 30.0239 4.44054 27.7072C2.99185 25.3278 2.26751 22.5414 2.26751 19.3481C2.26751 13.2744 4.25158 8.54696 8.21972 5.16575C12.1879 1.72192 17.9196 0 25.415 0C29.6981 0 33.4143 0.657458 36.5636 1.97237C39.7129 3.28729 42.2954 5.07182 44.3109 7.32597C46.3895 9.51749 47.9011 11.9595 48.8459 14.6519L39.1145 17.8453C38.1068 15.2155 36.3746 13.0552 33.9182 11.3646C31.4617 9.67403 28.4069 8.82873 24.7537 8.82873C21.0375 8.82873 18.0771 9.73665 15.8726 11.5525C13.668 13.3057 12.5658 15.7477 12.5658 18.8785C12.5658 21.4457 13.4161 23.4494 15.1167 24.8895C16.8804 26.267 19.1794 27.3315 22.0137 28.0829L29.95 29.9613C35.9967 31.4641 40.6577 33.9687 43.933 37.4751C47.2713 40.9816 48.9404 44.8011 48.9404 48.9337C48.9404 52.628 48.0271 55.9153 46.2005 58.7956C44.4369 61.6133 41.7915 63.8674 38.2642 65.558C34.737 67.186 30.4224 68 25.3205 68Z" fill="white"/>
<path d="M71.1741 66.8729V6.48066L72.0244 1.12707H81V66.8729H71.1741ZM56.6243 19.7238V10.6133C58.073 10.6759 59.7106 10.2376 61.5372 9.29834C63.3638 8.35911 65.2219 7.13812 67.1115 5.63536C69.0011 4.13259 70.6387 2.59852 72.0244 1.03315L78.3546 7.60773C76.213 9.92449 73.9455 12.0221 71.552 13.9006C69.1586 15.779 66.7336 17.2505 64.2771 18.3149C61.8206 19.3794 59.2697 19.849 56.6243 19.7238Z" fill="white"/>
</svg>
