<svg width="99" height="68" viewBox="0 0 99 68" fill="none" xmlns="http://www.w3.org/2000/svg">
<path d="M25.0224 68C21.599 68 18.4556 67.593 15.5923 66.779C12.7913 65.965 10.3015 64.8692 8.12296 63.4917C6.00663 62.0516 4.26377 60.4549 2.89439 58.7017C1.525 56.8858 0.560204 55.0074 0 53.0663L9.7102 49.9669C10.6439 52.4088 12.3556 54.5378 14.8454 56.3536C17.3352 58.1694 20.3852 59.1087 23.9954 59.1713C28.2903 59.1713 31.6826 58.2947 34.1724 56.5414C36.7245 54.7256 38.0005 52.3775 38.0005 49.4972C38.0005 46.8674 36.9112 44.7072 34.7326 43.0166C32.6163 41.2634 29.7531 39.9484 26.1428 39.0718L18.3934 37.0994C15.3434 36.2854 12.6046 35.0958 10.177 33.5304C7.74949 31.965 5.8199 30.0239 4.38826 27.7072C2.95663 25.3278 2.24082 22.5414 2.24082 19.3481C2.24082 13.2744 4.20153 8.54696 8.12296 5.16575C12.0444 1.72192 17.7087 0 25.1158 0C29.3485 0 33.0209 0.657458 36.1332 1.97237C39.2454 3.28729 41.7974 5.07182 43.7893 7.32597C45.8434 9.51749 47.3372 11.9595 48.2709 14.6519L38.6541 17.8453C37.6582 15.2155 35.9464 13.0552 33.5189 11.3646C31.0913 9.67403 28.0724 8.82873 24.4622 8.82873C20.7898 8.82873 17.8643 9.73665 15.6857 11.5525C13.5071 13.3057 12.4179 15.7477 12.4179 18.8785C12.4179 21.4457 13.2582 23.4494 14.9388 24.8895C16.6816 26.267 18.9536 27.3315 21.7546 28.0829L29.5974 29.9613C35.5729 31.4641 40.1791 33.9687 43.4158 37.4751C46.7148 40.9816 48.3643 44.8011 48.3643 48.9337C48.3643 52.628 47.4617 55.9153 45.6566 58.7956C43.9138 61.6133 41.2995 63.8674 37.8138 65.558C34.3281 67.186 30.0643 68 25.0224 68Z" fill="white"/>
<path d="M56.051 66.8729V58.9834C56.051 57.0424 56.5179 55.0387 57.4515 52.9724C58.3852 50.8435 59.7235 48.7459 61.4663 46.6796C63.2714 44.5506 65.4189 42.5783 67.9087 40.7624L79.8597 31.9337C81.2913 30.8692 82.6296 29.6796 83.8745 28.3646C85.1194 26.9871 86.0842 25.547 86.7689 24.0442C87.5158 22.5414 87.8893 21.07 87.8893 19.6298C87.8893 17.6888 87.4224 15.9355 86.4888 14.3702C85.5551 12.8048 84.2168 11.5525 82.474 10.6133C80.7311 9.67403 78.6459 9.20442 76.2184 9.20442C73.9776 9.20442 71.9857 9.64272 70.2429 10.5193C68.5622 11.3959 67.1617 12.5543 66.0413 13.9945C64.9209 15.4346 64.1429 16.9687 63.7072 18.5967L53.3434 16.7182C54.0281 13.7753 55.3663 11.0516 57.3582 8.54696C59.4123 5.97974 61.9954 3.91344 65.1077 2.34806C68.2822 0.782688 71.8612 0 75.8449 0C80.451 0 84.4036 0.845302 87.7026 2.53591C91.0638 4.22652 93.6469 6.54328 95.452 9.48619C97.2571 12.4291 98.1597 15.779 98.1597 19.5359C98.1597 23.2928 97.1327 26.7366 95.0786 29.8674C93.0867 32.9355 90.2546 35.8785 86.5821 38.6961L75.4714 46.9613C73.2929 48.6519 71.55 50.4052 70.2429 52.221C68.9357 53.9742 68.0643 55.884 67.6286 57.9503H99V66.8729H56.051Z" fill="white"/>
</svg>
