<svg width="99" height="68" viewBox="0 0 99 68" fill="none" xmlns="http://www.w3.org/2000/svg">
<path d="M25.2366 68C21.7839 68 18.6136 67.593 15.7258 66.779C12.9008 65.965 10.3897 64.8692 8.19249 63.4917C6.05805 62.0516 4.30027 60.4549 2.91916 58.7017C1.53805 56.8858 0.565 55.0074 0 53.0663L9.79333 49.9669C10.735 52.4088 12.4614 54.5378 14.9725 56.3536C17.4836 58.1694 20.5597 59.1087 24.2008 59.1713C28.5325 59.1713 31.9539 58.2947 34.465 56.5414C37.0389 54.7256 38.3258 52.3775 38.3258 49.4972C38.3258 46.8674 37.2272 44.7072 35.03 43.0166C32.8955 41.2634 30.0078 39.9484 26.3666 39.0718L18.5508 37.0994C15.4747 36.2854 12.7125 35.0958 10.2642 33.5304C7.81583 31.965 5.86972 30.0239 4.42583 27.7072C2.98194 25.3278 2.26 22.5414 2.26 19.3481C2.26 13.2744 4.2375 8.54696 8.19249 5.16575C12.1475 1.72192 17.8603 0 25.3308 0C29.5997 0 33.3036 0.657458 36.4425 1.97237C39.5814 3.28729 42.1552 5.07182 44.1641 7.32597C46.2358 9.51749 47.7425 11.9595 48.6841 14.6519L38.985 17.8453C37.9805 15.2155 36.2541 13.0552 33.8058 11.3646C31.3575 9.67403 28.3128 8.82873 24.6716 8.82873C20.9678 8.82873 18.0172 9.73665 15.82 11.5525C13.6228 13.3057 12.5242 15.7477 12.5242 18.8785C12.5242 21.4457 13.3717 23.4494 15.0667 24.8895C16.8244 26.267 19.1158 27.3315 21.9408 28.0829L29.8508 29.9613C35.8775 31.4641 40.523 33.9687 43.7875 37.4751C47.1147 40.9816 48.7783 44.8011 48.7783 48.9337C48.7783 52.628 47.868 55.9153 46.0475 58.7956C44.2897 61.6133 41.653 63.8674 38.1375 65.558C34.6219 67.186 30.3216 68 25.2366 68Z" fill="white"/>
<path d="M77.1533 68C73.6378 68 70.4675 67.4991 67.6425 66.4972C64.8175 65.4328 62.432 63.9926 60.4859 62.1768C58.5397 60.2983 57.0645 58.232 56.06 55.9779L65.0059 52.3149C65.5709 53.1915 66.2928 54.1621 67.1717 55.2265C68.1133 56.291 69.3375 57.2302 70.8442 58.0442C72.3508 58.7956 74.2342 59.1713 76.4942 59.1713C80.2608 59.1713 83.2428 58.1068 85.44 55.9779C87.7 53.7864 88.83 51.0626 88.83 47.8066C88.83 45.4273 88.2022 43.3923 86.9467 41.7017C85.6911 39.9484 83.7764 38.6335 81.2025 37.7569C78.6914 36.8177 75.5525 36.3481 71.7858 36.3481H69.1492V29.0221H71.5975C75.4269 29.0221 79.0053 29.4604 82.3325 30.337C85.6597 31.2136 88.5789 32.5285 91.09 34.2818C93.6011 35.9724 95.5472 38.0387 96.9283 40.4807C98.3094 42.9227 99 45.709 99 48.8398C99 52.7219 97.9956 56.1344 95.9867 59.0774C94.0406 61.9576 91.4039 64.1805 88.0767 65.7459C84.7494 67.2486 81.1083 68 77.1533 68ZM69.1492 34.9392V27.895H71.7858C76.8081 27.895 80.6689 27.0497 83.3683 25.3591C86.0678 23.6685 87.4175 21.2891 87.4175 18.221C87.4175 16.5304 86.9467 14.965 86.005 13.5249C85.1261 12.0847 83.8392 10.9576 82.1442 10.1436C80.5119 9.26703 78.5972 8.82873 76.4 8.82873C74.9561 8.82873 73.5436 9.04788 72.1625 9.48619C70.7814 9.92449 69.4945 10.6133 68.3017 11.5525C67.1717 12.4917 66.1986 13.7127 65.3825 15.2155L56.7192 11.6464C57.7864 9.20442 59.2931 7.13812 61.2392 5.44751C63.2481 3.69429 65.5708 2.34806 68.2075 1.40884C70.907 0.469613 73.7633 0 76.7767 0C80.7317 0 84.2472 0.751381 87.3233 2.25414C90.4622 3.7569 92.9419 5.85451 94.7625 8.54696C96.583 11.1768 97.4933 14.151 97.4933 17.4696C97.4933 20.3499 96.8028 22.8858 95.4217 25.0773C94.0405 27.2063 92.1572 29.0221 89.7717 30.5249C87.3861 32.0276 84.6239 33.1547 81.485 33.9061C78.4089 34.5948 75.0817 34.9392 71.5033 34.9392H69.1492Z" fill="white"/>
</svg>
