<svg width="64" height="49" viewBox="0 0 64 49" fill="none" xmlns="http://www.w3.org/2000/svg">
<g clip-path="url(#clip0_4006_176)">
<path d="M63.7001 2.5559C63.7001 3.02165 63.5157 3.46832 63.1875 3.79765C62.8593 4.12698 62.4142 4.312 61.9501 4.312C61.4859 4.312 61.0408 4.12698 60.7126 3.79765C60.3844 3.46832 60.2001 3.02165 60.2001 2.5559C60.2001 2.09016 60.3844 1.64349 60.7126 1.31415C61.0408 0.984822 61.4859 0.799805 61.9501 0.799805C62.4142 0.799805 62.8593 0.984822 63.1875 1.31415C63.5157 1.64349 63.7001 2.09016 63.7001 2.5559Z" fill="white"/>
<path fill-rule="evenodd" clip-rule="evenodd" d="M16.7417 48.5588C7.88207 48.5588 0.700073 41.3518 0.700073 32.4612V1.9707H6.53341V32.4612C6.53341 35.1781 7.60892 37.7837 9.52336 39.7048C11.4378 41.6259 14.0343 42.7051 16.7417 42.7051C22.4502 42.7051 26.9501 38.2903 26.9501 32.7024H32.7834V41.4829C32.7834 41.871 32.937 42.2432 33.2105 42.5177C33.484 42.7921 33.855 42.9463 34.2417 42.9463C34.6285 42.9463 34.9994 42.7921 35.2729 42.5177C35.5464 42.2432 35.7001 41.871 35.7001 41.4829V31.0927C34.6405 31.3097 33.5462 31.2875 32.4962 31.0277C31.4463 30.768 30.4671 30.2771 29.6295 29.5907C28.7919 28.9043 28.117 28.0396 27.6536 27.0591C27.1902 26.0787 26.9499 25.0071 26.9501 23.9219V9.28778C26.9501 7.34717 27.7183 5.48604 29.0858 4.11382C30.4532 2.74161 32.3079 1.9707 34.2417 1.9707C36.1756 1.9707 38.0303 2.74161 39.3977 4.11382C40.7652 5.48604 41.5334 7.34717 41.5334 9.28778V41.4829C41.5334 41.871 41.687 42.2432 41.9605 42.5177C42.234 42.7921 42.605 42.9463 42.9917 42.9463C43.3785 42.9463 43.7494 42.7921 44.0229 42.5177C44.2964 42.2432 44.4501 41.871 44.4501 41.4829V9.28778C44.4501 7.34717 45.2183 5.48604 46.5858 4.11382C47.9532 2.74161 49.8079 1.9707 51.7417 1.9707C53.6756 1.9707 55.5303 2.74161 56.8977 4.11382C58.2652 5.48604 59.0334 7.34717 59.0334 9.28778V41.4829C59.0334 42.8418 58.6563 44.1738 57.9444 45.3297C57.2325 46.4856 56.2139 47.4198 55.0027 48.0275C53.7915 48.6352 52.4356 48.8924 51.0869 48.7704C49.7382 48.6484 48.4501 48.1519 47.3667 47.3366C46.1057 48.2886 44.5698 48.8023 42.9917 48.8C41.4137 48.8023 39.8778 48.2886 38.6167 47.3366C37.7391 47.997 36.7244 48.4502 35.648 48.6625C34.5717 48.8749 33.4615 48.8408 32.4001 48.5629C31.3387 48.2849 30.3534 47.7703 29.5177 47.0573C28.6819 46.3443 28.0172 45.4513 27.5731 44.4448C24.7077 47.0169 20.8962 48.5588 16.7417 48.5588ZM51.7417 42.9463C50.9367 42.9463 50.2834 42.2907 50.2834 41.4829V9.28778C50.2834 8.89965 50.437 8.52743 50.7105 8.25299C50.984 7.97854 51.355 7.82436 51.7417 7.82436C52.1285 7.82436 52.4994 7.97854 52.7729 8.25299C53.0464 8.52743 53.2001 8.89965 53.2001 9.28778V41.4829C53.2001 42.2907 52.5467 42.9463 51.7417 42.9463ZM35.7001 23.9219C35.7001 24.31 35.5464 24.6823 35.2729 24.9567C34.9994 25.2312 34.6285 25.3853 34.2417 25.3853C33.855 25.3853 33.484 25.2312 33.2105 24.9567C32.937 24.6823 32.7834 24.31 32.7834 23.9219V9.28778C32.7834 8.89965 32.937 8.52743 33.2105 8.25299C33.484 7.97854 33.855 7.82436 34.2417 7.82436C34.6285 7.82436 34.9994 7.97854 35.2729 8.25299C35.5464 8.52743 35.7001 8.89965 35.7001 9.28778V23.9219Z" fill="white"/>
<path fill-rule="evenodd" clip-rule="evenodd" d="M9.45007 32.7024C9.45007 34.643 10.2183 36.5041 11.5858 37.8764C12.9532 39.2486 14.8079 40.0195 16.7417 40.0195C18.6756 40.0195 20.5303 39.2486 21.8977 37.8764C23.2652 36.5041 24.0334 34.643 24.0334 32.7024V9.28778C24.0334 7.34717 23.2652 5.48604 21.8977 4.11382C20.5303 2.74161 18.6756 1.9707 16.7417 1.9707C14.8079 1.9707 12.9532 2.74161 11.5858 4.11382C10.2183 5.48604 9.45007 7.34717 9.45007 9.28778V32.7024ZM16.7417 34.1658C15.9367 34.1658 15.2834 33.5102 15.2834 32.7024V9.28778C15.2834 8.89966 15.4371 8.52743 15.7105 8.25299C15.984 7.97854 16.355 7.82436 16.7417 7.82436C17.1285 7.82436 17.4994 7.97854 17.7729 8.25299C18.0464 8.52743 18.2001 8.89966 18.2001 9.28778V32.7024C18.2001 33.5102 17.5467 34.1658 16.7417 34.1658Z" fill="white"/>
</g>
<defs>
<clipPath id="clip0_4006_176">
<rect width="63" height="48" fill="white" transform="translate(0.700073 0.799805)"/>
</clipPath>
</defs>
</svg>
