<svg width="77" height="49" viewBox="0 0 77 49" fill="none" xmlns="http://www.w3.org/2000/svg">
<g clip-path="url(#clip0_4006_12)">
<path d="M76.6001 35.8203L46.5825 6.70649C45.7185 5.86858 44.5597 5.39961 43.3531 5.39961C39.2012 5.39961 37.1514 10.4191 40.1272 13.2992L72.3431 44.4795C73.8951 45.9816 72.826 48.5996 70.6606 48.5996H12.2496C10.9699 48.5996 9.7425 48.0939 8.83757 47.1937L2.01342 40.4055C1.10848 39.5053 0.600098 38.2844 0.600098 37.0113V13.3777L30.6177 42.4927C31.4817 43.3307 32.6405 43.7996 33.8472 43.7996C37.999 43.7996 40.0488 38.7801 37.0731 35.9L4.85709 4.71975C3.30506 3.2176 4.37415 0.599609 6.53961 0.599609H64.9505C66.2303 0.599609 67.4577 1.10532 68.3627 2.00549L75.1867 8.79373C76.0917 9.69389 76.6001 10.9148 76.6001 12.1878V35.8203Z" fill="white"/>
</g>
<defs>
<clipPath id="clip0_4006_12">
<rect width="76" height="48" fill="white" transform="translate(0.600098 0.599609)"/>
</clipPath>
</defs>
</svg>
