<svg width="77" height="49" viewBox="0 0 77 49" fill="none" xmlns="http://www.w3.org/2000/svg">
<g clip-path="url(#clip0_2065_201)">
<path d="M76.5996 35.8208L46.582 6.70698C45.718 5.86907 44.5592 5.4001 43.3526 5.4001C39.2007 5.4001 37.1509 10.4196 40.1267 13.2997L72.3426 44.48C73.8946 45.9821 72.8255 48.6001 70.6601 48.6001H12.2491C10.9694 48.6001 9.74201 48.0944 8.83708 47.1942L2.01293 40.406C1.108 39.5058 0.599609 38.2849 0.599609 37.0118V13.3782L30.6172 42.4932C31.4812 43.3311 32.64 43.8001 33.8467 43.8001C37.9985 43.8001 40.0483 38.7806 37.0726 35.9005L4.8566 4.72024C3.30457 3.21809 4.37366 0.600098 6.53912 0.600098H64.95C66.2298 0.600098 67.4572 1.10581 68.3622 2.00598L75.1863 8.79421C76.0913 9.69438 76.5996 10.9153 76.5996 12.1883V35.8208Z" fill="black"/>
</g>
<defs>
<clipPath id="clip0_2065_201">
<rect width="76" height="48" fill="white" transform="translate(0.599609 0.600098)"/>
</clipPath>
</defs>
</svg>
