<svg width="138" height="25" viewBox="0 0 138 25" fill="none" xmlns="http://www.w3.org/2000/svg">
<g opacity="0.64" clip-path="url(#clip0_4006_171)">
<path d="M53.1438 8.25879C53.1438 12.719 53.1438 14.4797 47.2269 14.4797C53.1438 14.4797 53.1438 16.2404 53.1438 20.7006C53.1438 16.2669 53.1438 14.4797 58.968 14.4797C53.1438 14.4797 53.1438 12.6925 53.1438 8.25879Z" fill="white"/>
<path fill-rule="evenodd" clip-rule="evenodd" d="M23.9712 24.4303C21.9249 24.4303 20.1259 24.021 18.5741 23.2025C17.0393 22.367 15.8372 21.2074 14.9676 19.7239C14.8275 19.4773 14.6989 19.2241 14.5818 18.9642L13.8946 24.0721H0.261353V23.8164H0.286955C0.900813 23.8164 1.39534 23.6544 1.77047 23.3304C2.14561 23.0064 2.33318 22.5375 2.33318 21.9236V7.19042C2.33318 6.57661 2.14561 6.08203 1.77047 5.70689C1.39534 5.33176 0.900813 5.14419 0.286955 5.14419H0.261353V4.88838H8.42089V5.14419H8.31857C7.70464 5.14419 7.21012 5.33176 6.83502 5.70689C6.45986 6.08203 6.27231 6.57661 6.27231 7.19042V22.0259C6.27231 22.5716 6.40021 22.9979 6.65595 23.3048C6.92879 23.5947 7.39773 23.7396 8.06276 23.7396H8.5999C10.1176 23.7396 11.3965 23.2708 12.4367 22.3328C13.4512 21.4181 14.1008 20.1384 14.3853 18.4938C13.9208 17.2906 13.6887 15.9528 13.6887 14.4803C13.6887 12.4852 14.1149 10.7459 14.9676 9.26226C15.8372 7.76167 17.0393 6.6021 18.5741 5.78359C20.1259 4.94805 21.9249 4.53027 23.9712 4.53027C25.9682 4.53027 27.7215 4.92819 29.2312 5.72392C30.8416 4.92819 32.7119 4.53027 34.842 4.53027C35.5071 4.53027 36.0527 4.55588 36.479 4.60697C36.9224 4.64115 37.3146 4.68378 37.6556 4.73488C37.9967 4.78608 38.3718 4.83717 38.7811 4.88838C39.2074 4.92245 39.736 4.93948 40.3669 4.93948L41.1343 10.0553H40.8785C40.5715 8.43525 39.881 7.16484 38.8067 6.244C37.7494 5.32319 36.4278 4.86278 34.842 4.86278C33.87 4.86278 32.9833 5.09298 32.1818 5.55339C31.6539 5.85671 31.1777 6.2377 30.7534 6.69648C30.5559 6.90985 30.3696 7.14019 30.1946 7.38733C30.1748 7.4152 30.1552 7.44329 30.1357 7.47168C29.9712 7.7159 29.8169 7.97475 29.6728 8.24823C29.4831 8.60805 29.3111 8.99363 29.1568 9.40392C29.093 9.57326 29.0322 9.74706 28.9745 9.92519C28.915 10.1089 28.8586 10.2972 28.8055 10.4901C28.4985 11.6666 28.3451 12.9712 28.3451 14.4035C28.3451 15.7239 28.4653 16.938 28.7059 18.0462L28.2994 19.2535C28.0867 19.8853 27.832 20.4381 27.5395 20.9169C27.3594 21.201 27.1688 21.4561 26.9683 21.6838L26.9492 21.7057C26.316 21.129 25.7752 20.4684 25.3268 19.7239C24.423 18.2232 23.9712 16.4583 23.9712 14.4291C23.9712 12.451 24.423 10.7203 25.3268 9.23674C25.9439 8.2237 26.728 7.36585 27.679 6.66294C27.2945 6.21676 26.8686 5.84694 26.4011 5.55339C25.6679 5.09298 24.8578 4.86278 23.9712 4.86278C23.0844 4.86278 22.2745 5.09298 21.5412 5.55339C20.8079 6.0138 20.1856 6.66177 19.674 7.49744C19.1454 8.33299 18.7361 9.34749 18.4462 10.5412C18.1734 11.7178 18.0369 13.0223 18.0369 14.4547C18.0369 15.8871 18.1734 17.1916 18.4462 18.3682C18.7361 19.5448 19.1454 20.5509 19.674 21.3864C20.1856 22.2221 20.8079 22.87 21.5412 23.3304C22.2745 23.7909 23.0844 24.021 23.9712 24.021C24.8578 24.021 25.6679 23.7909 26.4011 23.3304C27.1343 22.87 27.7653 22.2221 28.2939 21.3864C28.8055 20.5509 29.1976 19.5448 29.4705 18.3682C29.7604 17.1916 29.9053 15.8871 29.9053 14.4547C29.9053 13.1596 29.7869 11.969 29.5498 10.8831L29.9887 9.71627C30.2385 9.05211 30.5337 8.47237 30.8705 7.97159C30.9605 7.84087 31.0534 7.71613 31.1493 7.59713C31.2326 7.49364 31.3181 7.39459 31.4059 7.29976L31.4251 7.28361C32.0189 7.85955 32.5268 8.51902 32.9492 9.26226C33.8189 10.7459 34.2537 12.4852 34.2537 14.4803C34.2537 16.4754 33.8189 18.2232 32.9492 19.7239C32.3711 20.7296 31.6324 21.5866 30.733 22.2946C31.1106 22.7078 31.5253 23.0531 31.9772 23.3304C32.7446 23.7909 33.5972 24.021 34.5351 24.021C35.2342 24.021 35.8993 23.9017 36.5302 23.663C37.1782 23.4242 37.6727 23.1258 38.0137 22.7677V16.2453C38.0137 15.6313 37.8262 15.1368 37.451 14.7616C37.0758 14.3865 36.5813 14.1989 35.9674 14.1989H35.8908V13.9431H42.8718C42.9422 12.1714 43.3649 10.6111 44.1402 9.26226C45.0098 7.76167 46.2121 6.6021 47.7467 5.78359C49.2985 4.94805 51.0975 4.53027 53.1438 4.53027C55.19 4.53027 56.9806 4.94805 58.5152 5.78359C60.0668 6.6021 61.2692 7.76167 62.1221 9.26226C62.6823 10.2181 63.0622 11.2801 63.2612 12.4483V7.19042C63.2612 6.57661 63.0739 6.08203 62.6986 5.70689C62.3234 5.33176 61.8288 5.14419 61.2147 5.14419H61.1896V4.88838H76.5794C77.8924 4.90541 79.035 5.13562 80.0067 5.57899C80.996 6.00533 81.7628 6.6021 82.309 7.36954C82.5144 7.64952 82.6819 7.94782 82.8124 8.26427C83.022 7.27646 83.5312 6.4666 84.3396 5.8348C85.4483 4.96508 86.9064 4.53027 88.7135 4.53027C89.1572 4.53027 89.5154 4.54731 89.7882 4.58148C89.9035 4.59504 90.0159 4.6099 90.126 4.62617C90.2922 4.6508 90.4526 4.67846 90.6065 4.70927C90.8793 4.76048 91.1948 4.80311 91.5531 4.83717C91.9113 4.87135 92.3714 4.88838 92.934 4.88838H101.014V5.14419H100.938C100.324 5.14419 99.8296 5.33176 99.4544 5.70689C99.0791 6.08203 98.8912 6.57661 98.8912 7.19042V17.345C98.8912 19.1526 99.3519 20.585 100.273 21.6422C101.21 22.6825 102.473 23.2025 104.058 23.2025C105.661 23.2025 106.923 22.6739 107.844 21.6167C108.765 20.5424 109.225 19.1185 109.225 17.345V7.57412C109.225 6.84089 109.003 6.26114 108.56 5.8348C108.117 5.40845 107.528 5.17825 106.795 5.14419V4.88838H115.237L121.478 19.3402L127.719 4.88838H132.502V5.14419C131.957 5.14419 131.496 5.30615 131.121 5.63019C130.746 5.95413 130.575 6.3975 130.609 6.96019L131.914 22.1026C131.999 22.6825 132.272 23.1173 132.732 23.4072C133.21 23.697 133.679 23.842 134.139 23.842V24.0721H126.21V23.842C126.5 23.842 126.798 23.7738 127.105 23.6373C127.412 23.501 127.66 23.3048 127.847 23.049C128.052 22.7932 128.128 22.4949 128.077 22.1538L126.824 8.03451L119.713 24.4303L112.551 8.00893L111.349 21.4632C111.28 22.1452 111.477 22.6995 111.937 23.1258C112.397 23.5521 112.96 23.7823 113.625 23.8164V24.0721H108.51V23.8164C109.157 23.7823 109.704 23.5436 110.147 23.1002C110.59 22.6568 110.846 22.1026 110.914 21.4376L112.193 7.29274C111.869 6.6277 111.46 6.10764 110.965 5.7325C110.881 5.66317 110.792 5.60004 110.699 5.54297C110.565 5.62716 110.44 5.72436 110.325 5.8348C109.881 6.26114 109.66 6.84089 109.66 7.57412V17.345C109.66 18.7775 109.362 20.0223 108.765 21.0795C108.185 22.1368 107.341 22.9637 106.232 23.5606C105.141 24.1404 103.836 24.4303 102.319 24.4303C100.818 24.4303 99.5141 24.1404 98.4054 23.5606C97.2973 22.9808 96.4356 22.1623 95.8222 21.1051C95.2251 20.0308 94.9265 18.7775 94.9265 17.345V7.19042C94.9265 6.57661 94.7392 6.08203 94.364 5.70689C94.0023 5.34531 93.5299 5.15807 92.9468 5.14495L93.1898 10.0553H92.934C92.6957 8.46932 92.1841 7.216 91.3997 6.2952C90.6147 5.37439 89.6688 4.91398 88.5601 4.91398C87.7757 4.91398 87.1447 5.14419 86.6676 5.60459C86.2069 6.065 85.9769 6.67892 85.9769 7.44622C85.9769 8.1112 86.19 8.75071 86.6161 9.36464C87.0598 9.96142 87.8184 10.6606 88.8926 11.4621L89.9925 12.2806C91.1182 13.0991 92.005 13.8578 92.653 14.557C93.318 15.2391 93.795 15.9042 94.0854 16.5521C94.3751 17.2001 94.5203 17.8907 94.5203 18.624C94.5203 19.7494 94.2387 20.747 93.6756 21.6166C93.1131 22.4863 92.3287 23.1684 91.3224 23.663C90.3338 24.1404 89.1654 24.3962 87.8184 24.4303C87.3753 24.4303 87.0083 24.4132 86.7185 24.3792C86.4458 24.345 86.173 24.3024 85.9002 24.2513C85.6274 24.2 85.2949 24.1574 84.9027 24.1234C84.5106 24.0893 83.9732 24.0721 83.2912 24.0721L82.3956 17.4217H82.7029C82.9587 19.5192 83.5383 21.1392 84.4421 22.2817C85.3628 23.4072 86.5394 23.9699 87.9718 23.9699C89.029 23.9699 89.8901 23.6715 90.5556 23.0746C91.2206 22.4778 91.5531 21.7019 91.5531 20.747C91.5531 20.3377 91.4764 19.9455 91.3224 19.5704C91.1861 19.1953 90.9478 18.7945 90.6065 18.3682C90.2653 17.9419 89.8134 17.4815 89.2508 16.9869C88.6883 16.4754 87.9888 15.9042 87.1535 15.2732L86.1045 14.4803C84.8261 13.5083 83.9392 12.6386 83.4446 11.8713C83.2883 11.629 83.1566 11.3798 83.0501 11.1237C82.9219 11.7425 82.6748 12.3072 82.309 12.8177C81.7628 13.585 80.9785 14.1905 79.9558 14.6337C78.9496 15.0601 77.756 15.2732 76.3746 15.2732H74.0214V21.7701C74.0214 22.384 74.2087 22.8785 74.5839 23.2536C74.9591 23.6289 75.4538 23.8164 76.0678 23.8164H76.1187V24.0721H61.1896V23.8164H61.2147C61.8288 23.8164 62.3234 23.6289 62.6986 23.2536C63.0739 22.8785 63.2612 22.384 63.2612 21.7701V16.5156C63.0622 17.6877 62.6823 18.7571 62.1221 19.7239C61.2692 21.2074 60.0668 22.367 58.5152 23.2025C56.9806 24.021 55.19 24.4303 53.1438 24.4303C51.0975 24.4303 49.2985 24.021 47.7467 23.2025C46.2121 22.367 45.0098 21.2074 44.1402 19.7239C43.2911 18.2294 42.8648 16.4899 42.8612 14.5049C42.7463 14.5776 42.6396 14.6631 42.5411 14.7616C42.1659 15.1368 41.9784 15.6313 41.9784 16.2453V22.7677C41.6374 23.1087 41.0917 23.4072 40.3414 23.663C39.6081 23.9017 38.7726 24.0893 37.8346 24.2257C36.9139 24.3621 35.993 24.4303 35.0722 24.4303C32.8463 24.4303 30.9079 24.0361 29.2569 23.2476C27.7414 24.0361 25.9794 24.4303 23.9712 24.4303ZM55.5737 23.3304C54.8405 23.7909 54.0305 24.021 53.1438 24.021C52.2571 24.021 51.4471 23.7909 50.7138 23.3304C49.9806 22.87 49.3582 22.2221 48.8466 21.3864C48.318 20.5509 47.9087 19.5448 47.6188 18.3682C47.346 17.1916 47.2096 15.8871 47.2096 14.4547C47.2096 13.0223 47.346 11.7178 47.6188 10.5412C47.9087 9.34749 48.318 8.33299 48.8466 7.49744C49.3582 6.66177 49.9806 6.0138 50.7138 5.55339C51.4471 5.09298 52.2571 4.86278 53.1438 4.86278C54.0305 4.86278 54.8405 5.09298 55.5737 5.55339C56.307 6.0138 56.9379 6.66177 57.4665 7.49744C57.9781 8.33299 58.3703 9.34749 58.6431 10.5412C58.933 11.7178 59.0782 13.0223 59.0782 14.4547C59.0782 15.8871 58.933 17.1916 58.6431 18.3682C58.3703 19.5448 57.9781 20.5509 57.4665 21.3864C56.9379 22.2221 56.307 22.87 55.5737 23.3304ZM69.5193 23.2536C69.2799 23.4934 68.9913 23.6565 68.6542 23.7431C68.317 23.6565 68.0284 23.4934 67.7884 23.2536C67.4138 22.8785 67.2259 22.384 67.2259 21.7701V7.19042C67.2259 6.57661 67.4138 6.08203 67.7884 5.70689C68.0284 5.46715 68.317 5.30398 68.6542 5.21752C68.9913 5.30398 69.2799 5.46715 69.5193 5.70689C69.8945 6.08203 70.0824 6.57661 70.0824 7.19042V21.7701C70.0824 22.384 69.8945 22.8785 69.5193 23.2536ZM75.5305 14.9407H74.0214V5.22088H75.5047C76.2382 5.22088 76.8774 5.43405 77.4235 5.8604C77.9691 6.2696 78.387 6.84089 78.6768 7.57412C78.9835 8.30735 79.1369 9.1429 79.1369 10.0808C79.1369 11.0187 78.9835 11.8543 78.6768 12.5875C78.387 13.3207 77.9691 13.9005 77.4235 14.3268C76.8949 14.7361 76.2639 14.9407 75.5305 14.9407Z" fill="white"/>
<path d="M137.508 2.79303C137.508 3.77466 136.712 4.57042 135.731 4.57042C134.749 4.57042 133.953 3.77466 133.953 2.79303C133.953 1.8114 134.749 1.01562 135.731 1.01562C136.712 1.01562 137.508 1.8114 137.508 2.79303Z" fill="white"/>
</g>
<defs>
<clipPath id="clip0_4006_171">
<rect width="137.561" height="24" fill="white" transform="translate(0.219482 0.799805)"/>
</clipPath>
</defs>
</svg>
