<svg width="143" height="37" viewBox="0 0 143 37" fill="none" xmlns="http://www.w3.org/2000/svg">
<path d="M16.5721 7.64111V3.14111H2.37207V34.0588H16.5721V29.5588C13.6632 29.5588 10.8734 28.4041 8.81658 26.3489C6.7597 24.2938 5.60416 21.5064 5.60416 18.5999C5.60416 15.6935 6.7597 12.906 8.81658 10.8509C10.8734 8.79571 13.6632 7.64111 16.5721 7.64111Z" fill="black"/>
<path d="M16.5713 7.64111V29.5588C19.4802 29.5588 22.2699 28.4041 24.3268 26.3489C26.3837 24.2938 27.5392 21.5064 27.5392 18.5999C27.5392 15.6935 26.3837 12.906 24.3268 10.8509C22.2699 8.79571 19.4802 7.64111 16.5713 7.64111Z" fill="black"/>
<path d="M35.5088 10.394H38.6879V25.694H35.5088V10.394Z" fill="black"/>
<path d="M40.4683 20.4532C40.4683 19.3525 40.7954 18.2765 41.4081 17.3617C42.0208 16.4469 42.8916 15.7344 43.9101 15.3146C44.9286 14.8948 46.0488 14.7866 47.1288 15.0037C48.2089 15.2207 49.2001 15.7533 49.9769 16.5339C50.7536 17.3146 51.281 18.308 51.4921 19.3884C51.7031 20.4688 51.5885 21.5874 51.1625 22.6026C50.7365 23.6177 50.0185 24.4838 49.0994 25.0907C48.1804 25.6977 47.1016 26.0183 45.9999 26.0121C45.2693 26.0178 44.5447 25.8777 43.869 25.5999C43.1932 25.3221 42.5796 24.9124 42.0644 24.3947C41.5492 23.8769 41.1427 23.2616 40.8685 22.5848C40.5945 21.908 40.4584 21.1833 40.4683 20.4532ZM48.4372 20.4532C48.4247 19.9787 48.2724 19.5183 47.9995 19.1298C47.7265 18.7412 47.345 18.4417 46.9025 18.2687C46.46 18.0957 45.9764 18.0568 45.512 18.1571C45.0476 18.2572 44.623 18.492 44.2915 18.8321C43.9599 19.1721 43.736 19.6022 43.6478 20.0687C43.5596 20.5352 43.611 21.0173 43.7956 21.4547C43.9802 21.8921 44.2898 22.2655 44.6857 22.528C45.0815 22.7906 45.5459 22.9307 46.0211 22.9309C46.3446 22.9372 46.6659 22.8768 46.965 22.7533C47.264 22.63 47.5344 22.4463 47.7591 22.2137C47.9839 21.9812 48.1582 21.7048 48.2713 21.4019C48.3843 21.099 48.4336 20.7761 48.416 20.4532H48.4372Z" fill="black"/>
<path d="M64.1101 15.2117V25.1752C64.1101 28.6905 61.3549 30.1835 58.5679 30.1835C57.5848 30.2641 56.5987 30.0689 55.7208 29.62C54.8427 29.171 54.1075 28.4861 53.5979 27.6423L56.2789 26.0964C56.4961 26.5341 56.8417 26.8952 57.2696 27.1316C57.6975 27.3681 58.1873 27.4687 58.6738 27.42C58.9838 27.4581 59.2983 27.4274 59.5949 27.33C59.8916 27.2324 60.163 27.0708 60.3898 26.8562C60.6167 26.6417 60.7932 26.3799 60.9069 26.0892C61.0207 25.7987 61.0687 25.4865 61.0476 25.1752V24.2117C60.6776 24.6599 60.2082 25.0157 59.6766 25.251C59.145 25.4862 58.5659 25.5944 57.985 25.567C56.5798 25.567 55.2321 25.0092 54.2385 24.0164C53.2448 23.0236 52.6865 21.677 52.6865 20.2729C52.6865 18.8688 53.2448 17.5223 54.2385 16.5294C55.2321 15.5366 56.5798 14.9788 57.985 14.9788C58.5659 14.9514 59.145 15.0596 59.6766 15.2948C60.2082 15.5301 60.6776 15.8859 61.0476 16.3341V15.2752L64.1101 15.2117ZM61.0476 20.2411C61.0687 19.7346 60.9377 19.2332 60.6714 18.8017C60.4051 18.3701 60.0157 18.028 59.5532 17.8193C59.0907 17.6106 58.5765 17.5449 58.0763 17.6307C57.5762 17.7165 57.1131 17.9497 56.7468 18.3005C56.3804 18.6513 56.1275 19.1036 56.0205 19.5993C55.9134 20.0949 55.9572 20.6111 56.1461 21.0816C56.3352 21.5522 56.6607 21.9555 57.0809 22.2397C57.5012 22.5238 57.9969 22.676 58.5043 22.6764C58.8354 22.7002 59.1679 22.6544 59.4801 22.542C59.7924 22.4294 60.0776 22.2527 60.3172 22.0231C60.5569 21.7937 60.7458 21.5165 60.8716 21.2095C60.9973 20.9026 61.0573 20.5726 61.0476 20.2411Z" fill="black"/>
<path d="M65.9008 20.4529C65.9008 19.353 66.2274 18.2779 66.8391 17.3635C67.4509 16.4491 68.3204 15.7366 69.3376 15.3162C70.3548 14.8958 71.4739 14.7863 72.5535 15.0016C73.633 15.217 74.6242 15.7475 75.4019 16.5259C76.1795 17.3045 76.7085 18.296 76.922 19.3749C77.1355 20.4539 77.0238 21.572 76.6011 22.5875C76.1784 23.6031 75.4636 24.4705 74.5474 25.0801C73.6311 25.6896 72.5544 26.0138 71.4536 26.0117C70.7216 26.0188 69.9953 25.8798 69.3178 25.6028C68.6402 25.3258 68.0247 24.9165 67.5076 24.3987C66.9903 23.8809 66.5818 23.2652 66.3059 22.5877C66.03 21.9101 65.8923 21.1843 65.9008 20.4529ZM73.8697 20.4529C73.8572 19.9779 73.7046 19.5171 73.4312 19.1283C73.1578 18.7396 72.7756 18.4401 72.3325 18.2674C71.8894 18.0947 71.4053 18.0565 70.9406 18.1576C70.4759 18.2586 70.0514 18.4945 69.7202 18.8355C69.3891 19.1766 69.166 19.6077 69.0791 20.0749C68.9921 20.542 69.045 21.0244 69.2312 21.4616C69.4174 21.8989 69.7286 22.2715 70.1259 22.5328C70.5231 22.7941 70.9886 22.9324 71.4642 22.9305C71.7877 22.9369 72.109 22.8764 72.4081 22.753C72.7071 22.6296 72.9774 22.4459 73.2022 22.2134C73.427 21.9809 73.6013 21.7044 73.7144 21.4016C73.8274 21.0987 73.8767 20.7757 73.8591 20.4529H73.8697Z" fill="black"/>
<path d="M78.4795 12.4062C78.4795 12.0335 78.5901 11.669 78.7974 11.3591C79.0047 11.0492 79.2993 10.8076 79.6439 10.6649C79.9886 10.5223 80.3679 10.485 80.7338 10.5577C81.0996 10.6304 81.4357 10.8099 81.6996 11.0735C81.9634 11.3371 82.143 11.673 82.2158 12.0385C82.2886 12.4041 82.2512 12.783 82.1084 13.1275C81.9657 13.4718 81.7239 13.7661 81.4137 13.9733C81.1035 14.1804 80.7389 14.2909 80.3658 14.2909C79.8672 14.2854 79.3906 14.0851 79.0381 13.7328C78.6855 13.3805 78.485 12.9044 78.4795 12.4062ZM78.7868 15.2121H81.9659V25.6944H78.7868V15.2121Z" fill="black"/>
<path d="M95.5722 20.4532C95.6078 21.1503 95.5051 21.8477 95.2699 22.505C95.0349 23.1623 94.6719 23.7667 94.2022 24.2833C93.7323 24.8 93.1649 25.2187 92.5325 25.5153C91.9002 25.812 91.2153 25.9808 90.5174 26.012C89.9251 26.0514 89.3316 25.9567 88.7812 25.7348C88.2307 25.5129 87.7375 25.1697 87.3383 24.7309V29.9085H84.1592V15.212H87.3383V16.1967C87.738 15.7591 88.2316 15.4176 88.7821 15.1975C89.3326 14.9774 89.9259 14.8846 90.5174 14.9262C91.2126 14.9574 91.8947 15.1252 92.5249 15.4199C93.1551 15.7146 93.7211 16.1305 94.1904 16.6437C94.6599 17.1569 95.0234 17.7574 95.2605 18.4112C95.4976 19.0648 95.6035 19.7586 95.5722 20.4532ZM92.3931 20.4532C92.3806 19.9614 92.223 19.4843 91.9402 19.0816C91.6575 18.6789 91.262 18.3685 90.8035 18.1894C90.345 18.0103 89.8437 17.9705 89.3625 18.0748C88.8814 18.1791 88.4419 18.423 88.0988 18.7759C87.7558 19.1288 87.5247 19.575 87.4345 20.0587C87.3442 20.5423 87.3988 21.0417 87.5914 21.4945C87.7841 21.9471 88.1061 22.3329 88.5173 22.6036C88.9285 22.8742 89.4104 23.0175 89.9028 23.0156C90.24 23.0299 90.5764 22.9728 90.89 22.8481C91.2036 22.7233 91.4873 22.5338 91.7225 22.2919C91.9576 22.0499 92.1388 21.761 92.2544 21.4442C92.3701 21.1273 92.4172 20.7896 92.3931 20.4532Z" fill="black"/>
<path d="M105.247 22.5495C105.247 24.9636 103.128 25.9907 100.882 25.9907C99.9652 26.0731 99.0453 25.879 98.2405 25.4335C97.4358 24.9881 96.7832 24.3117 96.3672 23.4919L99.1012 21.946C99.2095 22.3238 99.4444 22.653 99.7665 22.8785C100.089 23.104 100.479 23.2121 100.871 23.1848C101.623 23.1848 102.005 22.9519 102.005 22.5283C102.005 21.3742 96.844 21.9883 96.844 18.3566C96.844 16.0695 98.7727 14.926 100.956 14.926C101.785 14.8888 102.61 15.077 103.341 15.4703C104.073 15.8637 104.684 16.4476 105.11 17.1601L102.376 18.6001C102.255 18.3269 102.058 18.0946 101.807 17.9311C101.557 17.7677 101.265 17.6801 100.966 17.6789C100.415 17.6789 100.087 17.8907 100.087 18.2613C100.087 19.4683 105.247 18.6742 105.247 22.5495Z" fill="black"/>
<path d="M116.766 15.2119V25.6943H113.587V24.7096C113.225 25.1455 112.767 25.4903 112.248 25.7166C111.729 25.9429 111.164 26.044 110.598 26.0119C108.479 26.0119 106.667 24.4978 106.667 21.6707V15.2119H109.846V21.1943C109.821 21.4444 109.85 21.6969 109.933 21.9345C110.016 22.172 110.148 22.3888 110.322 22.5701C110.497 22.7513 110.709 22.8925 110.943 22.9841C111.177 23.0756 111.428 23.1152 111.679 23.1001C112.824 23.1001 113.629 22.4225 113.629 20.9825V15.2119H116.766Z" fill="black"/>
<path d="M134.781 19.2564V25.6941H131.602V19.5317C131.602 18.4729 131.104 17.8164 130.097 17.8164C129.091 17.8164 128.455 18.547 128.455 19.7858V25.6941H125.276V19.5317C125.276 18.4729 124.778 17.8164 123.771 17.8164C122.764 17.8164 122.128 18.547 122.128 19.7858V25.6941H118.949V15.2117H122.128V16.1752C122.458 15.7496 122.887 15.4125 123.38 15.1943C123.872 14.9762 124.411 14.8839 124.947 14.9258C125.484 14.8978 126.021 15.01 126.502 15.2513C126.983 15.4926 127.393 15.8548 127.692 16.3023C128.041 15.8347 128.503 15.4633 129.035 15.2226C129.566 14.9818 130.151 14.8798 130.733 14.9258C133.213 14.9258 134.781 16.6411 134.781 19.2564Z" fill="black"/>
<path d="M137.451 15.1486C138.739 15.1486 139.783 14.1056 139.783 12.8192C139.783 11.5327 138.739 10.4897 137.451 10.4897C136.164 10.4897 135.12 11.5327 135.12 12.8192C135.12 14.1056 136.164 15.1486 137.451 15.1486Z" fill="black"/>
</svg>
