<svg width="49" height="49" viewBox="0 0 49 49" fill="none" xmlns="http://www.w3.org/2000/svg">
<g clip-path="url(#clip0_4006_167)">
<path d="M29.5999 0.799805H19.9999V15.2756C19.9595 17.8919 17.8261 19.9998 15.2005 19.9998H0.799927V29.5998H11.2235C13.7695 29.5998 16.2114 28.5883 18.0116 26.7881L26.7882 18.0115C28.5884 16.2113 29.5999 13.7694 29.5999 11.2234V0.799805Z" fill="white"/>
<path d="M19.9999 48.8H29.5999V34.3242C29.6403 31.7079 31.7737 29.6 34.3993 29.6H48.7999V20H38.3763C35.8303 20 33.3884 21.0115 31.5882 22.8117L22.8116 31.5883C21.0114 33.3885 19.9999 35.8304 19.9999 38.3764V48.8Z" fill="white"/>
</g>
<defs>
<clipPath id="clip0_4006_167">
<rect width="48" height="48" fill="white" transform="translate(0.799927 0.799805)"/>
</clipPath>
</defs>
</svg>
