<svg width="49" height="49" viewBox="0 0 49 49" fill="none" xmlns="http://www.w3.org/2000/svg">
<g clip-path="url(#clip0_2065_356)">
<path d="M29.5998 0.800293H19.9998V15.2761C19.9594 17.8924 17.826 20.0003 15.2004 20.0003H0.799805V29.6003H11.2234C13.7694 29.6003 16.2113 28.5888 18.0115 26.7886L26.7881 18.012C28.5883 16.2118 29.5998 13.7699 29.5998 11.2238V0.800293Z" fill="black"/>
<path d="M20 48.8005H29.6V34.3246C29.6404 31.7084 31.7738 29.6005 34.3994 29.6005H48.8V20.0005H38.3764C35.8304 20.0005 33.3885 21.012 31.5883 22.8122L22.8117 31.5888C21.0115 33.389 20 35.8309 20 38.3769V48.8005Z" fill="black"/>
</g>
<defs>
<clipPath id="clip0_2065_356">
<rect width="48" height="48" fill="white" transform="translate(0.799805 0.800293)"/>
</clipPath>
</defs>
</svg>
