<svg width="141" height="37" viewBox="0 0 141 37" fill="none" xmlns="http://www.w3.org/2000/svg">
<g clip-path="url(#clip0_4006_48)">
<path d="M13.5264 27.8369C13.5261 27.8732 13.5259 27.9096 13.5259 27.9461C13.5259 28.2256 13.5359 28.4999 13.556 28.769H19.17C19.1196 28.5087 19.0943 28.2344 19.0943 27.9461C19.0943 27.9095 19.0947 27.8731 19.0955 27.8369H13.5264Z" fill="white"/>
<path d="M6.67686 27.8369V28.769H1.35059V27.8369H6.67686Z" fill="white"/>
<path d="M13.5762 26.8883H19.2266C19.2984 26.6167 19.3995 26.3581 19.5301 26.1126C19.5609 26.0592 19.5928 26.0071 19.6259 25.9561H13.7122C13.6525 26.2594 13.6072 26.5701 13.5762 26.8883Z" fill="white"/>
<path d="M6.67686 25.9561V26.8883H1.35059V25.9561H6.67686Z" fill="white"/>
<path d="M13.0286 25.0083C12.806 24.7964 12.4965 24.6341 12.1 24.5212C11.6642 24.4086 11.0428 24.3523 10.2358 24.3523H6.67686V25.0083H1.35059V24.0762H13.3105V25.0083H13.0286Z" fill="white"/>
<path d="M13.9531 25.0083H20.5506C20.6274 24.9558 20.7069 24.906 20.789 24.8588C21.3216 24.5534 21.935 24.4005 22.6291 24.4005C23.3231 24.4005 23.9284 24.5534 24.4448 24.8588C24.527 24.906 24.6063 24.9558 24.6827 25.0083H31.265C31.1949 24.7936 31.1166 24.583 31.0301 24.3764C30.989 24.2751 30.9464 24.175 30.9022 24.0762H14.3119C14.2662 24.175 14.2221 24.2751 14.1797 24.3764C14.0961 24.583 14.0206 24.7936 13.9531 25.0083Z" fill="white"/>
<path d="M14.8228 23.1274H30.4026C30.202 22.7998 29.9797 22.4891 29.7357 22.1953H15.4967C15.2513 22.4891 15.0267 22.7998 14.8228 23.1274Z" fill="white"/>
<path d="M16.4338 21.2467H28.8056C28.4002 20.8959 27.9602 20.5851 27.4853 20.3145H17.7596C17.2866 20.5851 16.8447 20.8959 16.4338 21.2467Z" fill="white"/>
<path d="M13.3104 20.3145V21.2467H1.25395C1.22716 21.0851 1.19478 20.9382 1.15683 20.8058C1.10897 20.6218 1.04806 20.458 0.974121 20.3145H13.3104Z" fill="white"/>
<path d="M37.3137 20.3145C37.2909 20.3253 37.2682 20.3363 37.2454 20.3474C36.7166 20.6079 36.2304 20.9076 35.7869 21.2467H47.6947C47.6979 21.2362 47.701 21.226 47.7043 21.2159C47.8173 20.862 47.9949 20.5886 48.2369 20.3956V20.3145H37.3137Z" fill="white"/>
<path d="M52.7049 20.3145C52.2319 20.5851 51.79 20.8959 51.3792 21.2467H63.751C63.3456 20.8959 62.9055 20.5851 62.4306 20.3145H52.7049Z" fill="white"/>
<path d="M90.031 20.3145H97.5947C97.8792 20.4666 98.1421 20.6385 98.3832 20.8298C98.5485 20.9623 98.7012 21.1013 98.843 21.2467H90.031V20.3145Z" fill="white"/>
<path d="M74.8579 20.3145H80.9453C80.8709 20.4505 80.8043 20.6062 80.7456 20.7816C80.7001 20.9177 80.6617 21.0727 80.6304 21.2467H75.117C75.0935 21.0851 75.0651 20.9382 75.032 20.8058C74.9841 20.6218 74.926 20.458 74.8579 20.3145Z" fill="white"/>
<path d="M67.6345 20.3145H73.6478C73.5796 20.458 73.5217 20.6218 73.4738 20.8058C73.4406 20.9382 73.4122 21.0851 73.3888 21.2467H67.8936C67.8701 21.0851 67.8418 20.9382 67.8086 20.8058C67.7607 20.6218 67.7027 20.458 67.6345 20.3145Z" fill="white"/>
<path d="M64.6808 22.1953H50.4417C50.1963 22.4891 49.9718 22.7998 49.7678 23.1274H65.3477C65.147 22.7998 64.9247 22.4891 64.6808 22.1953Z" fill="white"/>
<path d="M67.9782 23.1274V22.6634C67.9782 22.5001 67.9757 22.3441 67.9709 22.1953H73.3117C73.3069 22.3441 73.3045 22.5001 73.3045 22.6634V23.1274H67.9782Z" fill="white"/>
<path d="M65.8471 24.0762H49.257C49.2113 24.175 49.1672 24.2751 49.1247 24.3764C49.0412 24.583 48.9657 24.7936 48.8982 25.0083H55.4956C55.5725 24.9558 55.652 24.906 55.7341 24.8588C56.2667 24.5534 56.8801 24.4005 57.5741 24.4005C58.2682 24.4005 58.8734 24.5534 59.3899 24.8588C59.4721 24.906 59.5514 24.9558 59.6278 25.0083H66.21C66.1401 24.7936 66.0617 24.583 65.9751 24.3764C65.9341 24.2751 65.8915 24.175 65.8471 24.0762Z" fill="white"/>
<path d="M67.978 25.0083V24.0762H73.3044V25.0083H67.978Z" fill="white"/>
<path d="M66.4599 25.9561H60.5334C60.5652 26.0071 60.5955 26.0592 60.6247 26.1126C60.7624 26.3581 60.8692 26.6167 60.9451 26.8883H66.601C66.5688 26.5701 66.5217 26.2594 66.4599 25.9561Z" fill="white"/>
<path d="M67.978 26.8883V25.9561H73.3044V26.8883H67.978Z" fill="white"/>
<path d="M66.6524 27.8369H61.0832C61.0841 27.8731 61.0846 27.9095 61.0846 27.9461C61.0846 28.2344 61.0579 28.5087 61.0046 28.769H66.6217C66.6426 28.4999 66.653 28.2256 66.653 27.9461C66.653 27.9096 66.6528 27.8732 66.6524 27.8369Z" fill="white"/>
<path d="M67.978 28.769V27.8369H73.3044V28.769H67.978Z" fill="white"/>
<path d="M66.5017 29.7178H60.6595C60.6482 29.7386 60.6365 29.7592 60.6247 29.7797C60.4413 30.1146 60.2098 30.4047 59.9302 30.6499H66.2828C66.3718 30.3471 66.4448 30.0366 66.5017 29.7178Z" fill="white"/>
<path d="M67.978 30.6499V29.7178H73.3044V30.6499H67.978Z" fill="white"/>
<path d="M65.9415 31.5986H49.1594C49.2989 31.9227 49.4548 32.2333 49.6268 32.5309H65.4861C65.6549 32.2333 65.8067 31.9227 65.9415 31.5986Z" fill="white"/>
<path d="M67.978 32.5309V31.5986H73.3044V32.5309H67.978Z" fill="white"/>
<path d="M64.8558 33.4795H50.2656C50.495 33.7742 50.7442 34.0528 51.0131 34.3154C51.0469 34.3478 51.0811 34.3799 51.1153 34.4116H64.0107C64.0443 34.3799 64.0778 34.3478 64.1109 34.3154C64.3799 34.0528 64.6281 33.7742 64.8558 33.4795Z" fill="white"/>
<path d="M67.9224 34.4116C67.9526 34.1392 67.9705 33.8285 67.9762 33.4795H73.3064C73.3121 33.8285 73.3301 34.1392 73.3602 34.4116H67.9224Z" fill="white"/>
<path d="M62.7927 35.3594H52.3435C52.8257 35.6669 53.3427 35.9298 53.8942 36.148C55.0078 36.5823 56.2345 36.7994 57.5742 36.7994C58.8977 36.7994 60.1162 36.5823 61.2299 36.148C61.7896 35.9298 62.3105 35.6669 62.7927 35.3594Z" fill="white"/>
<path d="M46.3486 34.4116V33.4795H34.5347C34.8199 33.8163 35.1347 34.127 35.4792 34.4116H46.3486Z" fill="white"/>
<path d="M36.9155 35.3594H46.3485V36.5823C45.9934 36.4697 45.6383 36.4135 45.2833 36.4135C45.0411 36.4135 44.6941 36.4456 44.2422 36.5099C43.8064 36.5742 43.298 36.6064 42.7169 36.6064C40.6348 36.6064 38.8433 36.2606 37.3422 35.5691C37.1967 35.5021 37.0545 35.4322 36.9155 35.3594Z" fill="white"/>
<path d="M29.0653 34.4116C29.099 34.3799 29.1324 34.3478 29.1656 34.3154C29.4345 34.0528 29.6828 33.7742 29.9105 33.4795H15.3203C15.5497 33.7742 15.7989 34.0528 16.0678 34.3154C16.1016 34.3478 16.1357 34.3799 16.17 34.4116H29.0653Z" fill="white"/>
<path d="M17.3982 35.3594H27.8473C27.3652 35.6669 26.8442 35.9298 26.2846 36.148C25.1709 36.5823 23.9524 36.7994 22.6289 36.7994C21.2892 36.7994 20.0625 36.5823 18.9489 36.148C18.3973 35.9298 17.8804 35.6669 17.3982 35.3594Z" fill="white"/>
<path d="M6.74313 34.4116C6.70721 34.1396 6.68587 33.8289 6.6791 33.4795H1.34848C1.34279 33.8285 1.32486 34.1392 1.29468 34.4116H6.74313Z" fill="white"/>
<path d="M1.09223 35.3594H6.98874C7.12023 35.6669 7.28258 35.8977 7.47572 36.0516V36.2687H0.672607V36.0516C0.845587 35.8915 0.985469 35.6608 1.09223 35.3594Z" fill="white"/>
<path d="M1.35059 32.5309H6.67686V31.5986H1.35059V32.5309Z" fill="white"/>
<path d="M1.35059 30.6499H6.67686V29.7178H1.35059V30.6499Z" fill="white"/>
<path d="M13.6719 29.7178C13.7267 30.0366 13.7971 30.3471 13.8829 30.6499H20.2455C19.962 30.4047 19.7235 30.1146 19.53 29.7797C19.5188 29.7592 19.5078 29.7386 19.497 29.7178H13.6719Z" fill="white"/>
<path d="M25.7144 29.7178C25.7029 29.7386 25.6913 29.7592 25.6794 29.7797C25.4962 30.1146 25.2646 30.4047 24.9849 30.6499H31.3376C31.4266 30.3471 31.4996 30.0366 31.5565 29.7178H25.7144Z" fill="white"/>
<path d="M32.8225 29.7178C32.8781 30.0388 32.949 30.3495 33.0349 30.6499H39.5013C39.2076 30.4245 38.964 30.1586 38.7707 29.8521C38.7429 29.808 38.7161 29.7632 38.6905 29.7178H32.8225Z" fill="white"/>
<path d="M38.3343 28.769H32.7047C32.6813 28.4705 32.6697 28.1641 32.6697 27.8497C32.6697 27.8454 32.6697 27.8411 32.6697 27.8369H38.2381C38.2388 28.1675 38.2709 28.4783 38.3343 28.769Z" fill="white"/>
<path d="M48.1184 28.769H42.0049C42.1761 28.5615 42.3086 28.2712 42.4023 27.8979C42.4075 27.878 42.4125 27.8576 42.4175 27.8369H47.6891C47.694 27.8576 47.6991 27.878 47.7043 27.8979C47.798 28.2712 47.936 28.5615 48.1184 28.769Z" fill="white"/>
<path d="M48.6169 29.7178C48.6718 30.0366 48.7421 30.3471 48.8279 30.6499H55.1905C54.9071 30.4047 54.6686 30.1146 54.4751 29.7797C54.4639 29.7592 54.4529 29.7386 54.442 29.7178H48.6169Z" fill="white"/>
<path d="M54.1151 28.769H48.501C48.481 28.4999 48.4709 28.2256 48.4709 27.9461C48.4709 27.9096 48.4711 27.8732 48.4715 27.8369H54.0407C54.0398 27.8731 54.0393 27.9095 54.0393 27.9461C54.0393 28.2344 54.0646 28.5087 54.1151 28.769Z" fill="white"/>
<path d="M54.1715 26.8883C54.2434 26.6167 54.3447 26.3581 54.4751 26.1126C54.5059 26.0592 54.5379 26.0071 54.571 25.9561H48.6573C48.5976 26.2594 48.5522 26.5701 48.5212 26.8883H54.1715Z" fill="white"/>
<path d="M47.5602 26.8883C47.5434 26.6331 47.535 26.3504 47.535 26.0402V25.9561H42.5718V26.0402C42.5718 26.3504 42.5634 26.6331 42.5466 26.8883H47.5602Z" fill="white"/>
<path d="M38.3346 26.8883C38.4071 26.555 38.5207 26.2443 38.6754 25.9561H32.8497C32.7891 26.2585 32.7439 26.5693 32.7139 26.8883H38.3346Z" fill="white"/>
<path d="M31.6558 26.8883C31.6236 26.5701 31.5766 26.2594 31.5147 25.9561H25.5884C25.62 26.0071 25.6503 26.0592 25.6795 26.1126C25.8173 26.3581 25.924 26.6167 25.9999 26.8883H31.6558Z" fill="white"/>
<path d="M26.1382 27.8369C26.1391 27.8731 26.1395 27.9095 26.1395 27.9461C26.1395 28.2344 26.1129 28.5087 26.0596 28.769H31.6766C31.6975 28.4999 31.7079 28.2256 31.7079 27.9461C31.7079 27.9096 31.7077 27.8732 31.7074 27.8369H26.1382Z" fill="white"/>
<path d="M33.0986 25.0083H39.484C39.6784 24.8515 39.8926 24.7133 40.1265 24.5936C40.7399 24.3041 41.4582 24.1593 42.2814 24.1593C42.3788 24.1593 42.4757 24.1603 42.5718 24.1623V25.0083H47.535V24.0762H33.4736C33.329 24.3764 33.2041 24.6872 33.0986 25.0083Z" fill="white"/>
<path d="M34.0176 23.1274H47.535V22.8805C47.535 22.63 47.5412 22.4016 47.5536 22.1953H34.7494C34.4836 22.4859 34.2396 22.7966 34.0176 23.1274Z" fill="white"/>
<path d="M46.3487 31.5986H33.3713C33.5106 31.9234 33.6705 32.2341 33.8511 32.5309H46.3487V31.5986Z" fill="white"/>
<path d="M30.5411 32.5309C30.7099 32.2333 30.8617 31.9227 30.9965 31.5986H14.2144C14.3539 31.9227 14.5098 32.2333 14.6819 32.5309H30.5411Z" fill="white"/>
<path d="M67.7199 35.3594H73.5627C73.6695 35.6608 73.8094 35.8915 73.9824 36.0516V36.2687H67.3003V36.0516C67.4733 35.8915 67.6132 35.6608 67.7199 35.3594Z" fill="white"/>
<path d="M74.9163 35.3594C74.8037 35.6608 74.6486 35.8915 74.4509 36.0516V36.2687H82.2225C83.675 36.2687 84.9179 36.0355 85.9509 35.5691C86.1038 35.5035 86.2516 35.4335 86.3942 35.3594H74.9163Z" fill="white"/>
<path d="M91.6777 35.3594C92.7968 36.0942 94.2971 36.4616 96.1803 36.4616C96.6166 36.4616 97.0113 36.4375 97.3672 36.3892C97.7221 36.341 97.9886 36.3169 98.1656 36.3169C98.4402 36.3169 98.7392 36.3732 99.0616 36.4858V35.3594H91.6777Z" fill="white"/>
<path d="M99.0616 34.4116H90.6097C90.3752 34.1252 90.1844 33.8146 90.0374 33.4795H99.0616V34.4116Z" fill="white"/>
<path d="M100.759 35.3594C100.652 35.6608 100.512 35.8915 100.339 36.0516V36.2687H106.997V36.0516C106.824 35.8915 106.684 35.6608 106.577 35.3594H100.759Z" fill="white"/>
<path d="M106.391 34.4116H100.961C100.992 34.1392 101.009 33.8285 101.015 33.4795H106.345C106.35 33.8285 106.365 34.1392 106.391 34.4116Z" fill="white"/>
<path d="M109.265 35.3594C109.165 35.6608 109.022 35.8915 108.837 36.0516V36.2687H115.519V36.0516C115.334 35.8915 115.186 35.6608 115.077 35.3594H109.265Z" fill="white"/>
<path d="M114.873 34.4116H109.459C109.489 34.1392 109.508 33.8285 109.513 33.4795H114.819C114.825 33.8285 114.843 34.1392 114.873 34.4116Z" fill="white"/>
<path d="M116.288 35.3594C116.163 35.6633 115.998 35.894 115.791 36.0516V36.2687H121.626V36.0998C121.488 35.8565 121.412 35.6097 121.4 35.3594H116.288Z" fill="white"/>
<path d="M121.667 34.4116H116.516C116.55 34.1408 116.573 33.8301 116.582 33.4795H122.498L122.158 33.8088C121.952 34.0139 121.789 34.2149 121.667 34.4116Z" fill="white"/>
<path d="M129.233 35.3594C129.217 35.6094 129.142 35.8562 129.01 36.0998V36.2687H134.772V36.0516C134.577 35.894 134.415 35.6633 134.284 35.3594H129.233Z" fill="white"/>
<path d="M134.047 34.4116H129.004C128.88 34.1946 128.704 33.9776 128.477 33.7606L128.196 33.4795H133.979C133.99 33.8301 134.013 34.1408 134.047 34.4116Z" fill="white"/>
<path d="M133.973 32.5309V31.5986H126.319L127.249 32.5309H133.973Z" fill="white"/>
<path d="M123.473 32.5309L124.433 31.5986H116.59V32.5309H123.473Z" fill="white"/>
<path d="M114.817 32.5309V31.5986H109.515V32.5309H114.817Z" fill="white"/>
<path d="M106.343 32.5309V31.5986H101.017V32.5309H106.343Z" fill="white"/>
<path d="M99.0617 32.5309V31.5986H98.4349C98.3834 31.6351 98.3301 31.669 98.2759 31.7004C98.2091 31.7397 98.1404 31.7749 98.0691 31.8064C97.9823 31.8435 97.8812 31.8758 97.7656 31.9034C97.7529 31.9064 97.7394 31.9094 97.7267 31.9124C97.7041 31.9174 97.6807 31.9223 97.6572 31.927C97.5118 31.9752 97.351 31.9993 97.173 31.9993C96.8018 31.9993 96.5119 31.9109 96.3014 31.734C96.2509 31.6908 96.2057 31.6457 96.1669 31.5986H89.668C89.6685 31.9243 89.6959 32.235 89.75 32.5309H99.0617Z" fill="white"/>
<path d="M88.9129 32.5309C89.0153 32.2362 89.092 31.9254 89.1431 31.5986H82.9899C82.6669 31.7533 82.2578 31.8306 81.7624 31.8306H80.5277V31.5986H75.2014V32.5309H88.9129Z" fill="white"/>
<path d="M75.1992 33.4795C75.1927 33.8285 75.1722 34.1392 75.1377 34.4116H87.7157C87.9621 34.1693 88.1808 33.904 88.3718 33.6158C88.4022 33.5708 88.4318 33.5254 88.4605 33.4795H75.1992Z" fill="white"/>
<path d="M75.2014 30.6499H80.5277V29.7178H75.2014V30.6499Z" fill="white"/>
<path d="M75.2014 28.769H80.5277V27.8369H75.2014V28.769Z" fill="white"/>
<path d="M75.2014 26.8883H88.0774C87.8336 26.5598 87.5491 26.2491 87.224 25.9561H75.2014V26.8883Z" fill="white"/>
<path d="M75.2014 25.0083H85.9183C85.3301 24.6657 84.6557 24.3549 83.8948 24.0762H75.2014V25.0083Z" fill="white"/>
<path d="M75.2016 23.1274H80.7503L80.5278 23.0637V22.6634C80.5278 22.4997 80.5307 22.3436 80.5365 22.1953H75.1943C75.1992 22.3441 75.2016 22.5001 75.2016 22.6634V23.1274Z" fill="white"/>
<path d="M90.031 22.1953V23.1274H99.9431C99.8464 22.798 99.7173 22.4873 99.5538 22.1953H90.031Z" fill="white"/>
<path d="M101.806 22.1953C101.647 22.4877 101.512 22.7985 101.402 23.1274H114.433C114.322 22.7985 114.187 22.4877 114.028 22.1953H101.806Z" fill="white"/>
<path d="M116.583 22.1953C116.588 22.3441 116.59 22.5001 116.59 22.6634V23.1274H121.771V22.6634C121.771 22.5001 121.773 22.3441 121.778 22.1953H116.583Z" fill="white"/>
<path d="M121.855 21.2467H116.506C116.482 21.0851 116.453 20.9382 116.421 20.8058C116.373 20.6218 116.314 20.458 116.246 20.3145H122.115C122.046 20.458 121.988 20.6218 121.94 20.8058C121.907 20.9382 121.879 21.0851 121.855 21.2467Z" fill="white"/>
<path d="M128.809 22.1953C128.814 22.3441 128.816 22.5001 128.816 22.6634V23.1274H133.973V22.6634C133.973 22.5001 133.975 22.3441 133.98 22.1953H128.809Z" fill="white"/>
<path d="M134.057 21.2467H128.732C128.708 21.0851 128.68 20.9382 128.647 20.8058C128.599 20.6218 128.539 20.458 128.468 20.3145H134.321C134.25 20.458 134.19 20.6218 134.142 20.8058C134.11 20.9382 134.081 21.0851 134.057 21.2467Z" fill="white"/>
<path d="M112.386 20.3145H103.457C103.08 20.5855 102.744 20.8962 102.45 21.2467H113.395C113.102 20.8962 112.766 20.5855 112.386 20.3145Z" fill="white"/>
<path d="M133.973 24.0762H128.816V25.0083H133.973V24.0762Z" fill="white"/>
<path d="M133.973 25.9561H128.816V26.8883H133.973V25.9561Z" fill="white"/>
<path d="M133.973 27.8369H128.816V27.9356L128.715 27.8369H116.59V28.769H133.973V27.8369Z" fill="white"/>
<path d="M133.973 29.7178H116.59V30.6499H133.973V29.7178Z" fill="white"/>
<path d="M114.817 30.6499V29.7178H109.515V30.6499H114.817Z" fill="white"/>
<path d="M106.343 30.6499V29.7178H101.017V30.6499H106.343Z" fill="white"/>
<path d="M96.0974 30.6499C96.1272 30.5918 96.1633 30.5349 96.2049 30.4794C96.3665 30.3024 96.6249 30.0692 96.9798 29.7797L97.0638 29.7178H90.0486C89.9193 30.021 89.8229 30.3318 89.7595 30.6499H96.0974Z" fill="white"/>
<path d="M89.2189 30.6499C89.2192 30.6253 89.2193 30.6006 89.2193 30.5758C89.2193 30.2813 89.2032 29.9952 89.171 29.7178H83.7871C83.8254 29.8736 83.8446 30.039 83.8446 30.2139C83.8446 30.3705 83.8282 30.5158 83.7954 30.6499H89.2189Z" fill="white"/>
<path d="M83.1905 28.769H88.9889C88.9002 28.4448 88.7859 28.134 88.6459 27.8369H81.0596L81.2056 27.8738C82.1078 28.1103 82.7694 28.4089 83.1905 28.769Z" fill="white"/>
<path d="M91.4457 27.8369C91.1161 28.1276 90.8306 28.4383 90.5898 28.769H98.2606C98.5424 28.506 98.7935 28.2317 99.013 27.9461C99.041 27.9099 99.0681 27.8735 99.0952 27.8369H91.4457Z" fill="white"/>
<path d="M101.017 27.8369V28.769H106.343V27.8369H101.017Z" fill="white"/>
<path d="M106.343 26.8883H101.017V25.9561H106.352C106.346 26.0375 106.343 26.1217 106.343 26.209V26.8883Z" fill="white"/>
<path d="M109.515 27.8369V28.769H114.817V27.8369H109.515Z" fill="white"/>
<path d="M114.817 26.8883H109.515V26.209C109.515 26.1217 109.512 26.0375 109.507 25.9561H114.817V26.8883Z" fill="white"/>
<path d="M116.59 26.8883H121.77V25.9561H116.59V26.8883Z" fill="white"/>
<path d="M116.59 25.0083H121.77V24.0762H116.59V25.0083Z" fill="white"/>
<path d="M114.677 24.0762H101.158C101.102 24.3745 101.063 24.6852 101.041 25.0083H106.598C106.638 24.9373 106.682 24.8714 106.731 24.8107C107.005 24.489 107.4 24.3282 107.917 24.3282C108.433 24.3282 108.829 24.489 109.104 24.8107C109.155 24.8714 109.202 24.9373 109.244 25.0083H114.793C114.77 24.6852 114.732 24.3745 114.677 24.0762Z" fill="white"/>
<path d="M100.141 25.0083C100.147 24.8954 100.151 24.7811 100.151 24.6659C100.151 24.4642 100.142 24.2675 100.123 24.0762H93.2991C93.4066 24.1248 93.5032 24.1847 93.5899 24.2558C93.8537 24.4602 93.9982 24.7111 94.0226 25.0083H100.141Z" fill="white"/>
<path d="M93.7155 25.9561C93.7065 25.9681 93.6966 25.98 93.6866 25.9919C93.497 26.2222 93.1628 26.5211 92.6868 26.8883H99.6606C99.7355 26.7292 99.8024 26.567 99.8602 26.402C99.9126 26.2557 99.9577 26.1071 99.9957 25.9561H93.7155Z" fill="white"/>
<path d="M91.4808 24.0762H90.031V24.9071H90.2247L90.5878 24.5453C90.7169 24.4488 90.8541 24.3683 90.9994 24.3041C91.1457 24.2189 91.3064 24.143 91.4808 24.0762Z" fill="white"/>
<path d="M123.721 25.9561L122.655 26.8883H127.746L126.794 25.9561H123.721Z" fill="white"/>
<path d="M125.826 25.0075H124.806L125.281 24.5928H125.403L125.826 25.0075Z" fill="white"/>
<path d="M1.34229 22.1953H13.3105V23.1274H1.3506V22.6634C1.3506 22.5001 1.34784 22.3441 1.34229 22.1953Z" fill="white"/>
<path d="M138.102 0.799805C137.8 0.799805 137.524 0.850549 137.274 0.952039C137.019 1.04962 136.798 1.19015 136.61 1.37361C136.422 1.55317 136.276 1.7659 136.174 2.01182C136.073 2.25774 136.022 2.52708 136.022 2.81983C136.022 3.11259 136.073 3.38192 136.174 3.62784C136.276 3.87375 136.422 4.08845 136.61 4.27191C136.798 4.45146 137.019 4.59199 137.274 4.69348C137.524 4.79106 137.8 4.83986 138.102 4.83986C138.4 4.83986 138.676 4.79106 138.931 4.69348C139.185 4.59199 139.406 4.45146 139.595 4.27191C139.783 4.08845 139.927 3.87375 140.029 3.62784C140.131 3.38192 140.182 3.11259 140.182 2.81983C140.182 2.52708 140.131 2.25774 140.029 2.01182C139.927 1.7659 139.783 1.55317 139.595 1.37361C139.406 1.19015 139.185 1.04962 138.931 0.952039C138.676 0.850549 138.4 0.799805 138.102 0.799805ZM137.326 4.0904C137.103 3.96939 136.93 3.79959 136.809 3.581C136.687 3.36241 136.627 3.10868 136.627 2.81983C136.627 2.52708 136.687 2.27335 136.809 2.05866C136.93 1.84007 137.103 1.67027 137.326 1.54926C137.545 1.42826 137.805 1.36775 138.102 1.36775C138.395 1.36775 138.655 1.42826 138.878 1.54926C139.097 1.67027 139.27 1.84007 139.394 2.05866C139.516 2.27335 139.577 2.52708 139.577 2.81983C139.577 3.10868 139.516 3.36241 139.394 3.581C139.27 3.79959 139.097 3.96939 138.878 4.0904C138.655 4.21141 138.395 4.27191 138.102 4.27191C137.805 4.27191 137.545 4.21141 137.326 4.0904ZM137.485 2.48023H137.527C137.554 2.44901 137.592 2.42363 137.644 2.40412C137.679 2.39241 137.722 2.38655 137.773 2.38655C137.844 2.38655 137.909 2.40412 137.967 2.43924C138.021 2.47438 138.065 2.52122 138.096 2.57977C138.127 2.63832 138.143 2.70663 138.143 2.7847C138.143 2.90961 138.11 3.0111 138.043 3.08917C137.973 3.16724 137.881 3.20627 137.767 3.20627C137.708 3.20627 137.657 3.19456 137.614 3.17114C137.595 3.15943 137.577 3.14772 137.562 3.13601C137.542 3.1204 137.528 3.10674 137.52 3.09502H137.48V3.89132C137.515 3.90694 137.564 3.91865 137.626 3.92646C137.685 3.93426 137.748 3.93817 137.814 3.93817C138.057 3.93817 138.273 3.89132 138.46 3.79764C138.645 3.70005 138.789 3.56539 138.895 3.39364C139.001 3.21798 139.054 3.01695 139.054 2.79056C139.054 2.56806 139.005 2.37093 138.907 2.19919C138.809 2.02743 138.672 1.89472 138.496 1.80104C138.32 1.70345 138.12 1.65466 137.896 1.65466C137.842 1.65466 137.795 1.65661 137.755 1.66051C137.716 1.66441 137.681 1.66637 137.649 1.66637C137.591 1.66637 137.536 1.66051 137.485 1.6488V2.48023Z" fill="white"/>
<path fill-rule="evenodd" clip-rule="evenodd" d="M14.1795 14.8711C13.7437 13.7935 13.5259 12.6035 13.5259 11.3007C13.5259 9.99805 13.7437 8.80793 14.1795 7.73039C14.6314 6.65286 15.261 5.72007 16.0679 4.93202C16.8911 4.14397 17.8514 3.53284 18.9489 3.0986C20.0626 2.66438 21.2893 2.44727 22.629 2.44727C23.9524 2.44727 25.1711 2.66438 26.2848 3.0986C27.3984 3.53284 28.3587 4.14397 29.1658 4.93202C29.9727 5.72007 30.5941 6.65286 31.0299 7.73039C31.4818 8.80793 31.7078 9.99805 31.7078 11.3007C31.7078 12.6035 31.4818 13.7935 31.0299 14.8711C30.5941 15.9486 29.9727 16.8813 29.1658 17.6695C28.3587 18.4575 27.3984 19.0686 26.2848 19.5029C25.1711 19.9371 23.9524 20.1542 22.629 20.1542C21.2893 20.1542 20.0626 19.9371 18.9489 19.5029C17.8514 19.0686 16.8911 18.4575 16.0679 17.6695C15.261 16.8813 14.6314 15.9486 14.1795 14.8711ZM26.1394 11.3007C26.1394 10.6092 25.9862 9.99805 25.6794 9.46731C25.3889 8.93659 24.9773 8.51844 24.4447 8.21287C23.9282 7.9073 23.323 7.75452 22.629 7.75452C21.9349 7.75452 21.3216 7.9073 20.789 8.21287C20.2564 8.51844 19.8367 8.93659 19.53 9.46731C19.2395 9.99805 19.0943 10.6092 19.0943 11.3007C19.0943 11.9762 19.2395 12.5873 19.53 13.1341C19.8367 13.6648 20.2564 14.083 20.789 14.3886C21.3216 14.6942 21.9349 14.847 22.629 14.847C23.323 14.847 23.9282 14.6942 24.4447 14.3886C24.9773 14.083 25.3889 13.6648 25.6794 13.1341C25.9862 12.5873 26.1394 11.9762 26.1394 11.3007Z" fill="white"/>
<path d="M10.2358 14.8957H6.67689V6.01813C6.67689 5.19792 6.74952 4.5707 6.89479 4.13646C7.04005 3.70223 7.23373 3.38863 7.47583 3.19563V2.97852H0.672729V3.19563C0.898691 3.40471 1.06816 3.7344 1.18115 4.18471C1.29413 4.61895 1.35062 5.23008 1.35062 6.01813V16.5844C1.35062 17.3725 1.28606 17.9916 1.15694 18.4419C1.04395 18.8762 0.858342 19.1978 0.600098 19.4069V19.624H11.2042C11.5916 19.624 11.9709 19.6401 12.3421 19.6722C12.7133 19.7044 13.0362 19.7607 13.3106 19.8411V14.1478H13.1168C12.8909 14.4052 12.5519 14.5982 12.1 14.7268C11.6643 14.8394 11.0428 14.8957 10.2358 14.8957Z" fill="white"/>
<path d="M42.4025 11.3493C42.5154 11.7836 42.5719 12.4028 42.5719 13.2069V15.0856C42.4757 15.0876 42.3789 15.0886 42.2814 15.0886C41.4582 15.0886 40.74 14.9438 40.1267 14.6543C39.5295 14.3488 39.0614 13.9226 38.7224 13.3758C38.3997 12.8129 38.2383 12.1615 38.2383 11.4217C38.2383 10.6336 38.4158 9.95819 38.7709 9.39531C39.126 8.83242 39.6505 8.40623 40.3445 8.11675C41.0547 7.81118 41.9182 7.6584 42.9351 7.6584C43.3547 7.6584 43.7259 7.68252 44.0488 7.73076C44.3877 7.77901 44.6944 7.85138 44.9688 7.94788C45.1786 8.01221 45.3803 8.10066 45.574 8.21325C45.7839 8.30974 45.9695 8.43036 46.1309 8.5751H46.3487V2.66475C45.9937 2.77733 45.6385 2.83362 45.2835 2.83362C45.0414 2.83362 44.6944 2.80145 44.2424 2.73712C43.8066 2.67279 43.2983 2.64062 42.7172 2.64062C40.6351 2.64062 38.8436 2.98641 37.3425 3.67796C35.8414 4.36951 34.6875 5.36663 33.8804 6.66931C33.0734 7.972 32.6699 9.5481 32.6699 11.3976C32.6699 13.1185 33.0734 14.6222 33.8804 15.9087C34.6875 17.1954 35.8092 18.1925 37.2457 18.9001C38.6982 19.6077 40.3849 19.9616 42.3056 19.9616C43.3547 19.9616 44.3877 19.8892 45.4045 19.7444C46.4214 19.5997 47.3656 19.3745 48.2371 19.069V18.8519C47.995 18.6589 47.8175 18.3855 47.7045 18.0316C47.5916 17.6779 47.535 17.123 47.535 16.3671V13.2069C47.535 12.4028 47.5916 11.7836 47.7045 11.3493C47.8175 10.8991 47.995 10.5694 48.2371 10.3603V10.1431H41.894V10.3603C42.12 10.5694 42.2895 10.8991 42.4025 11.3493Z" fill="white"/>
<path fill-rule="evenodd" clip-rule="evenodd" d="M49.1249 14.8711C48.6891 13.7935 48.4712 12.6035 48.4712 11.3007C48.4712 9.99805 48.6891 8.80793 49.1249 7.73039C49.5767 6.65286 50.2063 5.72007 51.0132 4.93202C51.8364 4.14397 52.7967 3.53284 53.8943 3.0986C55.0079 2.66438 56.2346 2.44727 57.5743 2.44727C58.8978 2.44727 60.1164 2.66438 61.2301 3.0986C62.3437 3.53284 63.3041 4.14397 64.1111 4.93202C64.918 5.72007 65.5395 6.65286 65.9753 7.73039C66.4271 8.80793 66.6531 9.99805 66.6531 11.3007C66.6531 12.6035 66.4271 13.7935 65.9753 14.8711C65.5395 15.9486 64.918 16.8813 64.1111 17.6695C63.3041 18.4575 62.3437 19.0686 61.2301 19.5029C60.1164 19.9371 58.8978 20.1542 57.5743 20.1542C56.2346 20.1542 55.0079 19.9371 53.8943 19.5029C52.7967 19.0686 51.8364 18.4575 51.0132 17.6695C50.2063 16.8813 49.5767 15.9486 49.1249 14.8711ZM61.0847 11.3007C61.0847 10.6092 60.9315 9.99805 60.6247 9.46731C60.3343 8.93659 59.9226 8.51844 59.39 8.21287C58.8736 7.9073 58.2683 7.75452 57.5743 7.75452C56.8802 7.75452 56.2669 7.9073 55.7343 8.21287C55.2017 8.51844 54.782 8.93659 54.4753 9.46731C54.1848 9.99805 54.0396 10.6092 54.0396 11.3007C54.0396 11.9762 54.1848 12.5873 54.4753 13.1341C54.782 13.6648 55.2017 14.083 55.7343 14.3886C56.2669 14.6942 56.8802 14.847 57.5743 14.847C58.2683 14.847 58.8736 14.6942 59.39 14.3886C59.9226 14.083 60.3343 13.6648 60.6247 13.1341C60.9315 12.5873 61.0847 11.9762 61.0847 11.3007Z" fill="white"/>
<path d="M67.8087 4.18471C67.9217 4.61895 67.9782 5.23008 67.9782 6.01813V16.5844C67.9782 17.3725 67.9217 17.9916 67.8087 18.4419C67.6957 18.8762 67.5263 19.1978 67.3003 19.4069V19.624H73.9824V19.4069C73.7564 19.1978 73.5869 18.8762 73.4739 18.4419C73.3609 17.9916 73.3045 17.3725 73.3045 16.5844V6.01813C73.3045 5.23008 73.3609 4.61895 73.4739 4.18471C73.5869 3.7344 73.7564 3.40471 73.9824 3.19563V2.97852H67.3003V3.19563C67.5263 3.40471 67.6957 3.7344 67.8087 4.18471Z" fill="white"/>
<path fill-rule="evenodd" clip-rule="evenodd" d="M80.7458 18.466C80.8912 18.9003 81.0848 19.2139 81.3269 19.4069V19.624H74.5238V19.4069C74.7498 19.1978 74.9192 18.8762 75.0322 18.4419C75.1452 17.9916 75.2017 17.3725 75.2017 16.5844V6.01813C75.2017 5.23008 75.1372 4.61895 75.008 4.18471C74.895 3.7344 74.7094 3.40471 74.4512 3.19563V2.97852H82.2227C83.6754 2.97852 84.9181 3.21171 85.9511 3.67811C87.0002 4.12843 87.8073 4.77977 88.3721 5.63215C88.937 6.46844 89.2195 7.48164 89.2195 8.67175C89.2195 9.81363 88.9774 10.8268 88.4932 11.7114C88.0089 12.5959 87.2665 13.3679 86.2658 14.0272C85.2651 14.6706 83.982 15.2093 82.4164 15.6436L80.528 16.184V16.5844C80.528 17.4046 80.6006 18.0318 80.7458 18.466ZM81.2059 11.3736L80.528 11.545V7.41732H81.7627C82.4406 7.41732 82.9571 7.56205 83.3122 7.85154C83.6672 8.12495 83.8448 8.51897 83.8448 9.03362C83.8448 9.61259 83.635 10.087 83.2153 10.4569C82.7957 10.8268 82.1259 11.1324 81.2059 11.3736Z" fill="white"/>
<path d="M98.8685 7.97151H99.0618V2.76074C98.7393 2.87332 98.4403 2.92961 98.1658 2.92961C97.9887 2.92961 97.7223 2.90549 97.3673 2.85724C97.0123 2.80899 96.6167 2.78487 96.1805 2.78487C94.1148 2.78487 92.5089 3.22714 91.3627 4.11169C90.2331 4.98014 89.6682 6.16221 89.6682 7.65789C89.6682 8.42986 89.8457 9.16161 90.2008 9.8532C90.5559 10.5287 91.0727 11.1317 91.7501 11.6625L92.4041 12.145C93.0336 12.6113 93.4609 12.9812 93.6867 13.2547C93.9134 13.5281 94.0263 13.8255 94.0263 14.1472C94.0263 14.485 93.8809 14.7664 93.59 14.9916C93.3154 15.2168 92.937 15.3293 92.452 15.3293C92.1783 15.3293 91.9118 15.2971 91.6535 15.2328C91.4114 15.1524 91.1938 15.0559 90.9996 14.9433C90.8545 14.879 90.7173 14.7985 90.5881 14.702L90.2251 14.3402H90.0313V19.4304C90.3541 19.543 90.8303 19.6313 91.4593 19.6957C92.1051 19.7762 92.7347 19.8163 93.348 19.8163C95.5274 19.8163 97.2056 19.3499 98.3843 18.4172C99.5622 17.4683 100.151 16.1897 100.151 14.5814C100.151 13.9703 100.054 13.3914 99.8611 12.8445C99.6669 12.2977 99.3842 11.7831 99.013 11.3006C98.6418 10.8181 98.182 10.3678 97.6338 9.94968L96.9798 9.46718C96.6249 9.1777 96.3665 8.9445 96.2049 8.76759C96.0594 8.5746 95.9872 8.36553 95.9872 8.14038C95.9872 7.89913 96.092 7.69006 96.3015 7.51315C96.512 7.33624 96.8019 7.24779 97.1731 7.24779C97.3511 7.24779 97.5127 7.27191 97.6572 7.32016C97.8189 7.35233 97.9562 7.39253 98.0691 7.44078C98.2145 7.50511 98.3518 7.58553 98.481 7.68201C98.6264 7.76243 98.7556 7.85893 98.8685 7.97151Z" fill="white"/>
<path d="M101.017 6.01813C101.017 5.23008 100.961 4.61895 100.847 4.18471C100.734 3.7344 100.565 3.40471 100.34 3.19563V2.97852H106.997V3.19563C106.771 3.40471 106.602 3.7344 106.489 4.18471C106.392 4.61895 106.343 5.23008 106.343 6.01813V13.0381C106.343 13.6493 106.472 14.1157 106.731 14.4374C107.005 14.759 107.401 14.9199 107.917 14.9199C108.433 14.9199 108.829 14.759 109.104 14.4374C109.378 14.1157 109.515 13.6493 109.515 13.0381V6.01813C109.515 5.23008 109.459 4.61895 109.346 4.18471C109.249 3.7344 109.079 3.40471 108.837 3.19563V2.97852H115.519V3.19563C115.277 3.40471 115.099 3.7344 114.986 4.18471C114.873 4.61895 114.817 5.23008 114.817 6.01813V13.5448C114.817 14.944 114.543 16.1341 113.994 17.1151C113.462 18.0961 112.679 18.8521 111.645 19.3828C110.628 19.8974 109.385 20.1547 107.917 20.1547C106.464 20.1547 105.222 19.8974 104.188 19.3828C103.172 18.8521 102.389 18.0961 101.84 17.1151C101.292 16.1341 101.017 14.944 101.017 13.5448V6.01813Z" fill="white"/>
<path d="M116.396 4.20883C116.526 4.67523 116.59 5.35875 116.59 6.25937V16.5844C116.59 17.3725 116.534 17.9916 116.421 18.4419C116.308 18.8762 116.138 19.1978 115.912 19.4069V19.624H122.449V19.4069C122.223 19.1978 122.053 18.8762 121.94 18.4419C121.828 17.9916 121.771 17.3725 121.771 16.5844V11.5868L125.281 14.6545H125.402L128.817 11.3119V16.5844C128.817 17.3725 128.76 17.9916 128.647 18.4419C128.534 18.8762 128.356 19.1978 128.114 19.4069V19.624H134.675V19.4069C134.433 19.1978 134.256 18.8762 134.142 18.4419C134.029 17.9916 133.973 17.3725 133.973 16.5844V6.25937C133.973 5.35875 134.037 4.67523 134.166 4.20883C134.312 3.74244 134.513 3.40471 134.772 3.19563V2.97852H129.01V3.14738C129.22 3.53337 129.285 3.92739 129.203 4.32946C129.123 4.71543 128.881 5.10142 128.477 5.4874L125.391 8.57915L122.158 5.43915C121.755 5.03709 121.513 4.65111 121.432 4.28121C121.352 3.89523 121.416 3.51728 121.626 3.14738V2.97852H115.791V3.19563C116.066 3.40471 116.267 3.74244 116.396 4.20883Z" fill="white"/>
</g>
<defs>
<clipPath id="clip0_4006_48">
<rect width="140" height="36" fill="white" transform="translate(0.600098 0.799805)"/>
</clipPath>
</defs>
</svg>
