<svg width="126" height="25" viewBox="0 0 126 25" fill="none" xmlns="http://www.w3.org/2000/svg">
<g clip-path="url(#clip0_4006_15)">
<path d="M58.2275 3.00056C58.0344 4.37611 58.9247 5.40151 60.3119 5.40151C61.6995 5.40151 62.8777 4.37611 63.0709 3.00056C63.2641 1.62502 62.3735 0.599609 60.986 0.599609C59.5988 0.599609 58.4206 1.62502 58.2275 3.00056Z" fill="white"/>
<path d="M58.2622 6.52734L57.0723 15.0044L60.8764 14.8584L62.0457 6.52734H58.2622Z" fill="white"/>
<path fill-rule="evenodd" clip-rule="evenodd" d="M48.2703 19.2074C51.2713 19.2074 53.822 17.6074 55.0974 15.1839L57.0359 15.2633L56.528 18.8821H60.3119L60.7981 15.4173L62.8041 15.4995L61.5882 24.1594H65.3723L66.3023 17.5318C66.9297 18.6322 68.1103 19.2074 69.599 19.2074C71.6109 19.2074 73.9734 18.1672 75.3855 16.0146L76.8346 16.0739C77.0816 17.9441 78.8221 19.2074 81.5834 19.2074C84.7868 19.2074 87.1444 17.5068 87.5027 14.9557C87.9136 12.0296 85.2306 11.5544 83.4746 11.3043L83.3215 11.2809C82.2599 11.1188 81.4495 10.9951 81.5499 10.2789C81.6205 9.77871 82.0655 9.30351 82.9985 9.30351C83.7557 9.30351 84.2144 9.62865 84.2347 10.2039H87.9172C88.154 7.97799 86.4865 6.20228 83.3837 6.20228C80.2808 6.20228 78.0422 7.95297 77.6911 10.4539C77.2736 13.4301 80.0392 13.8553 81.7192 14.1054L81.8119 14.1195L81.9411 14.139L81.9423 14.1392C82.9698 14.2938 83.7449 14.4103 83.6367 15.1809C83.5631 15.706 83.1283 16.1062 81.968 16.1062C80.9339 16.1062 80.5003 15.7811 80.5661 15.1308L53.7873 15.1303L55.1521 15.078C55.5196 14.3517 55.7737 13.5539 55.8929 12.7048C56.4195 8.95335 54.0309 6.20228 50.0959 6.20228C50.0349 6.20228 49.9741 6.20294 49.9135 6.20425L49.9255 6.19617L37.9969 6.19618C37.826 6.19503 37.6638 6.19502 37.5117 6.19618H37.9969C41.0602 6.21685 46.8978 6.60585 46.1468 7.23957C44.1855 8.37051 42.8054 10.3387 42.4733 12.7048C41.9466 16.4563 44.3352 19.2074 48.2703 19.2074ZM48.7618 15.706C50.4771 15.706 51.8094 14.4805 52.0587 12.7048C52.308 10.9291 51.3197 9.70365 49.6044 9.70365C47.889 9.70365 46.5567 10.9291 46.3074 12.7048C46.0582 14.4805 47.0465 15.706 48.7618 15.706Z" fill="white"/>
<path d="M72.7311 12.7047C72.6384 13.3685 72.3938 13.9554 72.0343 14.4301L76.2197 14.2695C76.3639 13.8283 76.4739 13.3569 76.5445 12.8548C77.1025 8.87821 74.7036 6.20215 70.7431 6.20215C66.9345 6.20215 63.7616 8.67811 63.1785 12.8298L62.9052 14.7804L67.2897 14.6121C66.9907 14.1089 66.8746 13.4561 66.9799 12.7047C67.2293 10.929 68.5618 9.70351 70.2772 9.70351C71.9925 9.70351 72.9805 10.929 72.7311 12.7047Z" fill="white"/>
<path d="M102.247 16.9834L102.957 11.9294C103.515 7.95283 106.082 6.20215 109.108 6.20215C110.874 6.20215 112.268 6.87739 113.018 8.17795C114.134 6.87739 115.692 6.20215 117.483 6.20215C120.51 6.20215 122.585 7.95283 122.027 11.9294L121.051 18.8822H117.267L118.243 11.9294C118.475 10.2787 117.748 9.70351 116.613 9.70351C115.503 9.70351 114.616 10.2787 114.384 11.9294L113.408 18.8822H109.624L110.6 11.9294C110.832 10.2787 110.106 9.70351 108.995 9.70351C107.86 9.70351 106.972 10.2787 106.741 11.9294L105.765 18.8822H103.497L103.498 18.8836H98.1964C100.396 18.6604 102.086 18.0576 102.244 16.978L102.247 16.9834Z" fill="white"/>
<path d="M94.1749 19.2074C90.4919 19.2074 88.3148 17.1065 88.901 12.9299L89.5636 8.21136C89.6695 6.99252 88.7108 6.84024 86.5959 6.53485H89.7987L89.7999 6.52734H93.584L92.6851 12.9299C92.4111 14.8807 93.2538 15.706 94.6665 15.706C96.0792 15.706 97.1534 14.8807 97.4273 12.9299L98.3262 6.52734H102.11L101.211 12.9299C100.628 17.0815 97.8579 19.2074 94.1749 19.2074Z" fill="white"/>
<path d="M29.7361 17.4199C29.4686 17.1269 29.2378 16.8028 29.0465 16.4512L26.345 16.3039C24.9477 18.0881 22.7527 19.2073 20.2428 19.2073C16.3076 19.2073 13.9191 16.4562 14.4457 12.7047C14.9723 8.95321 18.1332 6.20215 22.0683 6.20215C26.0034 6.20215 28.392 8.95321 27.8654 12.7047C27.745 13.5622 27.4869 14.3675 27.1136 15.0996L22.2468 15.3483C23.1944 14.8609 23.8621 13.9095 24.0311 12.7047C24.2804 10.929 23.2921 9.70351 21.5768 9.70351C19.8615 9.70351 18.5291 10.929 18.2799 12.7047C18.0933 14.034 18.6002 15.0549 19.5864 15.4842L15.3161 15.7025H34.8411V15.7047C36.5113 15.6612 37.8002 14.4481 38.0449 12.7047C38.2941 10.929 37.3058 9.70351 35.5905 9.70351C33.8752 9.70351 32.5429 10.929 32.2936 12.7047C32.1736 13.56 32.3406 14.2876 32.7377 14.8121L28.5228 15.0275C28.3691 14.3148 28.343 13.5342 28.4594 12.7047C28.986 8.95321 32.1469 6.20215 36.082 6.20215C40.0171 6.20215 42.4057 8.95321 41.8791 12.7047C41.3704 16.3285 38.4038 19.0188 34.6557 19.1978C35.5384 19.6953 36.8205 20.0976 37.7629 20.3932C38.0773 20.4919 38.3539 20.5786 38.5652 20.6531C39.4211 20.8649 39.968 21.6556 39.8356 22.5986C39.6805 23.7038 38.6511 24.5998 37.5363 24.5998H31.4811C29.5018 24.5998 28.0535 23.1874 27.9706 21.3237L20.5021 20.5983H28.0061L28.0062 20.5974H34.4633C32.9869 20.0313 31.4268 18.8988 30.4237 18.0442C30.1737 17.8563 29.9443 17.6479 29.7369 17.4208L29.7361 17.4199Z" fill="white"/>
<path d="M0.299927 2.52543L3.39072 3.01791L1.1639 18.8819H13.0448L13.5715 15.1304H5.77694L7.54628 2.52539L0.299927 2.52543Z" fill="white"/>
<path d="M125.3 5.3253C125.3 6.12251 124.655 6.76878 123.858 6.76878C123.062 6.76878 122.417 6.12251 122.417 5.3253C122.417 4.5281 123.062 3.88184 123.858 3.88184C124.655 3.88184 125.3 4.5281 125.3 5.3253Z" fill="white"/>
</g>
<defs>
<clipPath id="clip0_4006_15">
<rect width="125" height="24" fill="white" transform="translate(0.299927 0.599609)"/>
</clipPath>
</defs>
</svg>
