<svg width="85" height="49" viewBox="0 0 85 49" fill="none" xmlns="http://www.w3.org/2000/svg">
<g clip-path="url(#clip0_2065_232)">
<path d="M45.1057 2.53918C46.2159 1.38421 47.7237 0.735352 49.2938 0.735352C56.3577 0.735352 63.0147 0.735355 69.5704 0.735368C82.7558 0.735396 89.3584 17.3196 80.035 27.0189L59.7262 48.1462C58.794 49.1161 57.1998 48.4291 57.1998 47.0574V28.4493L59.5467 26.0076C61.4114 24.0678 60.0908 20.7509 57.4537 20.7509H27.5996L45.1057 2.53918Z" fill="black"/>
<path d="M39.6933 46.6611C38.5832 47.8161 37.0754 48.465 35.5053 48.465C28.4414 48.465 21.7844 48.465 15.2287 48.465C2.04321 48.4649 -4.55942 31.8807 4.76406 22.1814L25.0728 1.05414C26.0051 0.0842082 27.5993 0.771154 27.5993 2.14284L27.5995 20.7509L25.2524 23.1926C23.3877 25.1325 24.7083 28.4493 27.3454 28.4493L57.1996 28.4492L39.6933 46.6611Z" fill="black"/>
</g>
<defs>
<clipPath id="clip0_2065_232">
<rect width="84" height="48" fill="white" transform="translate(0.399414 0.600098)"/>
</clipPath>
</defs>
</svg>
