<svg width="126" height="25" viewBox="0 0 126 25" fill="none" xmlns="http://www.w3.org/2000/svg">
<g clip-path="url(#clip0_2065_204)">
<path d="M58.2274 3.00105C58.0343 4.37659 58.9246 5.402 60.3118 5.402C61.6994 5.402 62.8776 4.37659 63.0708 3.00105C63.264 1.6255 62.3734 0.600098 60.9859 0.600098C59.5987 0.600098 58.4205 1.6255 58.2274 3.00105Z" fill="black"/>
<path d="M58.2622 6.52734L57.0723 15.0044L60.8764 14.8584L62.0457 6.52734H58.2622Z" fill="black"/>
<path fill-rule="evenodd" clip-rule="evenodd" d="M48.2703 19.2074C51.2713 19.2074 53.822 17.6074 55.0974 15.1839L57.0359 15.2633L56.528 18.8821H60.3119L60.7981 15.4173L62.8041 15.4995L61.5882 24.1594H65.3723L66.3023 17.5318C66.9297 18.6322 68.1103 19.2074 69.599 19.2074C71.6109 19.2074 73.9734 18.1672 75.3855 16.0146L76.8346 16.0739C77.0816 17.9441 78.8221 19.2074 81.5834 19.2074C84.7868 19.2074 87.1444 17.5068 87.5027 14.9557C87.9136 12.0296 85.2306 11.5544 83.4746 11.3043L83.3215 11.2809C82.2599 11.1188 81.4495 10.9951 81.5499 10.2789C81.6205 9.77871 82.0655 9.30351 82.9985 9.30351C83.7557 9.30351 84.2144 9.62865 84.2347 10.2039H87.9172C88.154 7.97799 86.4865 6.20228 83.3837 6.20228C80.2808 6.20228 78.0422 7.95297 77.6911 10.4539C77.2736 13.4301 80.0392 13.8553 81.7192 14.1054L81.8119 14.1195L81.9411 14.139L81.9423 14.1392C82.9698 14.2938 83.7449 14.4103 83.6367 15.1809C83.5631 15.706 83.1283 16.1062 81.968 16.1062C80.9339 16.1062 80.5003 15.7811 80.5661 15.1308L53.7873 15.1303L55.1521 15.078C55.5196 14.3517 55.7737 13.5539 55.8929 12.7048C56.4195 8.95335 54.0309 6.20228 50.0959 6.20228C50.0349 6.20228 49.9741 6.20294 49.9135 6.20425L49.9255 6.19617L37.9969 6.19618C37.826 6.19503 37.6638 6.19502 37.5117 6.19618H37.9969C41.0602 6.21685 46.8978 6.60585 46.1468 7.23957C44.1855 8.37051 42.8054 10.3387 42.4733 12.7048C41.9466 16.4563 44.3352 19.2074 48.2703 19.2074ZM48.7618 15.706C50.4771 15.706 51.8094 14.4805 52.0587 12.7048C52.308 10.9291 51.3197 9.70365 49.6044 9.70365C47.889 9.70365 46.5567 10.9291 46.3074 12.7048C46.0582 14.4805 47.0465 15.706 48.7618 15.706Z" fill="black"/>
<path d="M72.7312 12.7052C72.6385 13.369 72.3939 13.9558 72.0345 14.4306L76.2199 14.2699C76.364 13.8288 76.4741 13.3574 76.5446 12.8553C77.1026 8.8787 74.7037 6.20264 70.7432 6.20264C66.9346 6.20264 63.7617 8.6786 63.1786 12.8302L62.9053 14.7808L67.2898 14.6126C66.9908 14.1094 66.8748 13.4566 66.98 12.7052C67.2294 10.9295 68.562 9.704 70.2773 9.704C71.9926 9.704 72.9806 10.9295 72.7312 12.7052Z" fill="black"/>
<path d="M102.247 16.9839L102.956 11.9299C103.515 7.95332 106.081 6.20264 109.108 6.20264C110.874 6.20264 112.267 6.87788 113.018 8.17844C114.134 6.87788 115.692 6.20264 117.483 6.20264C120.51 6.20264 122.585 7.95332 122.027 11.9299L121.051 18.8827H117.267L118.243 11.9299C118.475 10.2792 117.748 9.704 116.613 9.704C115.503 9.704 114.616 10.2792 114.383 11.9299L113.407 18.8827H109.624L110.6 11.9299C110.831 10.2792 110.105 9.704 108.995 9.704C107.86 9.704 106.972 10.2792 106.741 11.9299L105.764 18.8827H103.497L103.498 18.8841H98.1963C100.396 18.6609 102.086 18.0581 102.244 16.9785L102.247 16.9839Z" fill="black"/>
<path d="M94.1746 19.2074C90.4916 19.2074 88.3146 17.1065 88.9007 12.9299L89.5634 8.21136C89.6693 6.99252 88.7105 6.84024 86.5957 6.53485H89.7985L89.7996 6.52734H93.5837L92.6848 12.9299C92.4109 14.8807 93.2536 15.706 94.6663 15.706C96.079 15.706 97.1531 14.8807 97.427 12.9299L98.326 6.52734H102.109L101.211 12.9299C100.628 17.0815 97.8577 19.2074 94.1746 19.2074Z" fill="black"/>
<path d="M29.7358 17.4204C29.4684 17.1274 29.2375 16.8033 29.0462 16.4517L26.3447 16.3044C24.9474 18.0886 22.7524 19.2078 20.2425 19.2078C16.3074 19.2078 13.9188 16.4567 14.4454 12.7052C14.9721 8.9537 18.1329 6.20264 22.068 6.20264C26.0032 6.20264 28.3917 8.9537 27.8651 12.7052C27.7447 13.5627 27.4867 14.368 27.1133 15.1L22.2465 15.3487C23.1941 14.8614 23.8618 13.9099 24.0309 12.7052C24.2802 10.9295 23.2918 9.704 21.5765 9.704C19.8613 9.704 18.5289 10.9295 18.2796 12.7052C18.093 14.0344 18.6 15.0554 19.5862 15.4847L15.3159 15.703H34.8409V15.7052C36.5111 15.6616 37.7999 14.4486 38.0447 12.7052C38.2939 10.9295 37.3055 9.704 35.5902 9.704C33.875 9.704 32.5426 10.9295 32.2933 12.7052C32.1733 13.5604 32.3404 14.2881 32.7374 14.8126L28.5226 15.028C28.3688 14.3152 28.3427 13.5347 28.4591 12.7052C28.9857 8.9537 32.1466 6.20264 36.0817 6.20264C40.0168 6.20264 42.4054 8.9537 41.8788 12.7052C41.3701 16.329 38.4035 19.0193 34.6554 19.1983C35.5381 19.6957 36.8203 20.098 37.7627 20.3937C38.0771 20.4924 38.3537 20.5791 38.565 20.6536C39.4209 20.8654 39.9677 21.6561 39.8354 22.5991C39.6802 23.7043 38.6508 24.6003 37.5361 24.6003H31.4809C29.5016 24.6003 28.0533 23.1879 27.9703 21.3242L20.5018 20.5988H28.0058L28.006 20.5979H34.4631C32.9866 20.0318 31.4265 18.8992 30.4235 18.0447C30.1734 17.8567 29.9441 17.6484 29.7366 17.4213L29.7358 17.4204Z" fill="black"/>
<path d="M0.299805 2.52591L3.39059 3.01839L1.16378 18.8824H13.0447L13.5713 15.1309H5.77681L7.54616 2.52588L0.299805 2.52591Z" fill="black"/>
<path d="M125.299 5.32628C125.299 6.12348 124.654 6.76976 123.857 6.76976C123.061 6.76976 122.416 6.12348 122.416 5.32628C122.416 4.52907 123.061 3.88281 123.857 3.88281C124.654 3.88281 125.299 4.52907 125.299 5.32628Z" fill="black"/>
</g>
<defs>
<clipPath id="clip0_2065_204">
<rect width="125" height="24" fill="white" transform="translate(0.299805 0.600098)"/>
</clipPath>
</defs>
</svg>
