<svg width="143" height="37" viewBox="0 0 143 37" fill="none" xmlns="http://www.w3.org/2000/svg">
<path d="M16.5724 7.64062V3.14062H2.37244V34.0583H16.5724V29.5583C13.6636 29.5583 10.8738 28.4036 8.81695 26.3485C6.76007 24.2933 5.60453 21.5059 5.60453 18.5995C5.60453 15.693 6.76007 12.9055 8.81695 10.8504C10.8738 8.79522 13.6636 7.64062 16.5724 7.64062Z" fill="white"/>
<path d="M16.5725 7.64062V29.5583C19.4814 29.5583 22.2712 28.4036 24.328 26.3485C26.3849 24.2933 27.5404 21.5059 27.5404 18.5995C27.5404 15.693 26.3849 12.9055 24.328 10.8504C22.2712 8.79522 19.4814 7.64062 16.5725 7.64062Z" fill="white"/>
<path d="M35.5093 10.3936H38.6884V25.6936H35.5093V10.3936Z" fill="white"/>
<path d="M40.4688 20.4523C40.4688 19.3515 40.7959 18.2755 41.4086 17.3607C42.0213 16.4459 42.8921 15.7334 43.9106 15.3136C44.929 14.8939 46.0493 14.7856 47.1293 15.0027C48.2094 15.2198 49.2006 15.7524 49.9774 16.5329C50.7541 17.3136 51.2815 18.307 51.4926 19.3874C51.7036 20.4678 51.589 21.5865 51.163 22.6017C50.737 23.6168 50.019 24.4828 49.0999 25.0897C48.1808 25.6967 47.1021 26.0173 46.0004 26.0111C45.2697 26.0168 44.5452 25.8767 43.8694 25.5989C43.1937 25.3212 42.5801 24.9114 42.0649 24.3937C41.5497 23.876 41.1432 23.2606 40.869 22.5838C40.595 21.907 40.4589 21.1823 40.4688 20.4523ZM48.4377 20.4523C48.4252 19.9777 48.2729 19.5173 48 19.1288C47.727 18.7402 47.3455 18.4407 46.903 18.2677C46.4605 18.0947 45.9769 18.0558 45.5125 18.1561C45.0481 18.2563 44.6235 18.491 44.292 18.8311C43.9604 19.1711 43.7365 19.6012 43.6483 20.0677C43.5601 20.5342 43.6115 21.0163 43.7961 21.4537C43.9807 21.8911 44.2903 22.2645 44.6862 22.527C45.082 22.7896 45.5464 22.9297 46.0216 22.9299C46.3451 22.9363 46.6664 22.8758 46.9655 22.7523C47.2645 22.629 47.5349 22.4453 47.7596 22.2128C47.9844 21.9802 48.1587 21.7038 48.2718 21.401C48.3848 21.098 48.4341 20.7751 48.4165 20.4523H48.4377Z" fill="white"/>
<path d="M64.1107 15.2117V25.1752C64.1107 28.6905 61.3555 30.1835 58.5685 30.1835C57.5854 30.2641 56.5993 30.0689 55.7214 29.62C54.8433 29.171 54.1081 28.4861 53.5985 27.6423L56.2795 26.0964C56.4968 26.5341 56.8423 26.8952 57.2702 27.1316C57.6981 27.3681 58.1879 27.4687 58.6744 27.42C58.9844 27.4581 59.2989 27.4274 59.5955 27.33C59.8923 27.2324 60.1636 27.0708 60.3904 26.8562C60.6173 26.6417 60.7939 26.3799 60.9076 26.0892C61.0213 25.7987 61.0693 25.4865 61.0482 25.1752V24.2117C60.6782 24.6599 60.2088 25.0157 59.6772 25.251C59.1456 25.4862 58.5665 25.5944 57.9856 25.567C56.5804 25.567 55.2327 25.0092 54.2391 24.0164C53.2454 23.0236 52.6871 21.677 52.6871 20.2729C52.6871 18.8688 53.2454 17.5223 54.2391 16.5294C55.2327 15.5366 56.5804 14.9788 57.9856 14.9788C58.5665 14.9514 59.1456 15.0596 59.6772 15.2948C60.2088 15.5301 60.6782 15.8859 61.0482 16.3341V15.2752L64.1107 15.2117ZM61.0482 20.2411C61.0693 19.7346 60.9383 19.2332 60.672 18.8017C60.4057 18.3701 60.0163 18.028 59.5538 17.8193C59.0913 17.6106 58.5771 17.5449 58.0769 17.6307C57.5768 17.7165 57.1137 17.9497 56.7474 18.3005C56.381 18.6513 56.1281 19.1036 56.0211 19.5993C55.914 20.0949 55.9578 20.6111 56.1467 21.0816C56.3358 21.5522 56.6613 21.9555 57.0815 22.2397C57.5018 22.5238 57.9975 22.676 58.5049 22.6764C58.8361 22.7002 59.1685 22.6544 59.4807 22.542C59.793 22.4294 60.0782 22.2527 60.3178 22.0231C60.5575 21.7937 60.7464 21.5165 60.8722 21.2095C60.9979 20.9026 61.0579 20.5726 61.0482 20.2411Z" fill="white"/>
<path d="M65.9016 20.4524C65.9016 19.3525 66.2282 18.2774 66.84 17.363C67.4517 16.4486 68.3212 15.7361 69.3384 15.3157C70.3556 14.8953 71.4748 14.7858 72.5543 15.0012C73.6338 15.2165 74.6251 15.747 75.4028 16.5254C76.1804 17.304 76.7094 18.2955 76.9228 19.3744C77.1364 20.4535 77.0247 21.5715 76.602 22.587C76.1792 23.6026 75.4645 24.47 74.5482 25.0796C73.6319 25.6891 72.5553 26.0133 71.4544 26.0112C70.7224 26.0183 69.9962 25.8793 69.3186 25.6023C68.6411 25.3253 68.0256 24.916 67.5084 24.3982C66.9912 23.8804 66.5827 23.2647 66.3067 22.5872C66.0309 21.9097 65.8931 21.1838 65.9016 20.4524ZM73.8706 20.4524C73.8581 19.9774 73.7055 19.5166 73.4321 19.1278C73.1587 18.7391 72.7764 18.4396 72.3334 18.2669C71.8903 18.0942 71.4061 18.056 70.9414 18.1571C70.4768 18.2581 70.0523 18.494 69.7211 18.835C69.3899 19.1761 69.1669 19.6072 69.08 20.0744C68.993 20.5416 69.0459 21.024 69.232 21.4611C69.4182 21.8984 69.7295 22.271 70.1267 22.5324C70.5239 22.7936 70.9895 22.932 71.465 22.93C71.7886 22.9364 72.1099 22.8759 72.4089 22.7525C72.708 22.6291 72.9783 22.4454 73.2031 22.2129C73.4278 21.9804 73.6021 21.7039 73.7152 21.4011C73.8283 21.0982 73.8776 20.7752 73.86 20.4524H73.8706Z" fill="white"/>
<path d="M78.4802 12.4052C78.4802 12.0325 78.5909 11.6681 78.7981 11.3581C79.0054 11.0482 79.3 10.8066 79.6446 10.664C79.9893 10.5213 80.3686 10.484 80.7345 10.5567C81.1003 10.6294 81.4365 10.8089 81.7003 11.0725C81.9641 11.3361 82.1437 11.672 82.2165 12.0375C82.2893 12.4031 82.2519 12.7821 82.1092 13.1265C81.9664 13.4708 81.7246 13.7652 81.4144 13.9723C81.1043 14.1794 80.7396 14.2899 80.3665 14.2899C79.8679 14.2844 79.3914 14.0841 79.0388 13.7318C78.6862 13.3795 78.4857 12.9034 78.4802 12.4052ZM78.7875 15.2111H81.9666V25.6935H78.7875V15.2111Z" fill="white"/>
<path d="M95.5733 20.4527C95.6089 21.1499 95.5062 21.8472 95.271 22.5045C95.036 23.1618 94.673 23.7662 94.2033 24.2828C93.7334 24.7995 93.166 25.2182 92.5336 25.5149C91.9013 25.8115 91.2164 25.9803 90.5185 26.0115C89.9262 26.0509 89.3327 25.9562 88.7823 25.7343C88.2318 25.5124 87.7386 25.1693 87.3394 24.7304V29.908H84.1603V15.2115H87.3394V16.1963C87.7391 15.7586 88.2327 15.4171 88.7832 15.197C89.3337 14.9769 89.927 14.8842 90.5185 14.9257C91.2137 14.9569 91.8958 15.1247 92.526 15.4194C93.1562 15.7141 93.7222 16.13 94.1915 16.6432C94.661 17.1564 95.0245 17.757 95.2616 18.4107C95.4987 19.0643 95.6046 19.7581 95.5733 20.4527ZM92.3942 20.4527C92.3817 19.9609 92.2241 19.4838 91.9413 19.0811C91.6586 18.6785 91.2631 18.368 90.8046 18.189C90.3461 18.0098 89.8448 17.97 89.3636 18.0743C88.8825 18.1786 88.443 18.4225 88.0999 18.7754C87.7569 19.1283 87.5258 19.5745 87.4356 20.0582C87.3453 20.5418 87.3999 21.0412 87.5925 21.494C87.7852 21.9466 88.1072 22.3325 88.5184 22.6031C88.9296 22.8737 89.4115 23.017 89.9039 23.0151C90.2411 23.0294 90.5775 22.9723 90.8911 22.8476C91.2047 22.7228 91.4884 22.5333 91.7236 22.2914C91.9587 22.0494 92.1399 21.7605 92.2555 21.4437C92.3712 21.1268 92.4183 20.7891 92.3942 20.4527Z" fill="white"/>
<path d="M105.248 22.549C105.248 24.9632 103.129 25.9902 100.882 25.9902C99.9659 26.0726 99.046 25.8785 98.2413 25.4331C97.4365 24.9876 96.784 24.3112 96.3679 23.4914L99.102 21.9455C99.2103 22.3233 99.4451 22.6525 99.7672 22.878C100.089 23.1035 100.479 23.2116 100.872 23.1843C101.624 23.1843 102.006 22.9514 102.006 22.5279C102.006 21.3737 96.8448 21.9879 96.8448 18.3561C96.8448 16.069 98.7734 14.9255 100.956 14.9255C101.786 14.8883 102.611 15.0765 103.342 15.4698C104.073 15.8632 104.684 16.4471 105.11 17.1596L102.376 18.5996C102.256 18.3264 102.058 18.0941 101.808 17.9307C101.558 17.7672 101.266 17.6796 100.967 17.6784C100.416 17.6784 100.087 17.8902 100.087 18.2608C100.087 19.4679 105.248 18.6737 105.248 22.549Z" fill="white"/>
<path d="M116.767 15.2109V25.6933H113.588V24.7086C113.227 25.1445 112.768 25.4894 112.25 25.7156C111.731 25.9419 111.166 26.043 110.6 26.0109C108.48 26.0109 106.668 24.4968 106.668 21.6698V15.2109H109.847V21.1933C109.822 21.4434 109.852 21.6959 109.934 21.9335C110.017 22.171 110.149 22.3879 110.323 22.5691C110.498 22.7503 110.71 22.8915 110.944 22.9831C111.178 23.0746 111.43 23.1142 111.681 23.0992C112.825 23.0992 113.631 22.4215 113.631 20.9815V15.2109H116.767Z" fill="white"/>
<path d="M134.782 19.2564V25.6941H131.603V19.5317C131.603 18.4729 131.105 17.8164 130.098 17.8164C129.092 17.8164 128.456 18.547 128.456 19.7858V25.6941H125.277V19.5317C125.277 18.4729 124.779 17.8164 123.772 17.8164C122.765 17.8164 122.129 18.547 122.129 19.7858V25.6941H118.95V15.2117H122.129V16.1752C122.459 15.7496 122.888 15.4125 123.381 15.1943C123.873 14.9762 124.412 14.8839 124.948 14.9258C125.485 14.8978 126.022 15.01 126.503 15.2513C126.984 15.4926 127.394 15.8548 127.693 16.3023C128.042 15.8347 128.504 15.4633 129.036 15.2226C129.567 14.9818 130.152 14.8798 130.734 14.9258C133.214 14.9258 134.782 16.6411 134.782 19.2564Z" fill="white"/>
<path d="M137.453 15.1481C138.74 15.1481 139.784 14.1051 139.784 12.8187C139.784 11.5322 138.74 10.4893 137.453 10.4893C136.165 10.4893 135.121 11.5322 135.121 12.8187C135.121 14.1051 136.165 15.1481 137.453 15.1481Z" fill="white"/>
</svg>
