<svg width="85" height="49" viewBox="0 0 85 49" fill="none" xmlns="http://www.w3.org/2000/svg">
<g clip-path="url(#clip0_4006_43)">
<path d="M45.1062 2.5382C46.2164 1.38323 47.7242 0.734375 49.2943 0.734375C56.3582 0.734375 63.0152 0.734379 69.5709 0.734392C82.7563 0.734419 89.3589 17.3187 80.0355 27.0179L59.7267 48.1452C58.7945 49.1152 57.2003 48.4282 57.2003 47.0565V28.4483L59.5472 26.0067C61.4119 24.0668 60.0913 20.7499 57.4542 20.7499H27.6001L45.1062 2.5382Z" fill="white"/>
<path d="M39.6939 46.6607C38.5838 47.8157 37.076 48.4645 35.5059 48.4645C28.442 48.4645 21.785 48.4645 15.2293 48.4645C2.04382 48.4644 -4.55881 31.8803 4.76467 22.1809L25.0735 1.05365C26.0057 0.0837199 27.5999 0.770666 27.5999 2.14235L27.6001 20.7504L25.253 23.1921C23.3883 25.1321 24.7089 28.4489 27.346 28.4489L57.2002 28.4487L39.6939 46.6607Z" fill="white"/>
</g>
<defs>
<clipPath id="clip0_4006_43">
<rect width="84" height="48" fill="white" transform="translate(0.400024 0.599609)"/>
</clipPath>
</defs>
</svg>
