<svg width="134" height="25" viewBox="0 0 134 25" fill="none" xmlns="http://www.w3.org/2000/svg">
<g clip-path="url(#clip0_4006_181)">
<path fill-rule="evenodd" clip-rule="evenodd" d="M23.9787 1.3622C24.7552 0.618248 25.9794 0.614866 26.76 1.3373L26.8339 1.40908L27.0863 1.67422C29.6433 4.42914 30.5961 7.63963 30.3517 10.775C30.1038 13.9547 28.6389 16.9531 26.5953 19.3226C24.553 21.6905 21.8263 23.5553 18.879 24.3647C15.8945 25.1842 12.6304 24.9229 9.79706 22.9194C7.39392 21.22 6.47897 18.4735 6.41682 15.8054C5.06827 15.1429 3.64935 14.3195 2.16056 13.3181L1.76717 13.0505L1.68337 12.9899C0.838142 12.3431 0.644881 11.146 1.2609 10.2672C1.87711 9.38839 3.07696 9.15 3.98404 9.7086L4.07129 9.76525L4.42968 10.0094C5.32153 10.6093 6.17254 11.1293 6.98174 11.5783C7.50375 9.74335 8.36873 7.98156 9.50819 6.52932C11.2153 4.35374 13.7749 2.61389 16.9106 2.87347C19.735 3.10745 21.8219 4.56686 22.8991 6.6265C23.9421 8.62087 23.9575 11.02 23.046 13.0832C22.1166 15.1865 20.2299 16.9389 17.5159 17.6609C15.5627 18.1805 13.2746 18.1448 10.6928 17.449V17.45C9.66509 17.1729 8.58803 16.7902 7.4624 16.2932C7.20988 16.1818 6.9901 16.3521 7.4624 16.6477C8.79162 17.5927 10.6641 18.3848 11.206 18.6507C11.462 19.0657 11.7796 19.406 12.1436 19.6634C13.8186 20.8479 15.7781 21.0649 17.8004 20.5096C19.8597 19.9441 21.9237 18.5806 23.5246 16.7244C25.1243 14.8696 26.1557 12.6473 26.3257 10.4669C26.486 8.40961 25.8933 6.29608 24.1078 4.37546L23.9314 4.1904L23.8609 4.11422C23.1583 3.31748 23.2025 2.10611 23.9787 1.3622ZM16.5743 6.85992C15.2788 6.75265 13.9116 7.43574 12.6967 8.98398C11.7715 10.1631 11.0714 11.6952 10.7145 13.2717C13.257 14.1423 15.1518 14.1482 16.4684 13.7981C17.9925 13.3926 18.9064 12.4746 19.3463 11.4791C19.8038 10.4434 19.757 9.31477 19.3132 8.46637C18.9037 7.68331 18.0792 6.9846 16.5743 6.85992Z" fill="white"/>
<path d="M83.7747 8.96156C82.6499 8.96156 81.9278 8.11562 82.0842 6.98078C82.2407 5.84596 83.1964 5 84.3218 5C85.4465 5 86.1687 5.84596 86.0123 6.98078C85.8558 8.11562 84.9001 8.96156 83.7747 8.96156Z" fill="white"/>
<path d="M80.7061 20.0824L82.1125 9.88965H85.1811L83.7747 20.0824H80.7061Z" fill="white"/>
<path fill-rule="evenodd" clip-rule="evenodd" d="M86.1001 15.0899L84.8098 24.4367H87.8784L88.6331 18.9689C89.1422 19.8767 90.0997 20.3513 91.3064 20.3513C93.598 20.3513 96.45 18.6594 96.9393 15.1104C97.3925 11.8298 95.4468 9.62207 92.2349 9.62207C89.1459 9.62207 86.5725 11.6647 86.1001 15.0899ZM93.8472 14.9867C93.645 16.4516 92.5641 17.4626 91.1734 17.4626C89.782 17.4626 88.9804 16.4516 89.1826 14.9867C89.3848 13.5217 90.4656 12.5107 91.8564 12.5107C93.2478 12.5107 94.0494 13.5217 93.8472 14.9867Z" fill="white"/>
<path d="M101.026 20.3513C98.4281 20.3513 96.9441 18.9482 97.1733 16.9881H100.201C100.147 17.5246 100.5 17.7928 101.338 17.7928C102.279 17.7928 102.632 17.4626 102.691 17.0294C102.779 16.3937 102.15 16.2975 101.317 16.1701L101.314 16.1695C101.255 16.1606 101.196 16.1515 101.136 16.1422C99.7738 15.9358 97.5308 15.585 97.8696 13.1297C98.1543 11.0664 99.9699 9.62207 102.486 9.62207C105.002 9.62207 106.355 11.087 106.163 12.9233H103.176C103.16 12.4488 102.788 12.1806 102.174 12.1806C101.417 12.1806 101.056 12.5726 100.999 12.9852C100.918 13.5762 101.575 13.6782 102.436 13.8119L102.56 13.8312C103.984 14.0375 106.16 14.4296 105.827 16.8437C105.536 18.9482 103.624 20.3513 101.026 20.3513Z" fill="white"/>
<path d="M118.36 14.3471L117.569 20.0831H120.637L121.429 14.3471C121.617 12.9853 122.337 12.5107 123.258 12.5107C124.158 12.5107 124.747 12.9853 124.559 14.3471L123.767 20.0831H126.836L127.627 14.3471C127.816 12.9853 128.536 12.5107 129.436 12.5107C130.357 12.5107 130.946 12.9853 130.758 14.3471L129.966 20.0831H133.035L133.827 14.3471C134.279 11.0664 132.597 9.62207 130.141 9.62207C128.689 9.62207 127.425 10.1792 126.521 11.2521C125.912 10.1792 124.781 9.62207 123.349 9.62207C120.894 9.62207 118.813 11.0664 118.36 14.3471Z" fill="white"/>
<path d="M106.961 15.1717C106.486 18.6175 108.251 20.3506 111.238 20.3506C114.225 20.3506 116.472 18.5968 116.945 15.1717L117.673 9.88965H114.605L113.876 15.1717C113.654 16.7811 112.782 17.462 111.637 17.462C110.491 17.462 109.808 16.7811 110.03 15.1717L110.759 9.88965H107.69L106.961 15.1717Z" fill="white"/>
<path fill-rule="evenodd" clip-rule="evenodd" d="M69.3071 14.9867C68.8805 18.0817 70.8177 20.3513 74.0091 20.3513C77.2005 20.3513 79.7636 18.0817 80.1909 14.9867C80.6182 11.8917 78.6809 9.62207 75.4895 9.62207C72.2981 9.62207 69.7344 11.8917 69.3071 14.9867ZM77.0813 14.9867C76.8791 16.4516 75.7983 17.4626 74.4075 17.4626C73.0161 17.4626 72.2145 16.4516 72.4167 14.9867C72.6189 13.5217 73.6998 12.5107 75.0905 12.5107C76.4819 12.5107 77.2835 13.5217 77.0813 14.9867Z" fill="white"/>
<path fill-rule="evenodd" clip-rule="evenodd" d="M59.5366 19.3929C58.297 18.4461 57.6823 16.869 57.942 14.9867C58.3691 11.8917 60.9326 9.62207 64.1238 9.62207C67.3151 9.62207 69.2524 11.8917 68.8257 14.9867C68.4129 17.9762 66.0068 20.1957 62.9677 20.3435C63.6832 20.7539 64.7232 21.0857 65.4875 21.3296C65.7426 21.4111 65.9671 21.4828 66.1386 21.5443C66.8325 21.7193 67.2754 22.3714 67.1683 23.1491C67.0425 24.061 66.2078 24.8001 65.3033 24.8001H60.3927C58.5846 24.8001 57.3228 23.3217 57.5744 21.4981H62.8112C61.6148 21.0314 60.3502 20.0978 59.5366 19.3929ZM63.0423 17.4626C64.4331 17.4626 65.5139 16.4516 65.7161 14.9867C65.9184 13.5217 65.1167 12.5107 63.7254 12.5107C62.3346 12.5107 61.2537 13.5217 61.0516 14.9867C60.8494 16.4516 61.6509 17.4626 63.0423 17.4626Z" fill="white"/>
<path fill-rule="evenodd" clip-rule="evenodd" d="M46.5768 14.9867C46.1497 18.0817 48.0868 20.3513 51.2782 20.3513C54.4697 20.3513 57.0332 18.0817 57.4603 14.9867C57.8874 11.8917 55.9502 9.62207 52.7588 9.62207C49.5674 9.62207 47.0038 11.8917 46.5768 14.9867ZM54.3507 14.9867C54.1486 16.4516 53.068 17.4626 51.6769 17.4626C50.2857 17.4626 49.4842 16.4516 49.6863 14.9867C49.8885 13.5217 50.9691 12.5107 52.3602 12.5107C53.7513 12.5107 54.5529 13.5217 54.3507 14.9867Z" fill="white"/>
<path d="M35.8051 20.083L37.6671 6.58887H40.9812L39.5463 16.988H45.8677L45.4406 20.083H35.8051Z" fill="white"/>
</g>
<defs>
<clipPath id="clip0_4006_181">
<rect width="133" height="24" fill="white" transform="translate(0.900024 0.799805)"/>
</clipPath>
</defs>
</svg>
