<svg width="138" height="25" viewBox="0 0 138 25" fill="none" xmlns="http://www.w3.org/2000/svg">
<g clip-path="url(#clip0_2065_360)">
<path d="M53.1444 8.25977C53.1444 12.72 53.1444 14.4807 47.2275 14.4807C53.1444 14.4807 53.1444 16.2413 53.1444 20.7016C53.1444 16.2679 53.1444 14.4807 58.9686 14.4807C53.1444 14.4807 53.1444 12.6935 53.1444 8.25977Z" fill="black"/>
<path fill-rule="evenodd" clip-rule="evenodd" d="M23.9716 24.4307C21.9252 24.4307 20.1262 24.0215 18.5745 23.203C17.0397 22.3675 15.8375 21.2079 14.9679 19.7243C14.8279 19.4778 14.6992 19.2246 14.5822 18.9647L13.895 24.0726H0.261719V23.8169H0.287321C0.901179 23.8169 1.3957 23.6548 1.77084 23.3309C2.14598 23.0069 2.33355 22.538 2.33355 21.9241V7.1909C2.33355 6.5771 2.14598 6.08252 1.77084 5.70738C1.3957 5.33224 0.901179 5.14468 0.287321 5.14468H0.261719V4.88887H8.42126V5.14468H8.31893C7.705 5.14468 7.21049 5.33224 6.83538 5.70738C6.46022 6.08252 6.27267 6.5771 6.27267 7.1909V22.0264C6.27267 22.5721 6.40057 22.9984 6.65632 23.3053C6.92916 23.5952 7.3981 23.7401 8.06313 23.7401H8.60026C10.1179 23.7401 11.3968 23.2713 12.437 22.3333C13.4516 21.4186 14.1011 20.1389 14.3857 18.4943C13.9212 17.2911 13.689 15.9532 13.689 14.4808C13.689 12.4857 14.1153 10.7464 14.9679 9.26275C15.8375 7.76216 17.0397 6.60259 18.5745 5.78408C20.1262 4.94854 21.9252 4.53076 23.9716 4.53076C25.9685 4.53076 27.7218 4.92868 29.2316 5.72441C30.842 4.92868 32.7122 4.53076 34.8424 4.53076C35.5074 4.53076 36.053 4.55637 36.4794 4.60746C36.9227 4.64164 37.315 4.68427 37.6559 4.73536C37.997 4.78657 38.3722 4.83766 38.7814 4.88887C39.2078 4.92293 39.7364 4.93997 40.3673 4.93997L41.1347 10.0557H40.8789C40.5719 8.43574 39.8813 7.16532 38.8071 6.24448C37.7498 5.32368 36.4282 4.86327 34.8424 4.86327C33.8704 4.86327 32.9837 5.09347 32.1822 5.55388C31.6543 5.85719 31.1781 6.23819 30.7537 6.69697C30.5562 6.91034 30.37 7.14068 30.1949 7.38782C30.1752 7.41568 30.1555 7.44378 30.1361 7.47217C29.9716 7.71639 29.8173 7.97524 29.6731 8.24872C29.4835 8.60854 29.3114 8.99412 29.1572 9.40441C29.0933 9.57375 29.0326 9.74755 28.9749 9.92567C28.9153 10.1094 28.859 10.2977 28.8059 10.4906C28.4989 11.6671 28.3455 12.9717 28.3455 14.404C28.3455 15.7244 28.4657 16.9385 28.7063 18.0467L28.2998 19.254C28.087 19.8858 27.8324 20.4386 27.5398 20.9174C27.3598 21.2015 27.1691 21.4566 26.9687 21.6843L26.9495 21.7062C26.3164 21.1295 25.7756 20.4689 25.3272 19.7243C24.4234 18.2237 23.9716 16.4588 23.9716 14.4296C23.9716 12.4515 24.4234 10.7208 25.3272 9.23723C25.9442 8.22419 26.7283 7.36634 27.6793 6.66343C27.2949 6.21725 26.869 5.84743 26.4015 5.55388C25.6682 5.09347 24.8582 4.86327 23.9716 4.86327C23.0848 4.86327 22.2748 5.09347 21.5415 5.55388C20.8083 6.01428 20.1859 6.66226 19.6743 7.49793C19.1457 8.33348 18.7365 9.34798 18.4466 10.5417C18.1737 11.7182 18.0373 13.0228 18.0373 14.4552C18.0373 15.8876 18.1737 17.1921 18.4466 18.3686C18.7365 19.5453 19.1457 20.5514 19.6743 21.3869C20.1859 22.2226 20.8083 22.8705 21.5415 23.3309C22.2748 23.7914 23.0848 24.0215 23.9716 24.0215C24.8582 24.0215 25.6682 23.7914 26.4015 23.3309C27.1347 22.8705 27.7657 22.2226 28.2943 21.3869C28.8059 20.5514 29.198 19.5453 29.4708 18.3686C29.7608 17.1921 29.9057 15.8876 29.9057 14.4552C29.9057 13.1601 29.7872 11.9695 29.5502 10.8836L29.9891 9.71676C30.2388 9.0526 30.534 8.47286 30.8709 7.97207C30.9608 7.84136 31.0538 7.71662 31.1497 7.59762C31.233 7.49412 31.3185 7.39508 31.4062 7.30025L31.4254 7.28409C32.0192 7.86004 32.5272 8.51951 32.9495 9.26275C33.8192 10.7464 34.254 12.4857 34.254 14.4808C34.254 16.4759 33.8192 18.2237 32.9495 19.7243C32.3715 20.7301 31.6328 21.587 30.7334 22.295C31.111 22.7083 31.5257 23.0536 31.9776 23.3309C32.745 23.7914 33.5975 24.0215 34.5354 24.0215C35.2346 24.0215 35.8996 23.9022 36.5306 23.6634C37.1785 23.4247 37.673 23.1263 38.0141 22.7682V16.2458C38.0141 15.6318 37.8265 15.1372 37.4514 14.7621C37.0762 14.387 36.5817 14.1994 35.9678 14.1994H35.8911V13.9436H42.8721C42.9426 12.1718 43.3653 10.6116 44.1406 9.26275C45.0102 7.76216 46.2124 6.60259 47.7471 5.78408C49.2989 4.94854 51.0979 4.53076 53.1442 4.53076C55.1904 4.53076 56.9809 4.94854 58.5156 5.78408C60.0672 6.60259 61.2695 7.76216 62.1224 9.26275C62.6826 10.2186 63.0625 11.2806 63.2615 12.4488V7.1909C63.2615 6.5771 63.0742 6.08252 62.699 5.70738C62.3238 5.33224 61.8292 5.14468 61.2151 5.14468H61.1899V4.88887H76.5798C77.8928 4.9059 79.0354 5.13611 80.0071 5.57948C80.9964 6.00582 81.7632 6.60259 82.3093 7.37003C82.5148 7.65001 82.6822 7.94831 82.8128 8.26476C83.0223 7.27695 83.5316 6.46709 84.34 5.83528C85.4487 4.96557 86.9068 4.53076 88.7138 4.53076C89.1575 4.53076 89.5158 4.5478 89.7886 4.58197C89.9039 4.59553 90.0163 4.61039 90.1263 4.62666C90.2926 4.65129 90.453 4.67895 90.6069 4.70976C90.8797 4.76097 91.1952 4.8036 91.5535 4.83766C91.9117 4.87184 92.3718 4.88887 92.9343 4.88887H101.015V5.14468H100.938C100.324 5.14468 99.8299 5.33224 99.4547 5.70738C99.0795 6.08252 98.8916 6.5771 98.8916 7.1909V17.3455C98.8916 19.1531 99.3523 20.5855 100.273 21.6427C101.211 22.683 102.473 23.203 104.059 23.203C105.661 23.203 106.923 22.6744 107.844 21.6172C108.765 20.5429 109.226 19.119 109.226 17.3455V7.57461C109.226 6.84138 109.004 6.26162 108.561 5.83528C108.117 5.40894 107.529 5.17874 106.796 5.14468V4.88887H115.237L121.479 19.3406L127.72 4.88887H132.503V5.14468C131.957 5.14468 131.496 5.30664 131.121 5.63068C130.746 5.95462 130.576 6.39799 130.61 6.96068L131.914 22.1031C131.999 22.683 132.272 23.1178 132.733 23.4076C133.21 23.6975 133.679 23.8425 134.139 23.8425V24.0726H126.21V23.8425C126.5 23.8425 126.798 23.7743 127.106 23.6378C127.412 23.5015 127.66 23.3053 127.847 23.0495C128.052 22.7937 128.129 22.4954 128.077 22.1543L126.824 8.035L119.714 24.4307L112.552 8.00942L111.349 21.4637C111.281 22.1457 111.477 22.7 111.938 23.1263C112.398 23.5526 112.961 23.7827 113.626 23.8169V24.0726H108.51V23.8169C109.158 23.7827 109.704 23.5441 110.147 23.1007C110.591 22.6573 110.846 22.1031 110.914 21.4381L112.193 7.29323C111.869 6.62819 111.46 6.10812 110.965 5.73299C110.881 5.66366 110.793 5.60052 110.699 5.54346C110.565 5.62764 110.44 5.72485 110.326 5.83528C109.882 6.26162 109.661 6.84138 109.661 7.57461V17.3455C109.661 18.778 109.362 20.0228 108.765 21.08C108.185 22.1373 107.341 22.9642 106.233 23.5611C105.142 24.1409 103.837 24.4307 102.319 24.4307C100.819 24.4307 99.5144 24.1409 98.4057 23.5611C97.2976 22.9813 96.436 22.1627 95.8225 21.1056C95.2254 20.0313 94.9269 18.778 94.9269 17.3455V7.1909C94.9269 6.5771 94.7396 6.08252 94.3644 5.70738C94.0026 5.3458 93.5302 5.15856 92.9472 5.14544L93.1901 10.0557H92.9343C92.6961 8.46981 92.1845 7.21648 91.4001 6.29569C90.6151 5.37488 89.6692 4.91447 88.5605 4.91447C87.7761 4.91447 87.1451 5.14468 86.668 5.60508C86.2073 6.06549 85.9773 6.67941 85.9773 7.44671C85.9773 8.11168 86.1903 8.7512 86.6165 9.36513C87.0602 9.96191 87.8188 10.6611 88.893 11.4626L89.9929 12.2811C91.1185 13.0996 92.0053 13.8583 92.6534 14.5575C93.3183 15.2396 93.7954 15.9047 94.0857 16.5526C94.3755 17.2006 94.5207 17.8912 94.5207 18.6244C94.5207 19.7499 94.2391 20.7475 93.676 21.6171C93.1134 22.4868 92.3291 23.1689 91.3228 23.6634C90.3341 24.1409 89.1657 24.3967 87.8188 24.4307C87.3757 24.4307 87.0087 24.4137 86.7189 24.3796C86.4461 24.3455 86.1734 24.3028 85.9006 24.2517C85.6278 24.2005 85.2953 24.1579 84.9031 24.1238C84.5109 24.0898 83.9735 24.0726 83.2916 24.0726L82.396 17.4222H82.7033C82.9591 19.5196 83.5386 21.1396 84.4424 22.2822C85.3632 23.4076 86.5398 23.9704 87.9722 23.9704C89.0294 23.9704 89.8904 23.672 90.556 23.0751C91.221 22.4783 91.5535 21.7024 91.5535 20.7475C91.5535 20.3382 91.4768 19.946 91.3228 19.5709C91.1864 19.1958 90.9482 18.795 90.6069 18.3686C90.2656 17.9424 89.8137 17.482 89.2512 16.9874C88.6887 16.4759 87.9892 15.9047 87.1538 15.2737L86.1049 14.4808C84.8264 13.5088 83.9396 12.6391 83.445 11.8718C83.2887 11.6294 83.157 11.3803 83.0504 11.1242C82.9222 11.743 82.6752 12.3076 82.3093 12.8182C81.7632 13.5855 80.9788 14.1909 79.9562 14.6342C78.9499 15.0606 77.7564 15.2737 76.3749 15.2737H74.0217V21.7706C74.0217 22.3845 74.2091 22.879 74.5843 23.2541C74.9595 23.6294 75.4541 23.8169 76.0682 23.8169H76.1191V24.0726H61.1899V23.8169H61.2151C61.8292 23.8169 62.3238 23.6294 62.699 23.2541C63.0742 22.879 63.2615 22.3845 63.2615 21.7706V16.5161C63.0625 17.6882 62.6826 18.7576 62.1224 19.7243C61.2695 21.2079 60.0672 22.3675 58.5156 23.203C56.9809 24.0215 55.1904 24.4307 53.1442 24.4307C51.0979 24.4307 49.2989 24.0215 47.7471 23.203C46.2124 22.3675 45.0102 21.2079 44.1406 19.7243C43.2914 18.2299 42.8651 16.4904 42.8616 14.5054C42.7467 14.5781 42.6399 14.6636 42.5415 14.7621C42.1663 15.1372 41.9788 15.6318 41.9788 16.2458V22.7682C41.6377 23.1092 41.092 23.4076 40.3417 23.6634C39.6085 23.9022 38.7729 24.0898 37.835 24.2262C36.9142 24.3626 35.9934 24.4307 35.0726 24.4307C32.8467 24.4307 30.9083 24.0366 29.2573 23.2481C27.7417 24.0366 25.9798 24.4307 23.9716 24.4307ZM55.5741 23.3309C54.8409 23.7914 54.0309 24.0215 53.1442 24.0215C52.2574 24.0215 51.4475 23.7914 50.7142 23.3309C49.9809 22.8705 49.3586 22.2226 48.847 21.3869C48.3184 20.5514 47.9091 19.5453 47.6192 18.3686C47.3464 17.1921 47.2099 15.8876 47.2099 14.4552C47.2099 13.0228 47.3464 11.7182 47.6192 10.5417C47.9091 9.34798 48.3184 8.33348 48.847 7.49793C49.3586 6.66226 49.9809 6.01428 50.7142 5.55388C51.4475 5.09347 52.2574 4.86327 53.1442 4.86327C54.0309 4.86327 54.8409 5.09347 55.5741 5.55388C56.3073 6.01428 56.9383 6.66226 57.4669 7.49793C57.9785 8.33348 58.3706 9.34798 58.6435 10.5417C58.9334 11.7182 59.0785 13.0228 59.0785 14.4552C59.0785 15.8876 58.9334 17.1921 58.6435 18.3686C58.3706 19.5453 57.9785 20.5514 57.4669 21.3869C56.9383 22.2226 56.3073 22.8705 55.5741 23.3309ZM69.5197 23.2541C69.2803 23.4939 68.9917 23.657 68.6545 23.7436C68.3174 23.657 68.0288 23.4939 67.7888 23.2541C67.4141 22.879 67.2262 22.3845 67.2262 21.7706V7.1909C67.2262 6.5771 67.4141 6.08252 67.7888 5.70738C68.0288 5.46763 68.3174 5.30447 68.6545 5.21801C68.9917 5.30447 69.2803 5.46763 69.5197 5.70738C69.8949 6.08252 70.0828 6.5771 70.0828 7.1909V21.7706C70.0828 22.3845 69.8949 22.879 69.5197 23.2541ZM75.5308 14.9412H74.0217V5.22137H75.5051C76.2385 5.22137 76.8777 5.43454 77.4239 5.86089C77.9695 6.27009 78.3874 6.84138 78.6772 7.57461C78.9839 8.30784 79.1373 9.14339 79.1373 10.0813C79.1373 11.0192 78.9839 11.8547 78.6772 12.588C78.3874 13.3212 77.9695 13.901 77.4239 14.3273C76.8953 14.7366 76.2643 14.9412 75.5308 14.9412Z" fill="black"/>
<path d="M137.508 2.79351C137.508 3.77515 136.713 4.57091 135.731 4.57091C134.749 4.57091 133.953 3.77515 133.953 2.79351C133.953 1.81188 134.749 1.01611 135.731 1.01611C136.713 1.01611 137.508 1.81188 137.508 2.79351Z" fill="black"/>
</g>
<defs>
<clipPath id="clip0_2065_360">
<rect width="137.561" height="24" fill="white" transform="translate(0.219727 0.800293)"/>
</clipPath>
</defs>
</svg>
