<svg width="141" height="37" viewBox="0 0 141 37" fill="none" xmlns="http://www.w3.org/2000/svg">
<g clip-path="url(#clip0_2065_237)">
<path d="M13.5259 27.8374C13.5256 27.8737 13.5254 27.9101 13.5254 27.9466C13.5254 28.2261 13.5354 28.5004 13.5556 28.7695H19.1696C19.1191 28.5092 19.0938 28.2348 19.0938 27.9466C19.0938 27.9099 19.0942 27.8736 19.095 27.8374H13.5259Z" fill="black"/>
<path d="M6.67588 27.8374V28.7695H1.34961V27.8374H6.67588Z" fill="black"/>
<path d="M13.5752 26.8893H19.2256C19.2974 26.6176 19.3986 26.3591 19.5291 26.1135C19.5599 26.0602 19.5919 26.0081 19.6249 25.957H13.7112C13.6515 26.2604 13.6062 26.5711 13.5752 26.8893Z" fill="black"/>
<path d="M6.67588 25.957V26.8893H1.34961V25.957H6.67588Z" fill="black"/>
<path d="M13.0276 25.0083C12.805 24.7964 12.4955 24.6341 12.099 24.5212C11.6632 24.4086 11.0419 24.3523 10.2348 24.3523H6.67588V25.0083H1.34961V24.0762H13.3095V25.0083H13.0276Z" fill="black"/>
<path d="M13.9521 25.0083H20.5496C20.6264 24.9558 20.7059 24.906 20.788 24.8588C21.3207 24.5534 21.934 24.4005 22.6281 24.4005C23.3221 24.4005 23.9274 24.5534 24.4438 24.8588C24.526 24.906 24.6053 24.9558 24.6817 25.0083H31.264C31.1939 24.7936 31.1156 24.583 31.0291 24.3764C30.9881 24.2751 30.9454 24.175 30.9012 24.0762H14.3109C14.2652 24.175 14.2211 24.2751 14.1787 24.3764C14.0951 24.583 14.0196 24.7936 13.9521 25.0083Z" fill="black"/>
<path d="M14.8223 23.1279H30.4021C30.2015 22.8003 29.9792 22.4896 29.7352 22.1958H15.4962C15.2508 22.4896 15.0262 22.8003 14.8223 23.1279Z" fill="black"/>
<path d="M16.4336 21.2472H28.8053C28.4 20.8963 27.9599 20.5856 27.485 20.3149H17.7593C17.2863 20.5856 16.8445 20.8963 16.4336 21.2472Z" fill="black"/>
<path d="M13.3099 20.3149V21.2472H1.25347C1.22667 21.0856 1.19429 20.9386 1.15634 20.8063C1.10848 20.6223 1.04757 20.4585 0.973633 20.3149H13.3099Z" fill="black"/>
<path d="M37.3129 20.3149C37.2902 20.3258 37.2674 20.3368 37.2447 20.3479C36.7158 20.6083 36.2297 20.9081 35.7861 21.2472H47.694C47.6971 21.2367 47.7003 21.2265 47.7036 21.2164C47.8166 20.8625 47.9941 20.5891 48.2362 20.3961V20.3149H37.3129Z" fill="black"/>
<path d="M52.7047 20.3149C52.2316 20.5856 51.7898 20.8963 51.3789 21.2472H63.7508C63.3454 20.8963 62.9052 20.5856 62.4303 20.3149H52.7047Z" fill="black"/>
<path d="M90.0303 20.3149H97.594C97.8785 20.4671 98.1413 20.6389 98.3825 20.8303C98.5478 20.9628 98.7004 21.1018 98.8422 21.2472H90.0303V20.3149Z" fill="black"/>
<path d="M74.8574 20.3149H80.9448C80.8704 20.451 80.8038 20.6067 80.7451 20.7821C80.6996 20.9182 80.6612 21.0732 80.6299 21.2472H75.1165C75.093 21.0856 75.0646 20.9386 75.0315 20.8063C74.9836 20.6223 74.9255 20.4585 74.8574 20.3149Z" fill="black"/>
<path d="M67.6338 20.3149H73.6471C73.5789 20.4585 73.5209 20.6223 73.4731 20.8063C73.4398 20.9386 73.4115 21.0856 73.3881 21.2472H67.8928C67.8694 21.0856 67.8411 20.9386 67.8078 20.8063C67.76 20.6223 67.702 20.4585 67.6338 20.3149Z" fill="black"/>
<path d="M64.6806 22.1958H50.4415C50.1961 22.4896 49.9715 22.8003 49.7676 23.1279H65.3474C65.1468 22.8003 64.9244 22.4896 64.6806 22.1958Z" fill="black"/>
<path d="M67.9779 23.1279V22.6639C67.9779 22.5006 67.9755 22.3446 67.9707 22.1958H73.3115C73.3067 22.3446 73.3043 22.5006 73.3043 22.6639V23.1279H67.9779Z" fill="black"/>
<path d="M65.8464 24.0762H49.2562C49.2106 24.175 49.1664 24.2751 49.124 24.3764C49.0404 24.583 48.9649 24.7936 48.8975 25.0083H55.4949C55.5718 24.9558 55.6512 24.906 55.7333 24.8588C56.266 24.5534 56.8794 24.4005 57.5734 24.4005C58.2674 24.4005 58.8727 24.5534 59.3892 24.8588C59.4713 24.906 59.5506 24.9558 59.6271 25.0083H66.2092C66.1393 24.7936 66.061 24.583 65.9744 24.3764C65.9334 24.2751 65.8908 24.175 65.8464 24.0762Z" fill="black"/>
<path d="M67.9775 25.0083V24.0762H73.3039V25.0083H67.9775Z" fill="black"/>
<path d="M66.4596 25.957H60.5332C60.5649 26.0081 60.5953 26.0602 60.6244 26.1135C60.7622 26.3591 60.8689 26.6176 60.9448 26.8893H66.6007C66.5686 26.5711 66.5215 26.2604 66.4596 25.957Z" fill="black"/>
<path d="M67.9775 26.8893V25.957H73.3039V26.8893H67.9775Z" fill="black"/>
<path d="M66.6517 27.8374H61.0825C61.0834 27.8736 61.0838 27.9099 61.0838 27.9466C61.0838 28.2348 61.0572 28.5092 61.0039 28.7695H66.621C66.6418 28.5004 66.6522 28.2261 66.6522 27.9466C66.6522 27.9101 66.652 27.8737 66.6517 27.8374Z" fill="black"/>
<path d="M67.9775 28.7695V27.8374H73.3039V28.7695H67.9775Z" fill="black"/>
<path d="M66.5012 29.7183H60.659C60.6477 29.7391 60.636 29.7597 60.6242 29.7802C60.4408 30.1151 60.2093 30.4052 59.9297 30.6504H66.2823C66.3713 30.3476 66.4443 30.037 66.5012 29.7183Z" fill="black"/>
<path d="M67.9775 30.6504V29.7183H73.3039V30.6504H67.9775Z" fill="black"/>
<path d="M65.9412 31.5991H49.1592C49.2986 31.9232 49.4545 32.2338 49.6266 32.5313H65.4859C65.6546 32.2338 65.8064 31.9232 65.9412 31.5991Z" fill="black"/>
<path d="M67.9775 32.5313V31.5991H73.3039V32.5313H67.9775Z" fill="black"/>
<path d="M64.8548 33.4795H50.2646C50.4941 33.7742 50.7433 34.0528 51.0122 34.3154C51.0459 34.3478 51.0801 34.3799 51.1143 34.4116H64.0098C64.0434 34.3799 64.0768 34.3478 64.1099 34.3154C64.3789 34.0528 64.6271 33.7742 64.8548 33.4795Z" fill="black"/>
<path d="M67.9219 34.4116C67.9521 34.1392 67.97 33.8285 67.9757 33.4795H73.3059C73.3116 33.8285 73.3296 34.1392 73.3597 34.4116H67.9219Z" fill="black"/>
<path d="M62.792 35.3604H52.3428C52.825 35.6679 53.3419 35.9308 53.8934 36.149C55.0071 36.5833 56.2338 36.8004 57.5734 36.8004C58.8969 36.8004 60.1155 36.5833 61.2292 36.149C61.7889 35.9308 62.3098 35.6679 62.792 35.3604Z" fill="black"/>
<path d="M46.3481 34.4116V33.4795H34.5342C34.8194 33.8163 35.1342 34.127 35.4787 34.4116H46.3481Z" fill="black"/>
<path d="M36.915 35.3604H46.3481V36.5833C45.9929 36.4707 45.6378 36.4144 45.2828 36.4144C45.0406 36.4144 44.6936 36.4466 44.2417 36.5109C43.8059 36.5752 43.2975 36.6074 42.7165 36.6074C40.6343 36.6074 38.8428 36.2616 37.3417 35.57C37.1962 35.5031 37.054 35.4332 36.915 35.3604Z" fill="black"/>
<path d="M29.0653 34.4116C29.099 34.3799 29.1324 34.3478 29.1656 34.3154C29.4345 34.0528 29.6828 33.7742 29.9105 33.4795H15.3203C15.5497 33.7742 15.7989 34.0528 16.0678 34.3154C16.1016 34.3478 16.1357 34.3799 16.17 34.4116H29.0653Z" fill="black"/>
<path d="M17.3975 35.3604H27.8466C27.3645 35.6679 26.8435 35.9308 26.2838 36.149C25.1702 36.5833 23.9516 36.8004 22.6281 36.8004C21.2885 36.8004 20.0618 36.5833 18.9481 36.149C18.3966 35.9308 17.8797 35.6679 17.3975 35.3604Z" fill="black"/>
<path d="M6.74239 34.4116C6.70647 34.1396 6.68514 33.8289 6.67836 33.4795H1.34775C1.34205 33.8285 1.32412 34.1392 1.29395 34.4116H6.74239Z" fill="black"/>
<path d="M1.0915 35.3604H6.98801C7.1195 35.6679 7.28184 35.8986 7.47499 36.0525V36.2697H0.671875V36.0525C0.844855 35.8925 0.984736 35.6618 1.0915 35.3604Z" fill="black"/>
<path d="M1.34961 32.5313H6.67588V31.5991H1.34961V32.5313Z" fill="black"/>
<path d="M1.34961 30.6504H6.67588V29.7183H1.34961V30.6504Z" fill="black"/>
<path d="M13.6709 29.7183C13.7257 30.037 13.7961 30.3476 13.8819 30.6504H20.2445C19.9611 30.4052 19.7225 30.1151 19.529 29.7802C19.5178 29.7597 19.5068 29.7391 19.496 29.7183H13.6709Z" fill="black"/>
<path d="M25.7139 29.7183C25.7024 29.7391 25.6908 29.7597 25.679 29.7802C25.4957 30.1151 25.2641 30.4052 24.9844 30.6504H31.3371C31.4261 30.3476 31.4991 30.037 31.556 29.7183H25.7139Z" fill="black"/>
<path d="M32.8223 29.7183C32.8779 30.0393 32.9487 30.35 33.0346 30.6504H39.5011C39.2074 30.4249 38.9637 30.1591 38.7705 29.8526C38.7426 29.8085 38.7159 29.7637 38.6903 29.7183H32.8223Z" fill="black"/>
<path d="M38.3335 28.7695H32.704C32.6806 28.471 32.6689 28.1646 32.6689 27.8502C32.6689 27.8459 32.6689 27.8416 32.6689 27.8374H38.2373C38.2381 28.168 38.2701 28.4787 38.3335 28.7695Z" fill="black"/>
<path d="M48.1184 28.7695H42.0049C42.1761 28.562 42.3086 28.2717 42.4023 27.8984C42.4075 27.8784 42.4125 27.8581 42.4175 27.8374H47.6891C47.694 27.8581 47.6991 27.8784 47.7043 27.8984C47.798 28.2717 47.936 28.562 48.1184 28.7695Z" fill="black"/>
<path d="M48.6162 29.7183C48.671 30.037 48.7414 30.3476 48.8272 30.6504H55.1898C54.9064 30.4052 54.6679 30.1151 54.4744 29.7802C54.4632 29.7597 54.4521 29.7391 54.4413 29.7183H48.6162Z" fill="black"/>
<path d="M54.1149 28.7695H48.5008C48.4807 28.5004 48.4707 28.2261 48.4707 27.9466C48.4707 27.9101 48.4709 27.8737 48.4712 27.8374H54.0404C54.0395 27.8736 54.0391 27.9099 54.0391 27.9466C54.0391 28.2348 54.0644 28.5092 54.1149 28.7695Z" fill="black"/>
<path d="M54.1708 26.8893C54.2427 26.6176 54.344 26.3591 54.4744 26.1135C54.5052 26.0602 54.5372 26.0081 54.5702 25.957H48.6565C48.5968 26.2604 48.5515 26.5711 48.5205 26.8893H54.1708Z" fill="black"/>
<path d="M47.5594 26.8893C47.5426 26.6341 47.5342 26.3514 47.5342 26.0412V25.957H42.5711V26.0412C42.5711 26.3514 42.5627 26.6341 42.5459 26.8893H47.5594Z" fill="black"/>
<path d="M38.3336 26.8893C38.4061 26.556 38.5197 26.2453 38.6745 25.957H32.8487C32.7881 26.2595 32.7429 26.5703 32.7129 26.8893H38.3336Z" fill="black"/>
<path d="M31.6553 26.8893C31.6232 26.5711 31.5761 26.2604 31.5142 25.957H25.5879C25.6195 26.0081 25.6499 26.0602 25.679 26.1135C25.8168 26.3591 25.9235 26.6176 25.9994 26.8893H31.6553Z" fill="black"/>
<path d="M26.1372 27.8374C26.1381 27.8736 26.1385 27.9099 26.1385 27.9466C26.1385 28.2348 26.1119 28.5092 26.0586 28.7695H31.6757C31.6965 28.5004 31.7069 28.2261 31.7069 27.9466C31.7069 27.9101 31.7067 27.8737 31.7064 27.8374H26.1372Z" fill="black"/>
<path d="M33.0977 25.0083H39.483C39.6774 24.8515 39.8916 24.7133 40.1256 24.5936C40.7389 24.3041 41.4572 24.1593 42.2804 24.1593C42.3778 24.1593 42.4747 24.1603 42.5709 24.1623V25.0083H47.534V24.0762H33.4726C33.3281 24.3764 33.2032 24.6872 33.0977 25.0083Z" fill="black"/>
<path d="M34.0166 23.1279H47.534V22.881C47.534 22.6305 47.5402 22.4021 47.5526 22.1958H34.7484C34.4826 22.4864 34.2386 22.7971 34.0166 23.1279Z" fill="black"/>
<path d="M46.3485 31.5991H33.3711C33.5104 31.9238 33.6702 32.2346 33.8509 32.5313H46.3485V31.5991Z" fill="black"/>
<path d="M30.5406 32.5313C30.7094 32.2338 30.8612 31.9232 30.996 31.5991H14.2139C14.3534 31.9232 14.5093 32.2338 14.6814 32.5313H30.5406Z" fill="black"/>
<path d="M67.7194 35.3604H73.5622C73.669 35.6618 73.8089 35.8925 73.9819 36.0525V36.2697H67.2998V36.0525C67.4728 35.8925 67.6127 35.6618 67.7194 35.3604Z" fill="black"/>
<path d="M74.9155 35.3604C74.803 35.6618 74.6479 35.8925 74.4502 36.0525V36.2697H82.2217C83.6743 36.2697 84.9171 36.0364 85.9502 35.57C86.1031 35.5044 86.2508 35.4345 86.3935 35.3604H74.9155Z" fill="black"/>
<path d="M91.6777 35.3604C92.7968 36.0952 94.2971 36.4626 96.1803 36.4626C96.6166 36.4626 97.0113 36.4385 97.3672 36.3902C97.7221 36.342 97.9886 36.3179 98.1656 36.3179C98.4402 36.3179 98.7392 36.3742 99.0616 36.4868V35.3604H91.6777Z" fill="black"/>
<path d="M99.0613 34.4116H90.6095C90.3749 34.1252 90.1842 33.8146 90.0371 33.4795H99.0613V34.4116Z" fill="black"/>
<path d="M100.758 35.3604C100.651 35.6618 100.511 35.8925 100.338 36.0525V36.2697H106.996V36.0525C106.823 35.8925 106.683 35.6618 106.576 35.3604H100.758Z" fill="black"/>
<path d="M106.391 34.4116H100.961C100.992 34.1392 101.009 33.8285 101.015 33.4795H106.345C106.35 33.8285 106.365 34.1392 106.391 34.4116Z" fill="black"/>
<path d="M109.265 35.3604C109.165 35.6618 109.022 35.8925 108.837 36.0525V36.2697H115.519V36.0525C115.334 35.8925 115.186 35.6618 115.076 35.3604H109.265Z" fill="black"/>
<path d="M114.872 34.4116H109.458C109.489 34.1392 109.507 33.8285 109.512 33.4795H114.819C114.824 33.8285 114.842 34.1392 114.872 34.4116Z" fill="black"/>
<path d="M116.288 35.3604C116.163 35.6643 115.998 35.895 115.791 36.0525V36.2697H121.626V36.1008C121.488 35.8575 121.412 35.6106 121.4 35.3604H116.288Z" fill="black"/>
<path d="M121.666 34.4116H116.515C116.549 34.1408 116.572 33.8301 116.581 33.4795H122.497L122.157 33.8088C121.951 34.0139 121.788 34.2149 121.666 34.4116Z" fill="black"/>
<path d="M129.233 35.3604C129.217 35.6104 129.142 35.8571 129.01 36.1008V36.2697H134.771V36.0525C134.577 35.895 134.415 35.6643 134.284 35.3604H129.233Z" fill="black"/>
<path d="M134.046 34.4116H129.004C128.879 34.1946 128.703 33.9776 128.476 33.7606L128.195 33.4795H133.979C133.99 33.8301 134.012 34.1408 134.046 34.4116Z" fill="black"/>
<path d="M133.972 32.5313V31.5991H126.318L127.249 32.5313H133.972Z" fill="black"/>
<path d="M123.472 32.5313L124.432 31.5991H116.589V32.5313H123.472Z" fill="black"/>
<path d="M114.817 32.5313V31.5991H109.515V32.5313H114.817Z" fill="black"/>
<path d="M106.343 32.5313V31.5991H101.017V32.5313H106.343Z" fill="black"/>
<path d="M99.0607 32.5313V31.5991H98.4339C98.3824 31.6356 98.3291 31.6695 98.2749 31.7009C98.2081 31.7402 98.1394 31.7754 98.0681 31.8068C97.9814 31.844 97.8802 31.8763 97.7646 31.9039C97.7519 31.9069 97.7384 31.9099 97.7257 31.9129C97.7032 31.9179 97.6797 31.9228 97.6562 31.9274C97.5108 31.9757 97.35 31.9998 97.1721 31.9998C96.8008 31.9998 96.5109 31.9114 96.3005 31.7345C96.2499 31.6913 96.2047 31.6462 96.1659 31.5991H89.667C89.6675 31.9247 89.6949 32.2355 89.749 32.5313H99.0607Z" fill="black"/>
<path d="M88.9127 32.5313C89.015 32.2367 89.0918 31.9259 89.1428 31.5991H82.9897C82.6667 31.7537 82.2575 31.8311 81.7622 31.8311H80.5274V31.5991H75.2012V32.5313H88.9127Z" fill="black"/>
<path d="M75.1992 33.4795C75.1927 33.8285 75.1722 34.1392 75.1377 34.4116H87.7157C87.9621 34.1693 88.1808 33.904 88.3718 33.6158C88.4022 33.5708 88.4318 33.5254 88.4605 33.4795H75.1992Z" fill="black"/>
<path d="M75.2012 30.6504H80.5274V29.7183H75.2012V30.6504Z" fill="black"/>
<path d="M75.2012 28.7695H80.5274V27.8374H75.2012V28.7695Z" fill="black"/>
<path d="M75.2012 26.8893H88.0771C87.8333 26.5608 87.5488 26.2501 87.2237 25.957H75.2012V26.8893Z" fill="black"/>
<path d="M75.2012 25.0083H85.918C85.3299 24.6657 84.6554 24.3549 83.8945 24.0762H75.2012V25.0083Z" fill="black"/>
<path d="M75.2006 23.1279H80.7494L80.5268 23.0642V22.6639C80.5268 22.5002 80.5297 22.3441 80.5355 22.1958H75.1934C75.1982 22.3446 75.2006 22.5006 75.2006 22.6639V23.1279Z" fill="black"/>
<path d="M90.0303 22.1958V23.1279H99.9424C99.8457 22.7984 99.7166 22.4878 99.5531 22.1958H90.0303Z" fill="black"/>
<path d="M101.805 22.1958C101.646 22.4882 101.512 22.799 101.401 23.1279H114.432C114.321 22.799 114.187 22.4882 114.028 22.1958H101.805Z" fill="black"/>
<path d="M116.582 22.1958C116.587 22.3446 116.589 22.5006 116.589 22.6639V23.1279H121.77V22.6639C121.77 22.5006 121.773 22.3446 121.777 22.1958H116.582Z" fill="black"/>
<path d="M121.855 21.2472H116.505C116.482 21.0856 116.453 20.9386 116.42 20.8063C116.373 20.6223 116.314 20.4585 116.246 20.3149H122.114C122.046 20.4585 121.988 20.6223 121.94 20.8063C121.907 20.9386 121.879 21.0856 121.855 21.2472Z" fill="black"/>
<path d="M128.808 22.1958C128.813 22.3446 128.815 22.5006 128.815 22.6639V23.1279H133.972V22.6639C133.972 22.5006 133.974 22.3446 133.979 22.1958H128.808Z" fill="black"/>
<path d="M134.057 21.2472H128.732C128.708 21.0856 128.68 20.9386 128.647 20.8063C128.599 20.6223 128.539 20.4585 128.468 20.3149H134.321C134.249 20.4585 134.19 20.6223 134.142 20.8063C134.109 20.9386 134.08 21.0856 134.057 21.2472Z" fill="black"/>
<path d="M112.386 20.3149H103.456C103.08 20.586 102.744 20.8967 102.449 21.2472H113.395C113.102 20.8967 112.766 20.586 112.386 20.3149Z" fill="black"/>
<path d="M133.973 24.0762H128.815V25.0083H133.973V24.0762Z" fill="black"/>
<path d="M133.973 25.957H128.815V26.8893H133.973V25.957Z" fill="black"/>
<path d="M133.972 27.8374H128.815V27.936L128.715 27.8374H116.589V28.7695H133.972V27.8374Z" fill="black"/>
<path d="M133.972 29.7183H116.589V30.6504H133.972V29.7183Z" fill="black"/>
<path d="M114.817 30.6504V29.7183H109.515V30.6504H114.817Z" fill="black"/>
<path d="M106.343 30.6504V29.7183H101.017V30.6504H106.343Z" fill="black"/>
<path d="M96.0966 30.6504C96.1264 30.5923 96.1626 30.5354 96.2041 30.4798C96.3658 30.3029 96.6241 30.0697 96.9791 29.7802L97.0631 29.7183H90.0478C89.9186 30.0215 89.8222 30.3322 89.7588 30.6504H96.0966Z" fill="black"/>
<path d="M89.218 30.6504C89.2182 30.6258 89.2183 30.6011 89.2183 30.5763C89.2183 30.2818 89.2022 29.9957 89.17 29.7183H83.7861C83.8244 29.8741 83.8437 30.0395 83.8437 30.2144C83.8437 30.3709 83.8272 30.5163 83.7944 30.6504H89.218Z" fill="black"/>
<path d="M83.1905 28.7695H88.9889C88.9002 28.4453 88.7859 28.1345 88.6459 27.8374H81.0596L81.2056 27.8743C82.1078 28.1108 82.7694 28.4094 83.1905 28.7695Z" fill="black"/>
<path d="M91.4448 27.8374C91.1151 28.1281 90.8297 28.4388 90.5889 28.7695H98.2596C98.5414 28.5065 98.7925 28.2322 99.012 27.9466C99.04 27.9104 99.0671 27.874 99.0942 27.8374H91.4448Z" fill="black"/>
<path d="M101.017 27.8374V28.7695H106.343V27.8374H101.017Z" fill="black"/>
<path d="M106.343 26.8893H101.017V25.957H106.351C106.346 26.0385 106.343 26.1227 106.343 26.21V26.8893Z" fill="black"/>
<path d="M109.515 27.8374V28.7695H114.817V27.8374H109.515Z" fill="black"/>
<path d="M114.816 26.8893H109.514V26.21C109.514 26.1227 109.511 26.0385 109.506 25.957H114.816V26.8893Z" fill="black"/>
<path d="M116.589 26.8893H121.77V25.957H116.589V26.8893Z" fill="black"/>
<path d="M116.589 25.0083H121.77V24.0762H116.589V25.0083Z" fill="black"/>
<path d="M114.676 24.0762H101.157C101.101 24.3745 101.063 24.6852 101.04 25.0083H106.598C106.637 24.9373 106.682 24.8714 106.73 24.8107C107.005 24.489 107.4 24.3282 107.916 24.3282C108.433 24.3282 108.829 24.489 109.103 24.8107C109.155 24.8714 109.202 24.9373 109.243 25.0083H114.793C114.77 24.6852 114.731 24.3745 114.676 24.0762Z" fill="black"/>
<path d="M100.141 25.0083C100.147 24.8954 100.151 24.7811 100.151 24.6659C100.151 24.4642 100.142 24.2675 100.123 24.0762H93.2988C93.4063 24.1248 93.503 24.1847 93.5897 24.2558C93.8534 24.4602 93.9979 24.7111 94.0223 25.0083H100.141Z" fill="black"/>
<path d="M93.7153 25.957C93.7063 25.9691 93.6963 25.981 93.6864 25.9929C93.4967 26.2232 93.1625 26.5221 92.6865 26.8893H99.6603C99.7353 26.7301 99.8021 26.568 99.8599 26.403C99.9123 26.2566 99.9575 26.1081 99.9954 25.957H93.7153Z" fill="black"/>
<path d="M91.48 24.0762H90.0303V24.9071H90.2239L90.5871 24.5453C90.7162 24.4488 90.8534 24.3683 90.9986 24.3041C91.1449 24.2189 91.3057 24.143 91.48 24.0762Z" fill="black"/>
<path d="M123.721 25.957L122.654 26.8893H127.746L126.794 25.957H123.721Z" fill="black"/>
<path d="M125.825 25.0085H124.806L125.281 24.5938H125.402L125.825 25.0085Z" fill="black"/>
<path d="M1.3418 22.1958H13.31V23.1279H1.35011V22.6639C1.35011 22.5006 1.34735 22.3446 1.3418 22.1958Z" fill="black"/>
<path d="M138.102 0.800293C137.8 0.800293 137.524 0.851038 137.273 0.952527C137.019 1.05011 136.797 1.19064 136.609 1.3741C136.422 1.55366 136.276 1.76639 136.174 2.01231C136.073 2.25823 136.021 2.52756 136.021 2.82032C136.021 3.11308 136.073 3.38241 136.174 3.62833C136.276 3.87424 136.422 4.08894 136.609 4.27239C136.797 4.45195 137.019 4.59248 137.273 4.69397C137.524 4.79155 137.8 4.84035 138.102 4.84035C138.4 4.84035 138.676 4.79155 138.931 4.69397C139.185 4.59248 139.406 4.45195 139.595 4.27239C139.783 4.08894 139.927 3.87424 140.029 3.62833C140.131 3.38241 140.182 3.11308 140.182 2.82032C140.182 2.52756 140.131 2.25823 140.029 2.01231C139.927 1.76639 139.783 1.55366 139.595 1.3741C139.406 1.19064 139.185 1.05011 138.931 0.952527C138.676 0.851038 138.4 0.800293 138.102 0.800293ZM137.326 4.09089C137.103 3.96988 136.93 3.80008 136.809 3.58149C136.687 3.3629 136.627 3.10917 136.627 2.82032C136.627 2.52756 136.687 2.27384 136.809 2.05915C136.93 1.84056 137.103 1.67076 137.326 1.54975C137.545 1.42875 137.804 1.36824 138.102 1.36824C138.395 1.36824 138.654 1.42875 138.877 1.54975C139.097 1.67076 139.269 1.84056 139.394 2.05915C139.516 2.27384 139.577 2.52756 139.577 2.82032C139.577 3.10917 139.516 3.3629 139.394 3.58149C139.269 3.80008 139.097 3.96988 138.877 4.09089C138.654 4.2119 138.395 4.27239 138.102 4.27239C137.804 4.27239 137.545 4.2119 137.326 4.09089ZM137.485 2.48072H137.526C137.553 2.4495 137.592 2.42412 137.644 2.40461C137.679 2.3929 137.721 2.38704 137.773 2.38704C137.843 2.38704 137.908 2.40461 137.967 2.43973C138.021 2.47487 138.065 2.5217 138.096 2.58026C138.127 2.63881 138.143 2.70712 138.143 2.78519C138.143 2.9101 138.11 3.01159 138.043 3.08966C137.972 3.16772 137.88 3.20676 137.767 3.20676C137.708 3.20676 137.657 3.19505 137.614 3.17163C137.595 3.15992 137.577 3.14821 137.561 3.13649C137.542 3.12089 137.528 3.10723 137.52 3.09551H137.479V3.89181C137.515 3.90743 137.563 3.91913 137.626 3.92695C137.684 3.93475 137.748 3.93866 137.813 3.93866C138.056 3.93866 138.272 3.89181 138.46 3.79813C138.644 3.70054 138.789 3.56588 138.895 3.39413C139.001 3.21847 139.054 3.01744 139.054 2.79105C139.054 2.56855 139.005 2.37142 138.906 2.19968C138.809 2.02792 138.672 1.89521 138.495 1.80152C138.319 1.70394 138.12 1.65515 137.896 1.65515C137.841 1.65515 137.795 1.6571 137.755 1.661C137.716 1.6649 137.681 1.66686 137.649 1.66686C137.59 1.66686 137.535 1.661 137.485 1.64929V2.48072Z" fill="black"/>
<path fill-rule="evenodd" clip-rule="evenodd" d="M14.1791 14.8716C13.7432 13.794 13.5254 12.6039 13.5254 11.3012C13.5254 9.99854 13.7432 8.80841 14.1791 7.73088C14.6309 6.65335 15.2605 5.72056 16.0674 4.93251C16.8906 4.14446 17.8509 3.53332 18.9484 3.09909C20.0621 2.66487 21.2888 2.44775 22.6285 2.44775C23.952 2.44775 25.1706 2.66487 26.2843 3.09909C27.3979 3.53332 28.3583 4.14446 29.1653 4.93251C29.9722 5.72056 30.5936 6.65335 31.0295 7.73088C31.4813 8.80841 31.7073 9.99854 31.7073 11.3012C31.7073 12.6039 31.4813 13.794 31.0295 14.8716C30.5936 15.9491 29.9722 16.8818 29.1653 17.67C28.3583 18.458 27.3979 19.0691 26.2843 19.5033C25.1706 19.9376 23.952 20.1547 22.6285 20.1547C21.2888 20.1547 20.0621 19.9376 18.9484 19.5033C17.8509 19.0691 16.8906 18.458 16.0674 17.67C15.2605 16.8818 14.6309 15.9491 14.1791 14.8716ZM26.1389 11.3012C26.1389 10.6096 25.9857 9.99854 25.6789 9.4678C25.3884 8.93708 24.9768 8.51893 24.4442 8.21336C23.9278 7.90779 23.3225 7.75501 22.6285 7.75501C21.9344 7.75501 21.3211 7.90779 20.7885 8.21336C20.2559 8.51893 19.8362 8.93708 19.5295 9.4678C19.239 9.99854 19.0938 10.6096 19.0938 11.3012C19.0938 11.9766 19.239 12.5878 19.5295 13.1346C19.8362 13.6653 20.2559 14.0835 20.7885 14.3891C21.3211 14.6946 21.9344 14.8475 22.6285 14.8475C23.3225 14.8475 23.9278 14.6946 24.4442 14.3891C24.9768 14.0835 25.3884 13.6653 25.6789 13.1346C25.9857 12.5878 26.1389 11.9766 26.1389 11.3012Z" fill="black"/>
<path d="M10.2353 14.8957H6.6764V6.01813C6.6764 5.19792 6.74903 4.5707 6.8943 4.13646C7.03956 3.70223 7.23324 3.38863 7.47534 3.19563V2.97852H0.67224V3.19563C0.898203 3.40471 1.06768 3.7344 1.18066 4.18471C1.29364 4.61895 1.35013 5.23008 1.35013 6.01813V16.5844C1.35013 17.3725 1.28557 17.9916 1.15645 18.4419C1.04347 18.8762 0.857853 19.1978 0.599609 19.4069V19.624H11.2038C11.5911 19.624 11.9704 19.6401 12.3416 19.6722C12.7129 19.7044 13.0357 19.7607 13.3101 19.8411V14.1478H13.1163C12.8904 14.4052 12.5515 14.5982 12.0995 14.7268C11.6638 14.8394 11.0423 14.8957 10.2353 14.8957Z" fill="black"/>
<path d="M42.4025 11.3498C42.5154 11.7841 42.5719 12.4033 42.5719 13.2074V15.0861C42.4757 15.0881 42.3789 15.089 42.2814 15.089C41.4582 15.089 40.74 14.9443 40.1267 14.6548C39.5295 14.3492 39.0614 13.9231 38.7224 13.3763C38.3997 12.8134 38.2383 12.162 38.2383 11.4222C38.2383 10.6341 38.4158 9.95868 38.7709 9.3958C39.126 8.83291 39.6505 8.40672 40.3445 8.11724C41.0547 7.81167 41.9182 7.65888 42.9351 7.65888C43.3547 7.65888 43.7259 7.683 44.0488 7.73125C44.3877 7.7795 44.6944 7.85187 44.9688 7.94837C45.1786 8.0127 45.3803 8.10115 45.574 8.21373C45.7839 8.31023 45.9695 8.43085 46.1309 8.57559H46.3487V2.66524C45.9937 2.77781 45.6385 2.83411 45.2835 2.83411C45.0414 2.83411 44.6944 2.80194 44.2424 2.73761C43.8066 2.67328 43.2983 2.64111 42.7172 2.64111C40.6351 2.64111 38.8436 2.98689 37.3425 3.67844C35.8414 4.37 34.6875 5.36711 33.8804 6.6698C33.0734 7.97249 32.6699 9.54859 32.6699 11.3981C32.6699 13.1189 33.0734 14.6227 33.8804 15.9092C34.6875 17.1959 35.8092 18.193 37.2457 18.9006C38.6982 19.6082 40.3849 19.9621 42.3056 19.9621C43.3547 19.9621 44.3877 19.8897 45.4045 19.7449C46.4214 19.6002 47.3656 19.375 48.2371 19.0695V18.8524C47.995 18.6593 47.8175 18.386 47.7045 18.0321C47.5916 17.6783 47.535 17.1235 47.535 16.3676V13.2074C47.535 12.4033 47.5916 11.7841 47.7045 11.3498C47.8175 10.8995 47.995 10.5699 48.2371 10.3608V10.1436H41.894V10.3608C42.12 10.5699 42.2895 10.8995 42.4025 11.3498Z" fill="black"/>
<path fill-rule="evenodd" clip-rule="evenodd" d="M49.1244 14.8716C48.6886 13.794 48.4707 12.6039 48.4707 11.3012C48.4707 9.99854 48.6886 8.80841 49.1244 7.73088C49.5763 6.65335 50.2058 5.72056 51.0127 4.93251C51.8359 4.14446 52.7963 3.53332 53.8938 3.09909C55.0074 2.66487 56.2341 2.44775 57.5738 2.44775C58.8973 2.44775 60.1159 2.66487 61.2296 3.09909C62.3432 3.53332 63.3036 4.14446 64.1106 4.93251C64.9175 5.72056 65.539 6.65335 65.9748 7.73088C66.4267 8.80841 66.6526 9.99854 66.6526 11.3012C66.6526 12.6039 66.4267 13.794 65.9748 14.8716C65.539 15.9491 64.9175 16.8818 64.1106 17.67C63.3036 18.458 62.3432 19.0691 61.2296 19.5033C60.1159 19.9376 58.8973 20.1547 57.5738 20.1547C56.2341 20.1547 55.0074 19.9376 53.8938 19.5033C52.7963 19.0691 51.8359 18.458 51.0127 17.67C50.2058 16.8818 49.5763 15.9491 49.1244 14.8716ZM61.0843 11.3012C61.0843 10.6096 60.931 9.99854 60.6242 9.4678C60.3338 8.93708 59.9222 8.51893 59.3895 8.21336C58.8731 7.90779 58.2678 7.75501 57.5738 7.75501C56.8797 7.75501 56.2664 7.90779 55.7338 8.21336C55.2012 8.51893 54.7815 8.93708 54.4748 9.4678C54.1843 9.99854 54.0391 10.6096 54.0391 11.3012C54.0391 11.9766 54.1843 12.5878 54.4748 13.1346C54.7815 13.6653 55.2012 14.0835 55.7338 14.3891C56.2664 14.6946 56.8797 14.8475 57.5738 14.8475C58.2678 14.8475 58.8731 14.6946 59.3895 14.3891C59.9222 14.0835 60.3338 13.6653 60.6242 13.1346C60.931 12.5878 61.0843 11.9766 61.0843 11.3012Z" fill="black"/>
<path d="M67.8082 4.18471C67.9212 4.61895 67.9777 5.23008 67.9777 6.01813V16.5844C67.9777 17.3725 67.9212 17.9916 67.8082 18.4419C67.6952 18.8762 67.5258 19.1978 67.2998 19.4069V19.624H73.9819V19.4069C73.7559 19.1978 73.5864 18.8762 73.4734 18.4419C73.3604 17.9916 73.304 17.3725 73.304 16.5844V6.01813C73.304 5.23008 73.3604 4.61895 73.4734 4.18471C73.5864 3.7344 73.7559 3.40471 73.9819 3.19563V2.97852H67.2998V3.19563C67.5258 3.40471 67.6952 3.7344 67.8082 4.18471Z" fill="black"/>
<path fill-rule="evenodd" clip-rule="evenodd" d="M80.7449 18.466C80.8902 18.9003 81.0838 19.2139 81.3259 19.4069V19.624H74.5228V19.4069C74.7488 19.1978 74.9182 18.8762 75.0312 18.4419C75.1442 17.9916 75.2008 17.3725 75.2008 16.5844V6.01813C75.2008 5.23008 75.1362 4.61895 75.007 4.18471C74.894 3.7344 74.7084 3.40471 74.4502 3.19563V2.97852H82.2217C83.6744 2.97852 84.9171 3.21171 85.9502 3.67811C86.9992 4.12843 87.8063 4.77977 88.3712 5.63215C88.936 6.46844 89.2185 7.48164 89.2185 8.67175C89.2185 9.81363 88.9764 10.8268 88.4922 11.7114C88.008 12.5959 87.2655 13.3679 86.2648 14.0272C85.2642 14.6706 83.981 15.2093 82.4154 15.6436L80.527 16.184V16.5844C80.527 17.4046 80.5996 18.0318 80.7449 18.466ZM81.2049 11.3736L80.527 11.545V7.41732H81.7617C82.4396 7.41732 82.9561 7.56205 83.3112 7.85154C83.6663 8.12495 83.8438 8.51897 83.8438 9.03362C83.8438 9.61259 83.634 10.087 83.2144 10.4569C82.7947 10.8268 82.1249 11.1324 81.2049 11.3736Z" fill="black"/>
<path d="M98.8682 7.97248H99.0615V2.76172C98.7391 2.8743 98.4401 2.93059 98.1655 2.93059C97.9885 2.93059 97.722 2.90647 97.3671 2.85822C97.0121 2.80997 96.6165 2.78585 96.1802 2.78585C94.1145 2.78585 92.5086 3.22812 91.3624 4.11266C90.2328 4.98112 89.668 6.16319 89.668 7.65887C89.668 8.43084 89.8455 9.16259 90.2006 9.85418C90.5557 10.5296 91.0725 11.1327 91.7499 11.6634L92.4038 12.1459C93.0334 12.6123 93.4606 12.9822 93.6864 13.2556C93.9131 13.5291 94.026 13.8265 94.026 14.1482C94.026 14.4859 93.8806 14.7674 93.5898 14.9925C93.3152 15.2177 92.9367 15.3302 92.4517 15.3302C92.178 15.3302 91.9116 15.2981 91.6533 15.2337C91.4112 15.1534 91.1935 15.0569 90.9993 14.9443C90.8543 14.88 90.7171 14.7995 90.5879 14.703L90.2248 14.3412H90.0311V19.4313C90.3539 19.5439 90.8301 19.6323 91.4591 19.6967C92.1049 19.7771 92.7344 19.8173 93.3477 19.8173C95.5272 19.8173 97.2054 19.3509 98.3841 18.4181C99.5619 17.4693 100.151 16.1907 100.151 14.5824C100.151 13.9713 100.054 13.3923 99.8609 12.8455C99.6667 12.2987 99.384 11.784 99.0127 11.3016C98.6415 10.8191 98.1818 10.3688 97.6335 9.95066L96.9796 9.46816C96.6246 9.17867 96.3663 8.94547 96.2046 8.76857C96.0592 8.57557 95.9869 8.3665 95.9869 8.14135C95.9869 7.90011 96.0917 7.69104 96.3013 7.51412C96.5117 7.33722 96.8016 7.24877 97.1729 7.24877C97.3508 7.24877 97.5125 7.27289 97.657 7.32114C97.8187 7.3533 97.956 7.39351 98.0689 7.44175C98.2143 7.50609 98.3516 7.5865 98.4807 7.68299C98.6262 7.76341 98.7553 7.8599 98.8682 7.97248Z" fill="black"/>
<path d="M101.016 6.01813C101.016 5.23008 100.96 4.61895 100.846 4.18471C100.734 3.7344 100.565 3.40471 100.339 3.19563V2.97852H106.997V3.19563C106.771 3.40471 106.601 3.7344 106.488 4.18471C106.391 4.61895 106.343 5.23008 106.343 6.01813V13.0381C106.343 13.6493 106.472 14.1157 106.73 14.4374C107.005 14.759 107.4 14.9199 107.916 14.9199C108.433 14.9199 108.828 14.759 109.103 14.4374C109.377 14.1157 109.514 13.6493 109.514 13.0381V6.01813C109.514 5.23008 109.458 4.61895 109.345 4.18471C109.248 3.7344 109.078 3.40471 108.836 3.19563V2.97852H115.518V3.19563C115.276 3.40471 115.098 3.7344 114.986 4.18471C114.873 4.61895 114.817 5.23008 114.817 6.01813V13.5448C114.817 14.944 114.542 16.1341 113.993 17.1151C113.461 18.0961 112.678 18.8521 111.645 19.3828C110.628 19.8974 109.385 20.1547 107.916 20.1547C106.464 20.1547 105.221 19.8974 104.188 19.3828C103.171 18.8521 102.388 18.0961 101.839 17.1151C101.291 16.1341 101.016 14.944 101.016 13.5448V6.01813Z" fill="black"/>
<path d="M116.396 4.20883C116.525 4.67523 116.589 5.35875 116.589 6.25937V16.5844C116.589 17.3725 116.533 17.9916 116.421 18.4419C116.308 18.8762 116.138 19.1978 115.912 19.4069V19.624H122.449V19.4069C122.223 19.1978 122.053 18.8762 121.94 18.4419C121.827 17.9916 121.77 17.3725 121.77 16.5844V11.5868L125.281 14.6545H125.402L128.816 11.3119V16.5844C128.816 17.3725 128.76 17.9916 128.647 18.4419C128.534 18.8762 128.356 19.1978 128.114 19.4069V19.624H134.675V19.4069C134.433 19.1978 134.256 18.8762 134.142 18.4419C134.029 17.9916 133.973 17.3725 133.973 16.5844V6.25937C133.973 5.35875 134.037 4.67523 134.166 4.20883C134.312 3.74244 134.513 3.40471 134.771 3.19563V2.97852H129.01V3.14738C129.219 3.53337 129.284 3.92739 129.203 4.32946C129.123 4.71543 128.881 5.10142 128.477 5.4874L125.39 8.57915L122.158 5.43915C121.755 5.03709 121.513 4.65111 121.432 4.28121C121.351 3.89523 121.415 3.51728 121.626 3.14738V2.97852H115.791V3.19563C116.066 3.40471 116.267 3.74244 116.396 4.20883Z" fill="black"/>
</g>
<defs>
<clipPath id="clip0_2065_237">
<rect width="140" height="36" fill="white" transform="translate(0.599609 0.800293)"/>
</clipPath>
</defs>
</svg>
