<svg width="134" height="25" viewBox="0 0 134 25" fill="none" xmlns="http://www.w3.org/2000/svg">
<g clip-path="url(#clip0_2065_370)">
<path fill-rule="evenodd" clip-rule="evenodd" d="M23.978 1.36269C24.7546 0.618737 25.9788 0.615354 26.7594 1.33779L26.8333 1.40957L27.0857 1.67471C29.6427 4.42963 30.5955 7.64011 30.3511 10.7755C30.1031 13.9552 28.6383 16.9536 26.5947 19.3231C24.5524 21.691 21.8257 23.5558 18.8784 24.3652C15.8939 25.1847 12.6298 24.9234 9.79645 22.9199C7.3933 21.2205 6.47836 18.474 6.41621 15.8059C5.06766 15.1434 3.64873 14.32 2.15995 13.3186L1.76656 13.051L1.68276 12.9904C0.837531 12.3436 0.644271 11.1465 1.26029 10.2677C1.87649 9.38887 3.07635 9.15049 3.98343 9.70909L4.07068 9.76573L4.42907 10.0099C5.32092 10.6098 6.17193 11.1298 6.98112 11.5788C7.50313 9.74383 8.36812 7.98205 9.50758 6.52981C11.2147 4.35423 13.7743 2.61438 16.91 2.87396C19.7344 3.10794 21.8213 4.56735 22.8985 6.62698C23.9415 8.62135 23.9569 11.0205 23.0454 13.0837C22.116 15.187 20.2293 16.9394 17.5153 17.6614C15.5621 18.181 13.274 18.1453 10.6922 17.4495V17.4505C9.66448 17.1734 8.58742 16.7907 7.46179 16.2937C7.20927 16.1823 6.98949 16.3526 7.46179 16.6482C8.79101 17.5932 10.6635 18.3853 11.2053 18.6512C11.4614 19.0662 11.779 19.4065 12.143 19.6639C13.818 20.8484 15.7775 21.0654 17.7997 20.5101C19.8591 19.9446 21.9231 18.5811 23.524 16.7249C25.1237 14.8701 26.1551 12.6478 26.325 10.4674C26.4854 8.41009 25.8927 6.29656 24.1072 4.37595L23.9307 4.19089L23.8603 4.11471C23.1577 3.31797 23.2019 2.1066 23.978 1.36269ZM16.5737 6.86041C15.2782 6.75314 13.911 7.43623 12.6961 8.98447C11.7709 10.1636 11.0708 11.6957 10.7139 13.2722C13.2564 14.1428 15.1512 14.1487 16.4678 13.7986C17.9919 13.3931 18.9058 12.4751 19.3457 11.4796C19.8032 10.4439 19.7563 9.31525 19.3126 8.46685C18.9031 7.68379 18.0786 6.98509 16.5737 6.86041Z" fill="black"/>
<path d="M83.7742 8.96205C82.6495 8.96205 81.9273 8.11611 82.0837 6.98127C82.2402 5.84645 83.1959 5.00049 84.3213 5.00049C85.4461 5.00049 86.1682 5.84645 86.0118 6.98127C85.8553 8.11611 84.8996 8.96205 83.7742 8.96205Z" fill="black"/>
<path d="M80.7051 20.0829L82.1115 9.89014H85.1801L83.7737 20.0829H80.7051Z" fill="black"/>
<path fill-rule="evenodd" clip-rule="evenodd" d="M86.0998 15.0899L84.8096 24.4367H87.8782L88.6329 18.9689C89.142 19.8767 90.0995 20.3513 91.3061 20.3513C93.5978 20.3513 96.4498 18.6594 96.939 15.1104C97.3922 11.8298 95.4466 9.62207 92.2347 9.62207C89.1456 9.62207 86.5723 11.6647 86.0998 15.0899ZM93.8469 14.9867C93.6447 16.4516 92.5639 17.4626 91.1731 17.4626C89.7817 17.4626 88.9801 16.4516 89.1823 14.9867C89.3845 13.5217 90.4654 12.5107 91.8562 12.5107C93.2475 12.5107 94.0492 13.5217 93.8469 14.9867Z" fill="black"/>
<path d="M101.025 20.3513C98.4274 20.3513 96.9433 18.9482 97.1726 16.9881H100.2C100.147 17.5245 100.499 17.7928 101.337 17.7928C102.278 17.7928 102.631 17.4626 102.691 17.0294C102.778 16.3937 102.15 16.2975 101.316 16.1701L101.313 16.1695C101.255 16.1606 101.196 16.1515 101.136 16.1422C99.773 15.9358 97.5301 15.585 97.8689 13.1297C98.1536 11.0664 99.9692 9.62207 102.485 9.62207C105.002 9.62207 106.354 11.087 106.162 12.9233H103.176C103.159 12.4488 102.787 12.1806 102.173 12.1806C101.417 12.1806 101.055 12.5726 100.998 12.9852C100.917 13.5762 101.574 13.6782 102.435 13.8119L102.559 13.8312C103.983 14.0375 106.159 14.4296 105.826 16.8437C105.535 18.9482 103.623 20.3513 101.025 20.3513Z" fill="black"/>
<path d="M118.36 14.3471L117.568 20.0831H120.637L121.428 14.3471C121.617 12.9852 122.336 12.5107 123.257 12.5107C124.158 12.5107 124.747 12.9852 124.558 14.3471L123.767 20.0831H126.836L127.627 14.3471C127.815 12.9852 128.535 12.5107 129.435 12.5107C130.356 12.5107 130.945 12.9852 130.758 14.3471L129.966 20.0831H133.034L133.826 14.3471C134.279 11.0664 132.596 9.62207 130.141 9.62207C128.689 9.62207 127.425 10.1792 126.52 11.2521C125.911 10.1792 124.781 9.62207 123.349 9.62207C120.894 9.62207 118.813 11.0664 118.36 14.3471Z" fill="black"/>
<path d="M106.961 15.1722C106.485 18.618 108.251 20.3511 111.238 20.3511C114.225 20.3511 116.471 18.5973 116.944 15.1722L117.673 9.89014H114.604L113.875 15.1722C113.653 16.7816 112.782 17.4625 111.636 17.4625C110.49 17.4625 109.807 16.7816 110.029 15.1722L110.758 9.89014H107.689L106.961 15.1722Z" fill="black"/>
<path fill-rule="evenodd" clip-rule="evenodd" d="M69.3067 14.9867C68.88 18.0817 70.8172 20.3513 74.0086 20.3513C77.2 20.3513 79.7631 18.0817 80.1904 14.9867C80.6177 11.8917 78.6804 9.62207 75.489 9.62207C72.2976 9.62207 69.7339 11.8917 69.3067 14.9867ZM77.0808 14.9867C76.8786 16.4516 75.7978 17.4626 74.407 17.4626C73.0156 17.4626 72.214 16.4516 72.4162 14.9867C72.6184 13.5217 73.6993 12.5107 75.09 12.5107C76.4814 12.5107 77.283 13.5217 77.0808 14.9867Z" fill="black"/>
<path fill-rule="evenodd" clip-rule="evenodd" d="M59.5361 19.3929C58.2965 18.4461 57.6818 16.8691 57.9415 14.9867C58.3686 11.8917 60.9321 9.62207 64.1233 9.62207C67.3147 9.62207 69.2519 11.8917 68.8252 14.9867C68.4124 17.9762 66.0063 20.1957 62.9672 20.3435C63.6827 20.7539 64.7227 21.0857 65.487 21.3296C65.7421 21.4111 65.9666 21.4828 66.1381 21.5443C66.832 21.7193 67.2749 22.3714 67.1678 23.1491C67.042 24.061 66.2073 24.8001 65.3028 24.8001H60.3922C58.5841 24.8001 57.3223 23.3217 57.5739 21.4981H62.8107C61.6143 21.0314 60.3497 20.0978 59.5361 19.3929ZM63.0418 17.4626C64.4326 17.4626 65.5134 16.4516 65.7157 14.9867C65.9179 13.5217 65.1162 12.5107 63.7249 12.5107C62.3341 12.5107 61.2532 13.5217 61.0511 14.9867C60.8489 16.4516 61.6504 17.4626 63.0418 17.4626Z" fill="black"/>
<path fill-rule="evenodd" clip-rule="evenodd" d="M46.5763 14.9867C46.1492 18.0817 48.0863 20.3513 51.2777 20.3513C54.4692 20.3513 57.0327 18.0817 57.4598 14.9867C57.8869 11.8917 55.9497 9.62207 52.7583 9.62207C49.5669 9.62207 47.0033 11.8917 46.5763 14.9867ZM54.3502 14.9867C54.1481 16.4516 53.0675 17.4626 51.6764 17.4626C50.2852 17.4626 49.4837 16.4516 49.6858 14.9867C49.888 13.5217 50.9686 12.5107 52.3597 12.5107C53.7508 12.5107 54.5524 13.5217 54.3502 14.9867Z" fill="black"/>
<path d="M35.8047 20.083L37.6667 6.58887H40.9809L39.5459 16.988H45.8674L45.4403 20.083H35.8047Z" fill="black"/>
</g>
<defs>
<clipPath id="clip0_2065_370">
<rect width="133" height="24" fill="white" transform="translate(0.899414 0.800293)"/>
</clipPath>
</defs>
</svg>
