<svg width="64" height="49" viewBox="0 0 64 49" fill="none" xmlns="http://www.w3.org/2000/svg">
<g clip-path="url(#clip0_2065_365)">
<path d="M63.6992 2.55639C63.6992 3.02214 63.5148 3.46881 63.1867 3.79814C62.8585 4.12747 62.4133 4.31249 61.9492 4.31249C61.4851 4.31249 61.04 4.12747 60.7118 3.79814C60.3836 3.46881 60.1992 3.02214 60.1992 2.55639C60.1992 2.09064 60.3836 1.64397 60.7118 1.31464C61.04 0.98531 61.4851 0.800293 61.9492 0.800293C62.4133 0.800293 62.8585 0.98531 63.1867 1.31464C63.5148 1.64397 63.6992 2.09064 63.6992 2.55639Z" fill="black"/>
<path fill-rule="evenodd" clip-rule="evenodd" d="M16.7409 48.5593C7.88122 48.5593 0.699219 41.3523 0.699219 32.4617V1.97119H6.53255V32.4617C6.53255 35.1786 7.60807 37.7842 9.5225 39.7053C11.4369 41.6264 14.0335 42.7056 16.7409 42.7056C22.4494 42.7056 26.9492 38.2908 26.9492 32.7029H32.7826V41.4834C32.7826 41.8715 32.9362 42.2437 33.2097 42.5182C33.4832 42.7926 33.8541 42.9468 34.2409 42.9468C34.6277 42.9468 34.9986 42.7926 35.2721 42.5182C35.5456 42.2437 35.6992 41.8715 35.6992 41.4834V31.0931C34.6397 31.3102 33.5453 31.288 32.4954 31.0282C31.4454 30.7685 30.4662 30.2776 29.6287 29.5912C28.7911 28.9048 28.1161 28.0401 27.6527 27.0596C27.1893 26.0792 26.949 25.0076 26.9492 23.9224V9.28826C26.9492 7.34766 27.7174 5.48653 29.0849 4.11431C30.4523 2.7421 32.307 1.97119 34.2409 1.97119C36.1748 1.97119 38.0294 2.7421 39.3969 4.11431C40.7643 5.48653 41.5326 7.34766 41.5326 9.28826V41.4834C41.5326 41.8715 41.6862 42.2437 41.9597 42.5182C42.2332 42.7926 42.6041 42.9468 42.9909 42.9468C43.3777 42.9468 43.7486 42.7926 44.0221 42.5182C44.2956 42.2437 44.4492 41.8715 44.4492 41.4834V9.28826C44.4492 7.34766 45.2174 5.48653 46.5849 4.11431C47.9523 2.7421 49.807 1.97119 51.7409 1.97119C53.6748 1.97119 55.5294 2.7421 56.8969 4.11431C58.2643 5.48653 59.0326 7.34766 59.0326 9.28826V41.4834C59.0326 42.8423 58.6555 44.1743 57.9435 45.3302C57.2316 46.4861 56.213 47.4203 55.0018 48.028C53.7906 48.6357 52.4347 48.8929 51.0861 48.7709C49.7374 48.6489 48.4492 48.1524 47.3659 47.337C46.1048 48.2891 44.569 48.8028 42.9909 48.8005C41.4128 48.8028 39.8769 48.2891 38.6159 47.337C37.7383 47.9975 36.7235 48.4507 35.6472 48.663C34.5708 48.8753 33.4606 48.8413 32.3992 48.5634C31.3378 48.2854 30.3525 47.7708 29.5168 47.0578C28.6811 46.3448 28.0164 45.4518 27.5722 44.4453C24.7069 47.0174 20.8954 48.5593 16.7409 48.5593ZM51.7409 42.9468C50.9359 42.9468 50.2826 42.2912 50.2826 41.4834V9.28826C50.2826 8.90014 50.4362 8.52792 50.7097 8.25347C50.9832 7.97903 51.3541 7.82485 51.7409 7.82485C52.1277 7.82485 52.4986 7.97903 52.7721 8.25347C53.0456 8.52792 53.1992 8.90014 53.1992 9.28826V41.4834C53.1992 42.2912 52.5459 42.9468 51.7409 42.9468ZM35.6992 23.9224C35.6992 24.3105 35.5456 24.6828 35.2721 24.9572C34.9986 25.2316 34.6277 25.3858 34.2409 25.3858C33.8541 25.3858 33.4832 25.2316 33.2097 24.9572C32.9362 24.6828 32.7826 24.3105 32.7826 23.9224V9.28826C32.7826 8.90014 32.9362 8.52792 33.2097 8.25347C33.4832 7.97903 33.8541 7.82485 34.2409 7.82485C34.6277 7.82485 34.9986 7.97903 35.2721 8.25347C35.5456 8.52792 35.6992 8.90014 35.6992 9.28826V23.9224Z" fill="black"/>
<path fill-rule="evenodd" clip-rule="evenodd" d="M9.44922 32.7029C9.44922 34.6435 10.2174 36.5046 11.5849 37.8769C12.9524 39.2491 14.807 40.02 16.7409 40.02C18.6748 40.02 20.5294 39.2491 21.8969 37.8769C23.2643 36.5046 24.0326 34.6435 24.0326 32.7029V9.28827C24.0326 7.34766 23.2643 5.48653 21.8969 4.11431C20.5294 2.7421 18.6748 1.97119 16.7409 1.97119C14.807 1.97119 12.9524 2.7421 11.5849 4.11431C10.2174 5.48653 9.44922 7.34766 9.44922 9.28827V32.7029ZM16.7409 34.1663C15.9359 34.1663 15.2826 33.5107 15.2826 32.7029V9.28827C15.2826 8.90014 15.4362 8.52792 15.7097 8.25347C15.9832 7.97903 16.3541 7.82485 16.7409 7.82485C17.1277 7.82485 17.4986 7.97903 17.7721 8.25347C18.0456 8.52792 18.1992 8.90014 18.1992 9.28827V32.7029C18.1992 33.5107 17.5459 34.1663 16.7409 34.1663Z" fill="black"/>
</g>
<defs>
<clipPath id="clip0_2065_365">
<rect width="63" height="48" fill="white" transform="translate(0.699219 0.800293)"/>
</clipPath>
</defs>
</svg>
